<svg width="309" height="48" viewBox="0 0 309 48" fill="none" xmlns="http://www.w3.org/2000/svg">
<path d="M226.416 29L225.632 26.744H220.864L220.08 29H218.08L222.144 17.8H224.352L228.4 29H226.416ZM221.472 25.016H225.024L223.248 19.96L221.472 25.016ZM235.924 17.8C237.46 17.8 238.735 18.3387 239.748 19.416C240.772 20.4933 241.284 21.8213 241.284 23.4C241.284 24.968 240.772 26.296 239.748 27.384C238.735 28.4613 237.46 29 235.924 29H231.524V17.8H235.924ZM235.924 27.24C236.98 27.24 237.839 26.8773 238.5 26.152C239.172 25.4267 239.508 24.5093 239.508 23.4C239.508 22.28 239.172 21.3627 238.5 20.648C237.839 19.9227 236.98 19.56 235.924 19.56H233.364V27.24H235.924ZM247.245 29L243.357 17.8H245.373L248.349 26.776L251.341 17.8H253.341L249.453 29H247.245ZM256.458 17.8H258.298V29H256.458V17.8ZM266.028 29.208C264.951 29.208 264.033 28.9627 263.276 28.472C262.529 27.9813 262.007 27.3093 261.708 26.456L263.292 25.528C263.74 26.7867 264.668 27.416 266.076 27.416C266.769 27.416 267.287 27.2827 267.628 27.016C267.98 26.7387 268.156 26.3813 268.156 25.944C268.156 25.4853 267.969 25.1387 267.596 24.904C267.223 24.6587 266.561 24.392 265.612 24.104C265.079 23.944 264.647 23.7947 264.316 23.656C263.985 23.5173 263.633 23.3253 263.26 23.08C262.897 22.824 262.625 22.5093 262.444 22.136C262.263 21.7627 262.172 21.3253 262.172 20.824C262.172 19.832 262.524 19.048 263.228 18.472C263.932 17.8853 264.78 17.592 265.772 17.592C266.668 17.592 267.452 17.8107 268.124 18.248C268.796 18.6853 269.313 19.288 269.676 20.056L268.124 20.952C267.655 19.9067 266.871 19.384 265.772 19.384C265.239 19.384 264.812 19.512 264.492 19.768C264.172 20.0133 264.012 20.3493 264.012 20.776C264.012 21.192 264.172 21.5227 264.492 21.768C264.823 22.0027 265.415 22.2533 266.268 22.52C266.695 22.6587 267.004 22.7653 267.196 22.84C267.399 22.904 267.676 23.0107 268.028 23.16C268.391 23.3093 268.663 23.4587 268.844 23.608C269.025 23.7573 269.217 23.944 269.42 24.168C269.633 24.392 269.783 24.648 269.868 24.936C269.953 25.224 269.996 25.5493 269.996 25.912C269.996 26.9253 269.628 27.7307 268.892 28.328C268.167 28.9147 267.212 29.208 266.028 29.208ZM282.783 27.528C281.663 28.648 280.292 29.208 278.671 29.208C277.05 29.208 275.674 28.648 274.543 27.528C273.423 26.3973 272.863 25.0213 272.863 23.4C272.863 21.7787 273.423 20.408 274.543 19.288C275.674 18.1573 277.05 17.592 278.671 17.592C280.292 17.592 281.663 18.1573 282.783 19.288C283.914 20.408 284.479 21.7787 284.479 23.4C284.479 25.0213 283.914 26.3973 282.783 27.528ZM275.839 26.28C276.607 27.0373 277.551 27.416 278.671 27.416C279.791 27.416 280.73 27.0373 281.487 26.28C282.255 25.512 282.639 24.552 282.639 23.4C282.639 22.248 282.255 21.2933 281.487 20.536C280.73 19.768 279.791 19.384 278.671 19.384C277.551 19.384 276.607 19.768 275.839 20.536C275.082 21.2933 274.703 22.248 274.703 23.4C274.703 24.552 275.082 25.512 275.839 26.28ZM294.461 29L292.093 24.92H289.917V29H288.077V17.8H292.557C293.56 17.8 294.408 18.152 295.101 18.856C295.805 19.5493 296.157 20.3973 296.157 21.4C296.157 22.1147 295.949 22.7707 295.533 23.368C295.128 23.9547 294.595 24.3813 293.933 24.648L296.477 29H294.461ZM289.917 19.528V23.272H292.557C293.048 23.272 293.464 23.0907 293.805 22.728C294.147 22.3653 294.317 21.9227 294.317 21.4C294.317 20.8773 294.147 20.4347 293.805 20.072C293.464 19.7093 293.048 19.528 292.557 19.528H289.917ZM308.105 17.8L304.201 24.552V29H302.361V24.552L298.457 17.8H300.553L303.289 22.76L306.009 17.8H308.105Z" fill="#AAAAAA"/>
<path d="M80.0296 33.1064C79.3837 33.6936 78.7378 34.1486 78.092 34.4716C77.4461 34.7945 76.8296 35.0294 76.2424 35.1761C75.6553 35.3229 75.0975 35.411 74.5691 35.4404C74.07 35.4697 73.6296 35.4844 73.248 35.4844C71.9269 35.4844 70.6792 35.2349 69.5049 34.7358C68.3599 34.2073 67.3471 33.5028 66.4663 32.622C65.615 31.7119 64.9251 30.6698 64.3966 29.4954C63.8976 28.2918 63.648 27.0147 63.648 25.6643C63.648 24.3138 63.8976 23.0514 64.3966 21.8771C64.9251 20.6735 65.615 19.6313 66.4663 18.7506C67.3471 17.8405 68.3599 17.1359 69.5049 16.6368C70.6792 16.1084 71.9269 15.8441 73.248 15.8441C73.6296 15.8441 74.07 15.8588 74.5691 15.8882C75.0975 15.9175 75.6553 16.0056 76.2424 16.1524C76.8296 16.2992 77.4461 16.5341 78.092 16.857C78.7378 17.1799 79.3837 17.635 80.0296 18.2221V16.3285H84.3451V35H80.0296V33.1064ZM73.9525 31.433C74.8039 31.433 75.5966 31.3009 76.3305 31.0367C77.0644 30.7431 77.6956 30.3468 78.2241 29.8477C78.7819 29.3193 79.2222 28.7028 79.5452 27.9982C79.8681 27.2936 80.0296 26.5156 80.0296 25.6643C80.0296 24.8129 79.8681 24.0349 79.5452 23.3303C79.2222 22.6258 78.7819 22.0239 78.2241 21.5248C77.6956 20.9964 77.0644 20.6001 76.3305 20.3359C75.5966 20.0423 74.8039 19.8955 73.9525 19.8955C73.1305 19.8955 72.3525 20.0423 71.6186 20.3359C70.8847 20.6001 70.2388 20.9964 69.681 21.5248C69.1526 22.0239 68.7269 22.6258 68.4039 23.3303C68.1104 24.0349 67.9636 24.8129 67.9636 25.6643C67.9636 26.5156 68.1104 27.2936 68.4039 27.9982C68.7269 28.7028 69.1526 29.3193 69.681 29.8477C70.2388 30.3468 70.8847 30.7431 71.6186 31.0367C72.3525 31.3009 73.1305 31.433 73.9525 31.433Z" fill="white"/>
<path d="M18.594 33.1064C17.9482 33.6936 17.3023 34.1486 16.6564 34.4716C16.0106 34.7945 15.394 35.0294 14.8069 35.1761C14.2197 35.3229 13.6619 35.411 13.1335 35.4404C12.6344 35.4697 12.1941 35.4844 11.8124 35.4844C10.4913 35.4844 9.24362 35.2349 8.06931 34.7358C6.92437 34.2073 5.91153 33.5028 5.0308 32.622C4.17943 31.7119 3.48952 30.6698 2.96109 29.4954C2.46201 28.2918 2.21247 27.0147 2.21247 25.6643C2.21247 24.3138 2.46201 23.0514 2.96109 21.8771C3.48952 20.6735 4.17943 19.6313 5.0308 18.7506C5.91153 17.8405 6.92437 17.1359 8.06931 16.6368C9.24362 16.1084 10.4913 15.8441 11.8124 15.8441C12.1941 15.8441 12.6344 15.8588 13.1335 15.8882C13.6619 15.9175 14.2197 16.0056 14.8069 16.1524C15.394 16.2992 16.0106 16.5341 16.6564 16.857C17.3023 17.1799 17.9482 17.635 18.594 18.2221V8.66621H22.9096V35H18.594V33.1064ZM12.517 31.433C13.3684 31.433 14.161 31.3009 14.895 31.0367C15.6289 30.7431 16.2601 30.3468 16.7885 29.8477C17.3463 29.3193 17.7867 28.7028 18.1096 27.9982C18.4326 27.2936 18.594 26.5156 18.594 25.6643C18.594 24.8129 18.4326 24.0349 18.1096 23.3303C17.7867 22.6258 17.3463 22.0239 16.7885 21.5248C16.2601 20.9964 15.6289 20.6001 14.895 20.3359C14.161 20.0423 13.3684 19.8955 12.517 19.8955C11.695 19.8955 10.917 20.0423 10.1831 20.3359C9.44912 20.6001 8.80325 20.9964 8.24546 21.5248C7.71702 22.0239 7.29134 22.6258 6.9684 23.3303C6.67483 24.0349 6.52804 24.8129 6.52804 25.6643C6.52804 26.5156 6.67483 27.2936 6.9684 27.9982C7.29134 28.7028 7.71702 29.3193 8.24546 29.8477C8.80325 30.3468 9.44912 30.7431 10.1831 31.0367C10.917 31.3009 11.695 31.433 12.517 31.433Z" fill="white"/>
<path d="M41.132 27.5138H26.2477C26.4825 28.3065 26.8055 28.9523 27.2165 29.4514C27.6275 29.9505 28.0825 30.3468 28.5816 30.6404C29.1101 30.934 29.6532 31.1395 30.211 31.2569C30.7688 31.3743 31.3119 31.433 31.8403 31.433C32.31 31.433 32.8091 31.389 33.3376 31.3009C33.8366 31.2422 34.3504 31.1395 34.8788 30.9927C35.4073 30.8459 35.9504 30.6404 36.5082 30.3762L38.9302 33.811C38.255 34.134 37.5357 34.4128 36.7724 34.6477C36.0678 34.8826 35.2898 35.0734 34.4385 35.2202C33.6165 35.3963 32.7357 35.4844 31.7963 35.4844C30.3871 35.4844 29.0807 35.2495 27.877 34.7798C26.6734 34.3101 25.6312 33.6495 24.7504 32.7982C23.8697 31.9174 23.1798 30.8753 22.6807 29.6716C22.1817 28.4679 21.9321 27.1322 21.9321 25.6643C21.9321 24.3138 22.167 23.0514 22.6367 21.8771C23.1064 20.6735 23.767 19.6313 24.6183 18.7506C25.4697 17.8405 26.4825 17.1359 27.6569 16.6368C28.8312 16.1084 30.1229 15.8441 31.5321 15.8441C32.7651 15.8441 33.9541 16.0643 35.099 16.5047C36.244 16.9157 37.2568 17.5616 38.1375 18.4423C39.0476 19.2937 39.7669 20.3652 40.2953 21.657C40.8531 22.9193 41.132 24.3872 41.132 26.0606V27.5138ZM31.5321 19.8955C30.5045 19.8955 29.477 20.2038 28.4495 20.8203C27.422 21.4368 26.7027 22.4349 26.2917 23.8147H36.7724C36.3907 22.4349 35.6715 21.4368 34.6146 20.8203C33.5871 20.2038 32.5596 19.8955 31.5321 19.8955ZM29.3743 13.8185L32.3688 8.26988H37.3008L33.6458 13.8185H29.3743Z" fill="white"/>
<path d="M152.366 27.5138H137.482C137.717 28.3065 138.04 28.9523 138.451 29.4514C138.862 29.9505 139.317 30.3468 139.816 30.6404C140.344 30.934 140.888 31.1395 141.445 31.2569C142.003 31.3743 142.546 31.433 143.075 31.433C143.544 31.433 144.043 31.389 144.572 31.3009C145.071 31.2422 145.585 31.1395 146.113 30.9927C146.642 30.8459 147.185 30.6404 147.743 30.3762L150.165 33.811C149.489 34.134 148.77 34.4128 148.007 34.6477C147.302 34.8826 146.524 35.0734 145.673 35.2202C144.851 35.3963 143.97 35.4844 143.031 35.4844C141.621 35.4844 140.315 35.2495 139.111 34.7798C137.908 34.3101 136.866 33.6495 135.985 32.7982C135.104 31.9174 134.414 30.8753 133.915 29.6716C133.416 28.4679 133.166 27.1322 133.166 25.6643C133.166 24.3138 133.401 23.0514 133.871 21.8771C134.341 20.6735 135.001 19.6313 135.853 18.7506C136.704 17.8405 137.717 17.1359 138.891 16.6368C140.066 16.1084 141.357 15.8441 142.766 15.8441C143.999 15.8441 145.188 16.0643 146.333 16.5047C147.478 16.9157 148.491 17.5616 149.372 18.4423C150.282 19.2937 151.001 20.3652 151.53 21.657C152.087 22.9193 152.366 24.3872 152.366 26.0606V27.5138ZM142.766 19.8955C141.739 19.8955 140.711 20.2038 139.684 20.8203C138.656 21.4368 137.937 22.4349 137.526 23.8147H148.007C147.625 22.4349 146.906 21.4368 145.849 20.8203C144.821 20.2038 143.794 19.8955 142.766 19.8955Z" fill="white"/>
<path d="M170.405 27.5138H155.521C155.756 28.3065 156.079 28.9523 156.49 29.4514C156.901 29.9505 157.356 30.3468 157.855 30.6404C158.383 30.934 158.927 31.1395 159.484 31.2569C160.042 31.3743 160.585 31.433 161.114 31.433C161.583 31.433 162.083 31.389 162.611 31.3009C163.11 31.2422 163.624 31.1395 164.152 30.9927C164.681 30.8459 165.224 30.6404 165.782 30.3762L168.204 33.811C167.528 34.134 166.809 34.4128 166.046 34.6477C165.341 34.8826 164.563 35.0734 163.712 35.2202C162.89 35.3963 162.009 35.4844 161.07 35.4844C159.661 35.4844 158.354 35.2495 157.15 34.7798C155.947 34.3101 154.905 33.6495 154.024 32.7982C153.143 31.9174 152.453 30.8753 151.954 29.6716C151.455 28.4679 151.206 27.1322 151.206 25.6643C151.206 24.3138 151.44 23.0514 151.91 21.8771C152.38 20.6735 153.04 19.6313 153.892 18.7506C154.743 17.8405 155.756 17.1359 156.93 16.6368C158.105 16.1084 159.396 15.8441 160.805 15.8441C162.039 15.8441 163.228 16.0643 164.372 16.5047C165.517 16.9157 166.53 17.5616 167.411 18.4423C168.321 19.2937 169.04 20.3652 169.569 21.657C170.127 22.9193 170.405 24.3872 170.405 26.0606V27.5138ZM160.805 19.8955C159.778 19.8955 158.75 20.2038 157.723 20.8203C156.695 21.4368 155.976 22.4349 155.565 23.8147H166.046C165.664 22.4349 164.945 21.4368 163.888 20.8203C162.861 20.2038 161.833 19.8955 160.805 19.8955Z" fill="white"/>
<path d="M49.779 35H44.0102L38.5057 16.3285H43.1295L46.8286 30.4202L50.6157 16.3285H55.3716L59.1588 30.4202L62.8578 16.3285H67.4816L61.9771 35H56.2083L52.9937 22.7138L49.779 35Z" fill="white"/>
<path d="M87.1296 8.66621H91.4452V35H87.1296V8.66621Z" fill="white"/>
<path d="M94.1726 8.66621H98.4882V35H94.1726V8.66621Z" fill="white"/>
<path d="M110.816 16.3285H114.823V9.85519C115.674 9.64969 116.408 9.45886 117.025 9.28272C117.641 9.07722 118.346 8.87171 119.138 8.66621V16.3285H124.247V20.3799H119.138V27.9101C119.138 28.1156 119.153 28.4092 119.182 28.7909C119.241 29.1432 119.373 29.4954 119.579 29.8477C119.784 30.2 120.122 30.5083 120.592 30.7725C121.061 31.0367 121.707 31.1688 122.529 31.1688C122.735 31.1688 122.94 31.1688 123.146 31.1688C123.351 31.1688 123.542 31.1688 123.718 31.1688C123.894 31.1395 124.056 31.1248 124.203 31.1248V34.8679C123.938 34.8972 123.645 34.9119 123.322 34.9119C123.028 34.9413 122.691 34.9706 122.309 35C121.957 35 121.546 35 121.076 35C120.841 35 120.371 34.9706 119.667 34.9119C118.992 34.8239 118.287 34.5596 117.553 34.1193C116.849 33.6495 116.217 32.9303 115.66 31.9615C115.102 30.9927 114.823 29.6129 114.823 27.8221V20.3799H110.816V16.3285Z" fill="white"/>
<path d="M167.435 16.3285H171.442V9.85519C172.293 9.64969 173.027 9.45886 173.644 9.28272C174.26 9.07722 174.965 8.87171 175.758 8.66621V16.3285H180.866V20.3799H175.758V27.9101C175.758 28.1156 175.772 28.4092 175.802 28.7909C175.86 29.1432 175.992 29.4954 176.198 29.8477C176.403 30.2 176.741 30.5083 177.211 30.7725C177.68 31.0367 178.326 31.1688 179.148 31.1688C179.354 31.1688 179.559 31.1688 179.765 31.1688C179.97 31.1688 180.161 31.1688 180.337 31.1688C180.513 31.1395 180.675 31.1248 180.822 31.1248V34.8679C180.558 34.8972 180.264 34.9119 179.941 34.9119C179.647 34.9413 179.31 34.9706 178.928 35C178.576 35 178.165 35 177.695 35C177.46 35 176.991 34.9706 176.286 34.9119C175.611 34.8239 174.906 34.5596 174.172 34.1193C173.468 33.6495 172.836 32.9303 172.279 31.9615C171.721 30.9927 171.442 29.6129 171.442 27.8221V20.3799H167.435V16.3285Z" fill="white"/>
<path d="M125.098 16.3285H129.414V19.323C129.972 18.5304 130.588 17.9139 131.263 17.4735C131.939 17.0331 132.584 16.7102 133.201 16.5047C133.817 16.2992 134.375 16.1818 134.874 16.1524C135.373 16.123 135.711 16.1084 135.887 16.1084C136.093 16.1084 136.313 16.1084 136.548 16.1084C136.812 16.1084 137.061 16.123 137.296 16.1524V20.2918C136.973 20.2331 136.709 20.1891 136.504 20.1597C136.386 20.1597 136.298 20.1597 136.239 20.1597C135.065 20.1597 134.038 20.4239 133.157 20.9524C132.306 21.4515 131.601 22.0826 131.043 22.8459C130.485 23.6092 130.074 24.4313 129.81 25.312C129.546 26.1927 129.414 27 129.414 27.734V35H125.098V16.3285Z" fill="white"/>
<path d="M101.119 29.8037C101.442 30.2441 101.839 30.5964 102.308 30.8606C102.807 31.0954 103.292 31.2569 103.762 31.345C104.29 31.4918 104.848 31.5798 105.435 31.6092C105.611 31.6092 105.905 31.6092 106.316 31.6092C106.756 31.5798 107.196 31.5064 107.637 31.389C108.106 31.2716 108.503 31.1101 108.826 30.9046C109.178 30.6698 109.354 30.3321 109.354 29.8918C109.354 29.3633 109.09 28.967 108.561 28.7028C108.033 28.4092 107.358 28.1597 106.536 27.9542C105.743 27.7487 104.877 27.5285 103.938 27.2936C103.028 27.0588 102.162 26.7211 101.34 26.2808C100.547 25.8111 99.8863 25.2092 99.3579 24.4753C98.8294 23.7414 98.5652 22.7579 98.5652 21.5248C98.5652 20.879 98.712 20.2184 99.0056 19.5432C99.2992 18.868 99.7542 18.2662 100.371 17.7377C100.987 17.1799 101.751 16.7249 102.661 16.3726C103.6 16.0203 104.686 15.8441 105.919 15.8441C106.8 15.8441 107.593 15.9469 108.297 16.1524C109.002 16.3285 109.618 16.5634 110.147 16.857C110.675 17.1212 111.13 17.4148 111.512 17.7377C111.894 18.0606 112.202 18.3689 112.437 18.6625L109.795 21.2166C109.442 20.9524 109.061 20.7028 108.65 20.468C108.239 20.2918 107.798 20.1304 107.328 19.9836C106.888 19.8368 106.404 19.7634 105.875 19.7634C105.582 19.7634 105.259 19.7927 104.906 19.8515C104.554 19.9102 104.217 20.0129 103.894 20.1597C103.6 20.2772 103.351 20.4533 103.145 20.6882C102.969 20.923 102.881 21.2166 102.881 21.5689C102.881 22.1854 103.145 22.6551 103.673 22.9781C104.202 23.301 104.862 23.5799 105.655 23.8147C106.477 24.0202 107.343 24.2404 108.253 24.4753C109.193 24.6808 110.059 24.989 110.851 25.4001C111.673 25.8111 112.349 26.3835 112.877 27.1175C113.406 27.8221 113.67 28.7762 113.67 29.9798C113.67 30.567 113.494 31.1835 113.141 31.8294C112.818 32.4752 112.319 33.0771 111.644 33.6349C110.998 34.1633 110.191 34.6037 109.222 34.956C108.253 35.3083 107.123 35.4844 105.831 35.4844C104.745 35.4844 103.776 35.367 102.925 35.1321C102.073 34.8972 101.325 34.6037 100.679 34.2514C100.033 33.8697 99.49 33.4587 99.0496 33.0184C98.6386 32.578 98.301 32.167 98.0368 31.7853L101.119 29.8037Z" fill="white"/>
<rect x="199" y="8" width="1" height="31" fill="#888888" fill-opacity="0.3"/>
</svg>
