<svg width="378" height="100" viewBox="0 0 378 100" fill="none" xmlns="http://www.w3.org/2000/svg">
<path d="M172.264 69.0966C170.933 70.307 169.602 71.245 168.27 71.9107C166.939 72.5764 165.668 73.0605 164.458 73.3631C163.247 73.6657 162.097 73.8473 161.008 73.9078C159.979 73.9683 159.072 73.9985 158.285 73.9985C155.562 73.9985 152.99 73.4841 150.569 72.4553C148.209 71.366 146.121 69.9136 144.305 68.098C142.55 66.222 141.128 64.0736 140.039 61.6529C139.01 59.1717 138.495 56.5391 138.495 53.7553C138.495 50.9715 139.01 48.3692 140.039 45.9485C141.128 43.4673 142.55 41.3189 144.305 39.5033C146.121 37.6273 148.209 36.1748 150.569 35.146C152.99 34.0567 155.562 33.5121 158.285 33.5121C159.072 33.5121 159.979 33.5423 161.008 33.6028C162.097 33.6634 163.247 33.8449 164.458 34.1475C165.668 34.4501 166.939 34.9342 168.27 35.5999C169.602 36.2656 170.933 37.2037 172.264 38.414V34.5106H181.161V73H172.264V69.0966ZM159.737 65.6471C161.492 65.6471 163.126 65.3747 164.639 64.8301C166.152 64.2249 167.453 63.4079 168.543 62.3791C169.692 61.2898 170.6 60.0189 171.266 58.5665C171.932 57.114 172.264 55.5103 172.264 53.7553C172.264 52.0003 171.932 50.3966 171.266 48.9441C170.6 47.4917 169.692 46.2511 168.543 45.2223C167.453 44.133 166.152 43.316 164.639 42.7713C163.126 42.1661 161.492 41.8635 159.737 41.8635C158.043 41.8635 156.439 42.1661 154.926 42.7713C153.413 43.316 152.082 44.133 150.932 45.2223C149.843 46.2511 148.965 47.4917 148.299 48.9441C147.694 50.3966 147.392 52.0003 147.392 53.7553C147.392 55.5103 147.694 57.114 148.299 58.5665C148.965 60.0189 149.843 61.2898 150.932 62.3791C152.082 63.4079 153.413 64.2249 154.926 64.8301C156.439 65.3747 158.043 65.6471 159.737 65.6471Z" fill="white"/>
<path d="M45.6863 69.0966C44.355 70.307 43.0236 71.245 41.6922 71.9107C40.3608 72.5764 39.0899 73.0605 37.8795 73.3631C36.6692 73.6657 35.5193 73.8473 34.43 73.9078C33.4012 73.9683 32.4934 73.9985 31.7067 73.9985C28.9834 73.9985 26.4114 73.4841 23.9907 72.4553C21.6305 71.366 19.5426 69.9136 17.7271 68.098C15.972 66.222 14.5499 64.0736 13.4606 61.6529C12.4318 59.1717 11.9173 56.5391 11.9173 53.7553C11.9173 50.9715 12.4318 48.3692 13.4606 45.9485C14.5499 43.4673 15.972 41.3189 17.7271 39.5033C19.5426 37.6273 21.6305 36.1748 23.9907 35.146C26.4114 34.0567 28.9834 33.5121 31.7067 33.5121C32.4934 33.5121 33.4012 33.5423 34.43 33.6028C35.5193 33.6634 36.6692 33.8449 37.8795 34.1475C39.0899 34.4501 40.3608 34.9342 41.6922 35.5999C43.0236 36.2656 44.355 37.2037 45.6863 38.414V18.7154H54.5825V73H45.6863V69.0966ZM33.1591 65.6471C34.9142 65.6471 36.5481 65.3747 38.0611 64.8301C39.574 64.2249 40.8752 63.4079 41.9645 62.3791C43.1143 61.2898 44.0221 60.0189 44.6878 58.5665C45.3535 57.114 45.6863 55.5103 45.6863 53.7553C45.6863 52.0003 45.3535 50.3966 44.6878 48.9441C44.0221 47.4917 43.1143 46.2511 41.9645 45.2223C40.8752 44.133 39.574 43.316 38.0611 42.7713C36.5481 42.1661 34.9142 41.8635 33.1591 41.8635C31.4646 41.8635 29.8609 42.1661 28.348 42.7713C26.835 43.316 25.5036 44.133 24.3538 45.2223C23.2645 46.2511 22.3869 47.4917 21.7213 48.9441C21.1161 50.3966 20.8135 52.0003 20.8135 53.7553C20.8135 55.5103 21.1161 57.114 21.7213 58.5665C22.3869 60.0189 23.2645 61.2898 24.3538 62.3791C25.5036 63.4079 26.835 64.2249 28.348 64.8301C29.8609 65.3747 31.4646 65.6471 33.1591 65.6471Z" fill="white"/>
<path d="M91.999 57.5679H61.3164C61.8005 59.2019 62.4662 60.5333 63.3135 61.5621C64.1607 62.5909 65.0987 63.4079 66.1275 64.0131C67.2169 64.6183 68.3365 65.0419 69.4863 65.284C70.6361 65.526 71.7557 65.6471 72.845 65.6471C73.8133 65.6471 74.8421 65.5563 75.9315 65.3747C76.9603 65.2537 78.0193 65.0419 79.1086 64.7393C80.198 64.4367 81.3175 64.0131 82.4674 63.4684L87.4601 70.549C86.0682 71.2147 84.5855 71.7896 83.012 72.2738C81.5596 72.7579 79.9559 73.1513 78.2009 73.4539C76.5064 73.817 74.6908 73.9985 72.7543 73.9985C69.8494 73.9985 67.1564 73.5144 64.6751 72.5461C62.1939 71.5778 60.0455 70.2162 58.23 68.4612C56.4144 66.6456 54.9923 64.4972 53.9634 62.016C52.9346 59.5348 52.4202 56.7812 52.4202 53.7553C52.4202 50.9715 52.9044 48.3692 53.8727 45.9485C54.841 43.4673 56.2026 41.3189 57.9576 39.5033C59.7127 37.6273 61.8005 36.1748 64.2212 35.146C66.642 34.0567 69.3047 33.5121 72.2096 33.5121C74.7514 33.5121 77.2023 33.9659 79.5625 34.8737C81.9227 35.721 84.0106 37.0524 85.8261 38.8679C87.7022 40.6229 89.1849 42.8318 90.2742 45.4946C91.424 48.0969 91.999 51.1228 91.999 54.5723V57.5679ZM72.2096 41.8635C70.0915 41.8635 67.9733 42.499 65.8552 43.7698C63.7371 45.0407 62.2544 47.0983 61.4072 49.9427H83.012C82.2253 47.0983 80.7426 45.0407 78.564 43.7698C76.4459 42.499 74.3277 41.8635 72.2096 41.8635ZM67.7615 29.3363L73.9344 17.8984H84.1014L76.5669 29.3363H67.7615Z" fill="white"/>
<path d="M321.177 57.5679H290.494C290.978 59.2019 291.644 60.5333 292.491 61.5621C293.338 62.5909 294.276 63.4079 295.305 64.0131C296.395 64.6183 297.514 65.0419 298.664 65.284C299.814 65.526 300.933 65.6471 302.023 65.6471C302.991 65.6471 304.02 65.5563 305.109 65.3747C306.138 65.2537 307.197 65.0419 308.286 64.7393C309.376 64.4367 310.495 64.0131 311.645 63.4684L316.638 70.549C315.246 71.2147 313.763 71.7896 312.19 72.2738C310.737 72.7579 309.134 73.1513 307.379 73.4539C305.684 73.817 303.869 73.9985 301.932 73.9985C299.027 73.9985 296.334 73.5144 293.853 72.5461C291.372 71.5778 289.223 70.2162 287.408 68.4612C285.592 66.6456 284.17 64.4972 283.141 62.016C282.112 59.5348 281.598 56.7812 281.598 53.7553C281.598 50.9715 282.082 48.3692 283.05 45.9485C284.019 43.4673 285.38 41.3189 287.135 39.5033C288.89 37.6273 290.978 36.1748 293.399 35.146C295.82 34.0567 298.482 33.5121 301.387 33.5121C303.929 33.5121 306.38 33.9659 308.74 34.8737C311.1 35.721 313.188 37.0524 315.004 38.8679C316.88 40.6229 318.363 42.8318 319.452 45.4946C320.602 48.0969 321.177 51.1228 321.177 54.5723V57.5679ZM301.387 41.8635C299.269 41.8635 297.151 42.499 295.033 43.7698C292.915 45.0407 291.432 47.0983 290.585 49.9427H312.19C311.403 47.0983 309.92 45.0407 307.742 43.7698C305.624 42.499 303.505 41.8635 301.387 41.8635Z" fill="white"/>
<path d="M358.341 57.5679H327.658C328.142 59.2019 328.808 60.5333 329.655 61.5621C330.503 62.5909 331.441 63.4079 332.469 64.0131C333.559 64.6183 334.678 65.0419 335.828 65.284C336.978 65.526 338.098 65.6471 339.187 65.6471C340.155 65.6471 341.184 65.5563 342.273 65.3747C343.302 65.2537 344.361 65.0419 345.45 64.7393C346.54 64.4367 347.659 64.0131 348.809 63.4684L353.802 70.549C352.41 71.2147 350.927 71.7896 349.354 72.2738C347.901 72.7579 346.298 73.1513 344.543 73.4539C342.848 73.817 341.033 73.9985 339.096 73.9985C336.191 73.9985 333.498 73.5144 331.017 72.5461C328.536 71.5778 326.387 70.2162 324.572 68.4612C322.756 66.6456 321.334 64.4972 320.305 62.016C319.276 59.5348 318.762 56.7812 318.762 53.7553C318.762 50.9715 319.246 48.3692 320.214 45.9485C321.183 43.4673 322.544 41.3189 324.299 39.5033C326.054 37.6273 328.142 36.1748 330.563 35.146C332.984 34.0567 335.647 33.5121 338.551 33.5121C341.093 33.5121 343.544 33.9659 345.904 34.8737C348.265 35.721 350.352 37.0524 352.168 38.8679C354.044 40.6229 355.527 42.8318 356.616 45.4946C357.766 48.0969 358.341 51.1228 358.341 54.5723V57.5679ZM338.551 41.8635C336.433 41.8635 334.315 42.499 332.197 43.7698C330.079 45.0407 328.596 47.0983 327.749 49.9427H349.354C348.567 47.0983 347.084 45.0407 344.906 43.7698C342.788 42.499 340.67 41.8635 338.551 41.8635Z" fill="white"/>
<path d="M111.481 73H99.5894L88.2423 34.5106H97.7739L105.399 63.5592L113.206 34.5106H123.01L130.817 63.5592L138.442 34.5106H147.973L136.626 73H124.735L118.108 47.6733L111.481 73Z" fill="white"/>
<path d="M181.718 18.7154H190.614V73H181.718V18.7154Z" fill="white"/>
<path d="M196.228 18.7154H205.124V73H196.228V18.7154Z" fill="white"/>
<path d="M233.352 34.5106H241.613V21.1664C243.368 20.7428 244.881 20.3494 246.152 19.9863C247.422 19.5627 248.875 19.1391 250.509 18.7154V34.5106H261.039V42.8621H250.509V58.3849C250.509 58.8085 250.539 59.4137 250.6 60.2005C250.721 60.9267 250.993 61.6529 251.417 62.3791C251.84 63.1053 252.536 63.7408 253.504 64.2854C254.473 64.8301 255.804 65.1024 257.499 65.1024C257.922 65.1024 258.346 65.1024 258.77 65.1024C259.193 65.1024 259.587 65.1024 259.95 65.1024C260.313 65.0419 260.646 65.0116 260.948 65.0116V72.7277C260.404 72.7882 259.798 72.8184 259.133 72.8184C258.527 72.879 257.832 72.9395 257.045 73C256.319 73 255.471 73 254.503 73C254.019 73 253.051 72.9395 251.598 72.8184C250.206 72.6369 248.754 72.0922 247.241 71.1845C245.788 70.2162 244.487 68.7335 243.337 66.7364C242.188 64.7393 241.613 61.895 241.613 58.2034V42.8621H233.352V34.5106Z" fill="white"/>
<path d="M350.006 34.5106H358.267V21.1664C360.022 20.7428 361.535 20.3494 362.806 19.9863C364.077 19.5627 365.529 19.1391 367.163 18.7154V34.5106H377.693V42.8621H367.163V58.3849C367.163 58.8085 367.193 59.4137 367.254 60.2005C367.375 60.9267 367.647 61.6529 368.071 62.3791C368.495 63.1053 369.19 63.7408 370.159 64.2854C371.127 64.8301 372.458 65.1024 374.153 65.1024C374.577 65.1024 375 65.1024 375.424 65.1024C375.847 65.1024 376.241 65.1024 376.604 65.1024C376.967 65.0419 377.3 65.0116 377.602 65.0116V72.7277C377.058 72.7882 376.453 72.8184 375.787 72.8184C375.182 72.879 374.486 72.9395 373.699 73C372.973 73 372.126 73 371.157 73C370.673 73 369.705 72.9395 368.252 72.8184C366.861 72.6369 365.408 72.0922 363.895 71.1845C362.443 70.2162 361.142 68.7335 359.992 66.7364C358.842 64.7393 358.267 61.895 358.267 58.2034V42.8621H350.006V34.5106Z" fill="white"/>
<path d="M262.139 34.5106H271.035V40.6834C272.185 39.0494 273.456 37.7786 274.847 36.8708C276.239 35.963 277.571 35.2973 278.842 34.8737C280.112 34.4501 281.262 34.208 282.291 34.1475C283.32 34.087 284.016 34.0567 284.379 34.0567C284.803 34.0567 285.257 34.0567 285.741 34.0567C286.285 34.0567 286.8 34.087 287.284 34.1475V42.6805C286.618 42.5595 286.073 42.4687 285.65 42.4082C285.408 42.4082 285.226 42.4082 285.105 42.4082C282.684 42.4082 280.566 42.9529 278.751 44.0422C276.996 45.071 275.543 46.3721 274.394 47.9456C273.244 49.519 272.396 51.2136 271.852 53.0291C271.307 54.8446 271.035 56.5089 271.035 58.0218V73H262.139V34.5106Z" fill="white"/>
<path d="M213.251 62.2883C213.917 63.1961 214.734 63.9223 215.702 64.467C216.731 64.9511 217.729 65.284 218.697 65.4655C219.787 65.7681 220.937 65.9497 222.147 66.0102C222.51 66.0102 223.115 66.0102 223.963 66.0102C224.87 65.9497 225.778 65.7984 226.686 65.5563C227.654 65.3142 228.471 64.9814 229.137 64.5578C229.863 64.0736 230.226 63.3777 230.226 62.4699C230.226 61.3806 229.681 60.5636 228.592 60.0189C227.503 59.4137 226.111 58.8993 224.416 58.4757C222.782 58.0521 220.997 57.5982 219.061 57.114C217.185 56.6299 215.399 55.9339 213.705 55.0262C212.071 54.0579 210.709 52.8173 209.62 51.3043C208.53 49.7914 207.986 47.764 207.986 45.2223C207.986 43.8909 208.288 42.5292 208.894 41.1373C209.499 39.7454 210.437 38.5048 211.708 37.4155C212.979 36.2656 214.552 35.3276 216.428 34.6014C218.365 33.8752 220.604 33.5121 223.146 33.5121C224.961 33.5121 226.595 33.7239 228.047 34.1475C229.5 34.5106 230.771 34.9947 231.86 35.5999C232.949 36.1446 233.887 36.7498 234.674 37.4155C235.461 38.0812 236.096 38.7166 236.581 39.3218L231.134 44.5868C230.408 44.0422 229.621 43.5278 228.774 43.0436C227.926 42.6805 227.019 42.3477 226.05 42.0451C225.143 41.7425 224.144 41.5912 223.055 41.5912C222.45 41.5912 221.784 41.6517 221.058 41.7728C220.331 41.8938 219.635 42.1056 218.97 42.4082C218.365 42.6503 217.85 43.0134 217.427 43.4975C217.063 43.9817 216.882 44.5868 216.882 45.3131C216.882 46.5839 217.427 47.5522 218.516 48.2179C219.605 48.8836 220.967 49.4585 222.601 49.9427C224.295 50.3663 226.081 50.8202 227.957 51.3043C229.893 51.728 231.679 52.3634 233.313 53.2106C235.007 54.0579 236.399 55.238 237.488 56.7509C238.578 58.2034 239.122 60.1702 239.122 62.6514C239.122 63.8618 238.759 65.1327 238.033 66.4641C237.367 67.7955 236.338 69.0361 234.947 70.1859C233.615 71.2752 231.951 72.183 229.954 72.9092C227.957 73.6354 225.627 73.9985 222.964 73.9985C220.725 73.9985 218.728 73.7565 216.973 73.2723C215.218 72.7882 213.674 72.183 212.343 71.4568C211.012 70.6701 209.892 69.8228 208.984 68.915C208.137 68.0073 207.441 67.16 206.896 66.3733L213.251 62.2883Z" fill="white"/>
</svg>
