<svg width="100" height="100" viewBox="0 0 100 100" fill="none" xmlns="http://www.w3.org/2000/svg">
<g clip-path="url(#clip0_1732_4874)">
<path d="M57.0675 22.7291C57.4893 22.3385 42.4997 23.9583 34.8539 33.5416C27.2081 43.125 25.3643 53.026 25.3643 53.026C25.3643 53.026 34.2654 46.6198 41.4997 49.6666C41.5102 49.6666 49.3695 29.9531 57.0675 22.7291Z" fill="#03CCF8"/>
<path d="M77.5785 41.2031C77.5785 41.2031 82.6879 62.0313 51.7556 76.2708C51.7556 76.2708 57.1045 63.8177 52.6618 59.8594C52.6618 59.8594 65.016 52.1667 69.6045 48.2396C74.1931 44.3125 77.5785 41.2031 77.5785 41.2031Z" fill="#03CCF8"/>
<path d="M48.8907 62.0625C48.8907 62.0625 99.8751 39.1355 93.2085 0.864622C93.2085 0.864622 58.8074 3.5584e-05 39.1095 53.349L48.8907 62.0625Z" fill="white"/>
<path d="M52.8955 60.0781L40.6611 49.3125C40.6611 49.3125 38.2757 52.7708 39.2288 53.5677C39.8851 54.1302 49.0101 62.2812 49.0101 62.2812L52.8955 60.0781Z" fill="#6C364A"/>
<path d="M93.0264 15.5104C93.0264 15.5104 94.9692 7.28125 93.2348 0.421875C93.2348 0.421875 86.6202 1.17188 80.2712 3.80208L93.0264 15.5104Z" fill="#03CCF8"/>
<mask id="mask0_1732_4874" style="mask-type:luminance" maskUnits="userSpaceOnUse" x="7" y="53" width="43" height="47">
<path d="M49.333 53.3333H6.99967V99.9999H49.333V53.3333Z" fill="white"/>
</mask>
<g mask="url(#mask0_1732_4874)">
<path d="M48.3594 61.6196C48.3594 61.6196 29.5677 92.4894 7.10416 100.005C7.10416 100.005 16.1667 69.005 39.6719 53.8853L48.3594 61.6196Z" fill="#F26522"/>
</g>
<path d="M47.1357 60.5312C47.1357 60.5312 41.8024 69.8333 21.1878 84.0312C21.1878 84.0312 28.8545 64.7187 40.9535 55.0312L47.1357 60.5312Z" fill="#FCB22C"/>
<path d="M46.4688 59.974C46.4688 59.974 41.1615 65.4063 37.7865 65.2136C37.7865 65.2136 37.4479 59.6303 41.6094 55.6042L46.4688 59.974Z" fill="#FEEB81"/>
<path d="M66.682 23.4896C66.682 24.026 66.7341 24.5573 66.8382 25.0833C66.9372 25.6094 67.0934 26.1198 67.2966 26.6146C67.4997 27.1094 67.7549 27.5833 68.0466 28.026C68.3434 28.474 68.682 28.8854 69.057 29.2656C69.4372 29.6406 69.8486 29.9792 70.2913 30.2812C70.734 30.5781 71.2028 30.8281 71.6924 31.0312C72.1872 31.2396 72.6976 31.3958 73.2184 31.5C73.7393 31.6042 74.2705 31.6562 74.8018 31.6562C75.3382 31.6562 75.8643 31.6042 76.3903 31.5C76.9111 31.3958 77.4215 31.2396 77.9111 31.0312C78.4059 30.8281 78.8747 30.5781 79.3174 30.2812C79.7601 29.9792 80.1716 29.6406 80.5466 29.2656C80.9268 28.8854 81.2601 28.474 81.557 28.026C81.8538 27.5833 82.1038 27.1094 82.307 26.6146C82.5153 26.1198 82.6663 25.6094 82.7705 25.0833C82.8747 24.5573 82.9268 24.026 82.9268 23.4896C82.9268 22.9531 82.8747 22.4271 82.7705 21.901C82.6663 21.375 82.5153 20.8646 82.307 20.3698C82.1038 19.8698 81.8538 19.401 81.557 18.9583C81.2601 18.5104 80.9268 18.099 80.5466 17.7187C80.1716 17.3385 79.7601 17 79.3174 16.7031C78.8747 16.4063 78.4059 16.1563 77.9111 15.9479C77.4215 15.7448 76.9111 15.5885 76.3903 15.4844C75.8643 15.3802 75.3382 15.3281 74.8018 15.3281C74.2705 15.3281 73.7393 15.3802 73.2184 15.4844C72.6976 15.5885 72.1872 15.7448 71.6924 15.9479C71.2028 16.1563 70.734 16.4063 70.2913 16.7031C69.8486 17 69.4372 17.3385 69.057 17.7187C68.682 18.099 68.3434 18.5104 68.0466 18.9583C67.7549 19.401 67.4997 19.8698 67.2966 20.3698C67.0934 20.8646 66.9372 21.375 66.8382 21.901C66.7341 22.4271 66.682 22.9531 66.682 23.4896Z" fill="#777777"/>
<path d="M70.0262 19.2291C69.7658 19.5208 69.5418 19.8385 69.3439 20.1822C69.1512 20.5208 68.995 20.8801 68.87 21.2551C68.745 21.6353 68.6616 22.0208 68.6147 22.4166C68.5731 22.8124 68.5627 23.2083 68.5939 23.6093C68.6304 24.0103 68.6981 24.401 68.8075 24.7916C68.922 25.1822 69.0679 25.5572 69.2502 25.9218C69.4325 26.2864 69.646 26.6301 69.896 26.9531C70.146 27.276 70.422 27.5781 70.7293 27.8489C71.0314 28.1197 71.3595 28.3593 71.7085 28.5676C72.0627 28.7812 72.4272 28.9531 72.8075 29.0937C73.1877 29.2291 73.5783 29.3333 73.9741 29.3958C74.3752 29.4583 74.771 29.4791 75.172 29.4635C75.5731 29.4478 75.9637 29.3958 76.3491 29.302C76.7345 29.2083 77.1043 29.0781 77.4637 28.9114C77.8179 28.7395 78.1512 28.5416 78.4689 28.3072C78.7814 28.0676 79.0679 27.8072 79.3283 27.5103C79.5887 27.2187 79.8127 26.901 80.0106 26.5572C80.2033 26.2135 80.3647 25.8593 80.4845 25.4843C80.6095 25.1041 80.6929 24.7187 80.7397 24.3228C80.7866 23.927 80.7918 23.5312 80.7606 23.1301C80.7241 22.7291 80.6564 22.3385 80.547 21.9478C80.4377 21.5572 80.2866 21.1822 80.1043 20.8176C79.922 20.4531 79.7085 20.1093 79.4585 19.7864C79.2085 19.4635 78.9325 19.1614 78.6252 18.8906C78.3231 18.6197 77.995 18.3801 77.646 18.1718C77.2918 17.9583 76.9272 17.7864 76.547 17.6458C76.1668 17.5103 75.7762 17.4062 75.3804 17.3437C74.9793 17.2812 74.5835 17.2603 74.1825 17.276C73.7814 17.2916 73.3908 17.3437 73.0054 17.4374C72.62 17.5312 72.2502 17.6614 71.8908 17.8281C71.5366 17.9999 71.2033 18.1978 70.8856 18.4322C70.5731 18.6718 70.2866 18.9322 70.0262 19.2291Z" fill="#1E1E1E"/>
</g>
<defs>
<clipPath id="clip0_1732_4874">
<rect width="100" height="100" fill="white" transform="matrix(-1 0 0 1 100 0)"/>
</clipPath>
</defs>
</svg>
