<svg width="32" height="32" viewBox="0 0 32 32" fill="none" xmlns="http://www.w3.org/2000/svg">
<path d="M9.04797 12.1H10.704V20.5H9.04797V12.1ZM11.2029 20.5V19.264L14.0709 16.312C14.7109 15.64 15.0309 15.08 15.0309 14.632C15.0309 14.304 14.9269 14.04 14.7189 13.84C14.5189 13.64 14.2589 13.54 13.9389 13.54C13.3069 13.54 12.8389 13.868 12.5349 14.524L11.1429 13.708C11.4069 13.132 11.7869 12.692 12.2829 12.388C12.7789 12.084 13.3229 11.932 13.9149 11.932C14.6749 11.932 15.3269 12.172 15.8709 12.652C16.4149 13.124 16.6869 13.764 16.6869 14.572C16.6869 15.444 16.2269 16.34 15.3069 17.26L13.6629 18.904H16.8189V20.5H11.2029ZM20.5659 12.1C21.3739 12.1 22.0539 12.372 22.6059 12.916C23.1579 13.46 23.4339 14.128 23.4339 14.92C23.4339 15.712 23.1579 16.38 22.6059 16.924C22.0539 17.468 21.3739 17.74 20.5659 17.74H19.0899V20.5H17.4339V12.1H20.5659ZM20.5659 16.192C20.9179 16.192 21.2099 16.072 21.4419 15.832C21.6739 15.584 21.7899 15.28 21.7899 14.92C21.7899 14.552 21.6739 14.248 21.4419 14.008C21.2099 13.768 20.9179 13.648 20.5659 13.648H19.0899V16.192H20.5659Z" fill="url(#paint0_radial_1965_7051)"/>
<rect x="1.31271" y="1.31271" width="29.3746" height="29.3746" rx="5.25083" stroke="url(#paint1_radial_1965_7051)" stroke-width="2.62541"/>
<defs>
<radialGradient id="paint0_radial_1965_7051" cx="0" cy="0" r="1" gradientUnits="userSpaceOnUse" gradientTransform="translate(8.51613 12.3942) rotate(24.8068) scale(16.8446 299.128)">
<stop stop-color="#02D4F8"/>
<stop offset="0.427083" stop-color="#02B2F8"/>
<stop offset="1" stop-color="#02D9F8"/>
</radialGradient>
<radialGradient id="paint1_radial_1965_7051" cx="0" cy="0" r="1" gradientUnits="userSpaceOnUse" gradientTransform="translate(1.03226 8.30769) rotate(26.2443) scale(34.0953 630.539)">
<stop stop-color="#02D4F8"/>
<stop offset="0.427083" stop-color="#02B2F8"/>
<stop offset="1" stop-color="#02D9F8"/>
</radialGradient>
</defs>
</svg>
