<svg width="64" height="65" viewBox="0 0 64 65" fill="none" xmlns="http://www.w3.org/2000/svg">
<g clip-path="url(#clip0_1957_5504)">
<path d="M47.4813 29.1134C49.2724 29.1134 50.7297 27.6561 50.7297 25.865V3.74837C50.7297 1.95725 49.2725 0.5 47.4813 0.5H36.4229C34.6318 0.5 33.1747 1.95725 33.1747 3.74837V10.4558C32.8868 10.4366 32.5925 10.536 32.3724 10.7561C31.9675 11.161 31.9675 11.8175 32.3724 12.2221L33.9202 13.7699H30.8247V3.74837C30.8247 1.95725 29.3675 0.5 27.5763 0.5H16.5179C14.7268 0.5 13.2695 1.95725 13.2695 3.74837V25.865C13.2695 27.6561 14.7268 29.1134 16.5179 29.1134H21.0104V35.8866H16.5179C14.7268 35.8866 13.2695 37.3439 13.2695 39.135V61.2516C13.2695 63.0428 14.7268 64.5 16.5179 64.5H27.5763C29.3674 64.5 30.8247 63.0428 30.8247 61.2516V39.135C30.8247 37.3439 29.3674 35.8866 27.5763 35.8866H23.0838V29.1134H27.5763C29.3674 29.1134 30.8247 27.6561 30.8247 25.865V15.8434H33.92L32.3723 17.3911C31.9674 17.796 31.9674 18.4525 32.3723 18.8571C32.5748 19.0595 32.8402 19.1609 33.1054 19.1609C33.1285 19.1609 33.1514 19.1591 33.1745 19.1575V25.8649C33.1745 27.656 34.6318 29.1133 36.4229 29.1133H40.9154V35.8865H36.4229C34.6318 35.8865 33.1745 37.3438 33.1745 39.1349V61.2515C33.1745 63.0426 34.6318 64.4999 36.4229 64.4999H47.4813C49.2724 64.4999 50.7297 63.0426 50.7297 61.2515V39.135C50.7297 37.3439 49.2724 35.8866 47.4813 35.8866H42.9888V29.1134H47.4813ZM27.5763 37.96C28.2242 37.96 28.7513 38.487 28.7513 39.135V61.2516C28.7513 61.8995 28.2242 62.4266 27.5763 62.4266H16.5179C15.87 62.4266 15.3429 61.8995 15.3429 61.2516V39.135C15.3429 38.4871 15.8699 37.96 16.5179 37.96H21.0104V42.1611L19.4628 40.6134C19.0578 40.2085 18.4014 40.2085 17.9965 40.6134C17.5917 41.0183 17.5917 41.6748 17.9965 42.0794L21.314 45.3969C21.3154 45.3982 21.3169 45.3994 21.3182 45.4006C21.3412 45.4232 21.365 45.445 21.39 45.4656C21.4017 45.4751 21.4139 45.4835 21.4258 45.4925C21.441 45.5039 21.4558 45.5156 21.4717 45.5262C21.4858 45.5356 21.5004 45.5439 21.5149 45.5525C21.5294 45.5613 21.5437 45.5704 21.5585 45.5784C21.5733 45.5863 21.5887 45.593 21.6039 45.6003C21.6194 45.6076 21.6345 45.6154 21.6505 45.6217C21.6653 45.6279 21.6805 45.6327 21.6957 45.6382C21.7125 45.6444 21.7292 45.6507 21.7463 45.656C21.7615 45.6605 21.7768 45.6639 21.7922 45.6678C21.8095 45.6721 21.8269 45.677 21.8445 45.6806C21.8624 45.6842 21.8803 45.6863 21.8983 45.6888C21.9138 45.691 21.9292 45.6939 21.9448 45.6955C21.9788 45.6989 22.0129 45.7006 22.047 45.7006C22.0812 45.7006 22.1153 45.6989 22.1493 45.6955C22.165 45.694 22.1803 45.6911 22.1958 45.6888C22.2138 45.6861 22.2318 45.684 22.2495 45.6806C22.2674 45.677 22.2845 45.6721 22.3019 45.6678C22.3173 45.6639 22.3325 45.6606 22.3478 45.656C22.365 45.6507 22.3817 45.6444 22.3985 45.6382C22.4135 45.6329 22.4287 45.6279 22.4434 45.6217C22.4593 45.6151 22.4747 45.6074 22.4902 45.6C22.5053 45.5929 22.5205 45.5861 22.5354 45.5783C22.5503 45.5703 22.5645 45.5611 22.579 45.5524C22.5935 45.5436 22.6082 45.5355 22.6223 45.5261C22.638 45.5156 22.653 45.5039 22.6682 45.4924C22.68 45.4834 22.6923 45.4751 22.7039 45.4656C22.7289 45.4451 22.7528 45.4235 22.7758 45.4006C22.7772 45.3993 22.7787 45.3981 22.7799 45.3969L26.0974 42.0794C26.5023 41.6745 26.5023 41.018 26.0974 40.6134C25.6924 40.2085 25.036 40.2085 24.6312 40.6134L23.0835 42.1611V37.96H27.5763ZM22.0472 15.9816C21.3993 15.9816 20.8722 15.4545 20.8722 14.8066C20.8722 14.1588 21.3993 13.6316 22.0472 13.6316C22.695 13.6316 23.2222 14.1586 23.2222 14.8066C23.2222 15.4546 22.695 15.9816 22.0472 15.9816ZM28.7513 25.865C28.7513 26.5129 28.2242 27.04 27.5763 27.04H23.0838V17.8845C24.0422 17.5608 24.8012 16.8018 25.1249 15.8434H28.7512V25.865H28.7513ZM28.7513 13.77H25.125C24.6913 12.4859 23.4759 11.5584 22.0473 11.5584C20.2562 11.5584 18.7989 13.0156 18.7989 14.8068C18.7989 16.2355 19.7264 17.4508 21.0105 17.8845V27.04H16.518C15.8702 27.04 15.343 26.5129 15.343 25.865V3.74837C15.343 3.1005 15.87 2.57337 16.518 2.57337H27.5764C28.2243 2.57337 28.7514 3.1005 28.7514 3.74837V13.77H28.7513ZM36.423 27.04C35.7752 27.04 35.248 26.5129 35.248 25.865V17.4479L37.1562 15.5398C37.561 15.1349 37.561 14.4784 37.1562 14.0737L35.248 12.1656V3.74837C35.248 3.1005 35.775 2.57337 36.423 2.57337H47.4814C48.1293 2.57337 48.6564 3.1005 48.6564 3.74837V25.865C48.6564 26.5129 48.1294 27.04 47.4814 27.04H42.9889V17.8845C44.273 17.4508 45.2005 16.2354 45.2005 14.8068C45.2005 13.0156 43.7433 11.5584 41.9522 11.5584C40.161 11.5584 38.7038 13.0156 38.7038 14.8068C38.7038 16.2355 39.6313 17.4508 40.9154 17.8845V27.04H36.423ZM47.4813 37.96C48.1292 37.96 48.6563 38.487 48.6563 39.135V61.2516C48.6563 61.8995 48.1293 62.4266 47.4813 62.4266H36.4229C35.775 62.4266 35.2479 61.8995 35.2479 61.2516V39.135C35.2479 38.4871 35.7749 37.96 36.4229 37.96H40.9154V42.1611L39.3678 40.6134C38.9628 40.2085 38.3064 40.2085 37.9017 40.6134C37.4968 41.0183 37.4968 41.6748 37.9017 42.0794L41.2192 45.3969C41.2205 45.3982 41.222 45.3994 41.2233 45.4006C41.2463 45.4232 41.2702 45.445 41.2952 45.4656C41.3068 45.4751 41.319 45.4835 41.3309 45.4925C41.3462 45.5039 41.3609 45.5156 41.3768 45.5262C41.3909 45.5356 41.4055 45.5439 41.42 45.5525C41.4345 45.5613 41.4488 45.5704 41.4637 45.5784C41.4784 45.5863 41.4938 45.593 41.509 45.6003C41.5245 45.6076 41.5397 45.6154 41.5557 45.6217C41.5704 45.6279 41.5857 45.6327 41.6008 45.6382C41.6177 45.6444 41.6343 45.6507 41.6514 45.656C41.6667 45.6605 41.6819 45.6639 41.6973 45.6678C41.7147 45.6721 41.732 45.677 41.7497 45.6806C41.7675 45.6842 41.7854 45.6863 41.8034 45.6888C41.8189 45.691 41.8343 45.6939 41.8499 45.6955C41.8839 45.6989 41.918 45.7006 41.9522 45.7006C41.9863 45.7006 42.0204 45.6989 42.0544 45.6955C42.0702 45.694 42.0854 45.6911 42.1009 45.6888C42.1189 45.6861 42.1369 45.684 42.1547 45.6806C42.1725 45.677 42.1897 45.6721 42.207 45.6678C42.2224 45.6639 42.2377 45.6606 42.2529 45.656C42.2702 45.6507 42.2868 45.6444 42.3037 45.6382C42.3188 45.6329 42.3338 45.6279 42.3485 45.6217C42.3644 45.6151 42.3798 45.6074 42.3953 45.6C42.4104 45.5929 42.4257 45.5861 42.4405 45.5783C42.4554 45.5703 42.4697 45.5611 42.4842 45.5524C42.4987 45.5436 42.5133 45.5355 42.5274 45.5261C42.5432 45.5156 42.558 45.5039 42.5733 45.4924C42.5852 45.4834 42.5974 45.4751 42.609 45.4656C42.634 45.4451 42.6579 45.4235 42.6809 45.4006C42.6823 45.3993 42.6838 45.3981 42.685 45.3969L46.0025 42.0794C46.4074 41.6745 46.4074 41.018 46.0025 40.6134C45.5975 40.2085 44.9412 40.2085 44.5363 40.6134L42.9887 42.1611V37.96H47.4813ZM41.9522 15.9816C41.3043 15.9816 40.7772 15.4545 40.7772 14.8066C40.7772 14.1588 41.3043 13.6316 41.9522 13.6316C42.6 13.6316 43.1272 14.1586 43.1272 14.8066C43.1272 15.4546 42.6 15.9816 41.9522 15.9816Z" fill="#AAAAAA"/>
<path d="M41.9535 46.9449C40.1623 46.9449 38.7051 48.4021 38.7051 50.1933C38.7051 51.9844 40.1623 53.4416 41.9535 53.4416C43.7446 53.4416 45.2018 51.9844 45.2018 50.1933C45.2018 48.4021 43.7446 46.9449 41.9535 46.9449ZM41.9535 51.3683C41.3056 51.3683 40.7785 50.8413 40.7785 50.1933C40.7785 49.5453 41.3056 49.0183 41.9535 49.0183C42.6013 49.0183 43.1285 49.5454 43.1285 50.1933C43.1285 50.8411 42.6013 51.3683 41.9535 51.3683Z" fill="#AAAAAA"/>
<path d="M22.0472 46.9449C20.2561 46.9449 18.7988 48.4021 18.7988 50.1933C18.7988 51.9844 20.2561 53.4416 22.0472 53.4416C23.8383 53.4416 25.2956 51.9844 25.2956 50.1933C25.2956 48.4021 23.8385 46.9449 22.0472 46.9449ZM22.0472 51.3683C21.3993 51.3683 20.8722 50.8413 20.8722 50.1933C20.8722 49.5453 21.3993 49.0183 22.0472 49.0183C22.6951 49.0183 23.2222 49.5454 23.2222 50.1933C23.2222 50.8411 22.6951 51.3683 22.0472 51.3683Z" fill="#AAAAAA"/>
</g>
<defs>
<clipPath id="clip0_1957_5504">
<rect width="64" height="64" fill="white" transform="translate(0 0.5)"/>
</clipPath>
</defs>
</svg>
