<svg width="32" height="32" viewBox="0 0 32 32" fill="none" xmlns="http://www.w3.org/2000/svg">
<path d="M9.99805 13.4978C9.85992 13.4978 9.74805 13.386 9.74805 13.2478V12.0819C9.74805 11.1074 10.266 10.7232 11.1605 10.3888C11.4598 10.277 12.2551 9.97964 12.8897 9.67646C13.0152 9.61589 13.1632 9.66914 13.2232 9.79414C13.2518 9.85397 13.2555 9.9227 13.2334 9.98522C13.2113 10.0477 13.1654 10.099 13.1055 10.1276C12.5187 10.4078 11.8142 10.6783 11.3353 10.857C10.4819 11.1763 10.248 11.4395 10.248 12.082V13.2478C10.248 13.2807 10.2416 13.3132 10.229 13.3435C10.2165 13.3738 10.198 13.4014 10.1748 13.4246C10.1516 13.4478 10.124 13.4662 10.0937 13.4788C10.0634 13.4913 10.0309 13.4978 9.99805 13.4978ZM21.9965 13.4978C21.9637 13.4978 21.9311 13.4913 21.9008 13.4788C21.8705 13.4662 21.8429 13.4478 21.8197 13.4246C21.7965 13.4014 21.7781 13.3738 21.7655 13.3435C21.753 13.3131 21.7465 13.2806 21.7465 13.2478V12.0819C21.7465 11.4394 21.5127 11.1763 20.6593 10.857C20.1804 10.6778 19.4754 10.4073 18.888 10.1256C18.8584 10.1115 18.8319 10.0916 18.81 10.0673C18.788 10.0429 18.7711 10.0144 18.7602 9.98351C18.7493 9.95258 18.7445 9.91981 18.7463 9.88706C18.748 9.85431 18.7562 9.82223 18.7704 9.79264C18.7845 9.76302 18.8044 9.73648 18.8288 9.71453C18.8532 9.69258 18.8817 9.67566 18.9127 9.66473C18.9437 9.6538 18.9765 9.64908 19.0093 9.65084C19.0421 9.65259 19.0742 9.66079 19.1038 9.67496C19.6735 9.94789 20.3644 10.213 20.8341 10.3888C21.7285 10.7232 22.2465 11.1074 22.2465 12.0819V13.2478C22.2465 13.2806 22.24 13.3131 22.2275 13.3435C22.2149 13.3738 22.1965 13.4014 22.1733 13.4246C22.1501 13.4478 22.1225 13.4662 22.0922 13.4788C22.0618 13.4913 22.0293 13.4978 21.9965 13.4978ZM16.0124 10.0665C14.6 10.0665 12.2629 7.81827 12.2629 5.25614C12.2629 5.11802 12.3747 5.00614 12.5129 5.00614C12.651 5.00614 12.7629 5.11796 12.7629 5.25614C12.7629 7.47852 14.7899 9.56664 16.0124 9.56664C17.2349 9.56664 19.262 7.47852 19.262 5.25614C19.262 5.11802 19.3737 5.00614 19.5119 5.00614C19.6501 5.00614 19.7619 5.11796 19.7619 5.25614C19.7619 7.81833 17.4248 10.0665 16.0124 10.0665ZM12.4977 4.99883C12.4772 4.99883 12.4567 4.99639 12.4366 4.99102C12.3864 4.97845 12.3414 4.95061 12.3077 4.91135C12.2741 4.87208 12.2534 4.82333 12.2487 4.77183C12.1164 3.35989 12.4224 2.23408 13.1587 1.42608C14.2284 0.250895 15.963 0.00439453 17.2295 0.00439453C17.9853 0.00439453 18.5199 0.0927695 18.5423 0.0966445C18.5959 0.105684 18.6451 0.131919 18.6824 0.171384C18.7197 0.21085 18.7432 0.2614 18.7493 0.315395C18.7552 0.369313 18.7435 0.423702 18.7158 0.470371C18.6882 0.517039 18.6461 0.553458 18.596 0.574145C18.3827 0.66202 18.2459 0.78652 18.1776 0.955457C18.099 1.15021 18.1269 1.36752 18.1615 1.50958C18.4168 1.51983 18.9305 1.60183 19.3215 2.05833C19.797 2.61389 19.9392 3.53227 19.7439 4.78746C19.7359 4.83715 19.7133 4.88332 19.6788 4.91997C19.6443 4.95663 19.5996 4.98208 19.5505 4.99302C19.4479 5.01596 19.346 4.97302 19.2888 4.88752L18.3997 3.55421C18.0019 3.69827 17.0484 3.99896 16.0124 3.99896C14.9729 3.99896 13.998 3.69577 13.5952 3.55271L12.7057 4.88746C12.6828 4.92167 12.6519 4.94973 12.6156 4.96915C12.5793 4.98858 12.5388 4.99877 12.4977 4.99883ZM18.4969 2.99914C18.5785 2.99914 18.6575 3.03914 18.7049 3.11046L19.3215 4.03564C19.36 3.28627 19.2312 2.72183 18.9417 2.38352C18.6619 2.05739 18.2953 2.00852 18.1015 2.00852C18.0527 2.00852 18.0215 2.01146 18.0151 2.01239C17.9047 2.02508 17.7974 1.96652 17.7524 1.86546C17.7422 1.84202 17.5044 1.28839 17.7144 0.768395C17.7489 0.681912 17.7943 0.600206 17.8496 0.52527C17.6432 0.511484 17.4364 0.50448 17.2295 0.50427C16.0637 0.50427 14.475 0.722457 13.5284 1.76239C13.025 2.31458 12.7555 3.05227 12.7224 3.96083L13.2897 3.11039C13.3215 3.06224 13.3692 3.02666 13.4244 3.00974C13.4796 2.99282 13.539 2.99562 13.5924 3.01764C13.6041 3.02252 14.7816 3.49902 16.0125 3.49902C17.2423 3.49902 18.3887 3.02352 18.3999 3.01858C18.4306 3.00575 18.4636 2.99914 18.4969 2.99914Z" fill="white"/>
<path d="M19.5117 5.50627C19.4789 5.50629 19.4464 5.49983 19.416 5.48728C19.3857 5.47472 19.3581 5.4563 19.3349 5.43308C19.3117 5.40986 19.2933 5.3823 19.2807 5.35196C19.2682 5.32162 19.2617 5.28911 19.2618 5.25627V4.74902C19.2618 4.61084 19.3735 4.49902 19.5117 4.49902C19.6499 4.49902 19.7617 4.61084 19.7617 4.74902V5.25627C19.7617 5.39446 19.6499 5.50627 19.5117 5.50627ZM12.5126 5.50627C12.4798 5.50629 12.4473 5.49983 12.417 5.48728C12.3866 5.47472 12.3591 5.4563 12.3358 5.43308C12.3126 5.40986 12.2942 5.3823 12.2817 5.35196C12.2691 5.32162 12.2627 5.28911 12.2627 5.25627V4.74902C12.2627 4.61084 12.3745 4.49902 12.5126 4.49902C12.6508 4.49902 12.7626 4.61084 12.7626 4.74902V5.25627C12.7626 5.39446 12.6508 5.50627 12.5126 5.50627ZM15.0049 10.9982C14.9721 10.9982 14.9396 10.9917 14.9093 10.9792C14.879 10.9666 14.8514 10.9482 14.8282 10.925L13.3284 9.42515C13.3045 9.40209 13.2855 9.3745 13.2724 9.344C13.2593 9.3135 13.2524 9.28069 13.2521 9.2475C13.2518 9.2143 13.2581 9.18138 13.2707 9.15066C13.2832 9.11994 13.3018 9.09202 13.3253 9.06855C13.3488 9.04508 13.3767 9.02651 13.4074 9.01394C13.4381 9.00137 13.471 8.99505 13.5042 8.99534C13.5374 8.99562 13.5702 9.00252 13.6007 9.01562C13.6312 9.02872 13.6588 9.04777 13.6819 9.07165L15.0548 10.4445L15.9008 10.0241C15.9603 9.99475 16.0289 9.9901 16.0918 10.0112C16.1547 10.0324 16.2066 10.0776 16.2362 10.1369C16.2973 10.2605 16.2469 10.4108 16.1234 10.4718L15.1163 10.9718C15.0817 10.9891 15.0436 10.9981 15.0049 10.9982Z" fill="white"/>
<path d="M17.0039 10.9981C16.9653 10.9979 16.9272 10.9889 16.8926 10.9717L15.8854 10.4718C15.7618 10.4108 15.7116 10.2604 15.7726 10.1368C15.8021 10.0774 15.8541 10.0322 15.917 10.011C15.9799 9.98987 16.0486 9.99457 16.108 10.0241L16.9541 10.4445L18.327 9.07158C18.3742 9.02639 18.4372 9.00149 18.5026 9.00221C18.5679 9.00293 18.6304 9.02922 18.6766 9.07544C18.7228 9.12165 18.7491 9.18413 18.7498 9.24948C18.7505 9.31484 18.7256 9.37787 18.6804 9.42508L17.1806 10.9249C17.1337 10.9717 17.0702 10.9981 17.0039 10.9981ZM16.0235 11.498C15.9907 11.498 15.9582 11.4916 15.9278 11.479C15.8975 11.4665 15.87 11.4481 15.8468 11.4248L15.3468 10.9249C15.323 10.9018 15.3039 10.8742 15.2908 10.8437C15.2777 10.8132 15.2708 10.7804 15.2705 10.7472C15.2702 10.714 15.2766 10.6811 15.2891 10.6504C15.3017 10.6197 15.3203 10.5918 15.3437 10.5683C15.3672 10.5448 15.3951 10.5263 15.4258 10.5137C15.4566 10.5011 15.4895 10.4948 15.5227 10.4951C15.5559 10.4954 15.5887 10.5023 15.6192 10.5154C15.6497 10.5285 15.6773 10.5475 15.7003 10.5714L16.2003 11.0713C16.2352 11.1063 16.259 11.1508 16.2686 11.1993C16.2782 11.2478 16.2733 11.298 16.2544 11.3437C16.2355 11.3894 16.2034 11.4284 16.1623 11.4559C16.1213 11.4833 16.0729 11.498 16.0235 11.498Z" fill="white"/>
<path d="M16.0243 11.4982C15.9749 11.4982 15.9266 11.4835 15.8855 11.456C15.8444 11.4286 15.8124 11.3895 15.7934 11.3439C15.7745 11.2982 15.7696 11.248 15.7792 11.1995C15.7888 11.151 15.8126 11.1065 15.8475 11.0715L16.3475 10.5716C16.3947 10.5264 16.4577 10.5015 16.5231 10.5022C16.5884 10.5029 16.6509 10.5292 16.6971 10.5754C16.7433 10.6217 16.7696 10.6841 16.7703 10.7495C16.771 10.8148 16.7461 10.8779 16.7009 10.9251L16.201 11.425C16.1778 11.4483 16.1503 11.4667 16.1199 11.4792C16.0896 11.4918 16.0571 11.4982 16.0243 11.4982Z" fill="white"/>
<path d="M15.5249 13.4979C15.5157 13.4979 15.5064 13.4974 15.4966 13.4965C15.4307 13.489 15.3705 13.4557 15.3292 13.4039C15.2878 13.3521 15.2687 13.2861 15.2759 13.2202L15.5259 10.9704C15.541 10.8327 15.6602 10.7351 15.8022 10.7497C15.8348 10.7533 15.8664 10.7633 15.8952 10.7792C15.9239 10.795 15.9492 10.8163 15.9697 10.8419C15.9902 10.8675 16.0055 10.8969 16.0146 10.9284C16.0237 10.96 16.0266 10.993 16.0229 11.0256L15.7729 13.2753C15.7661 13.3364 15.7371 13.3928 15.6914 13.4339C15.6456 13.475 15.5864 13.4978 15.5249 13.4979Z" fill="white"/>
<path d="M16.523 13.4979C16.4615 13.4978 16.4023 13.475 16.3565 13.4339C16.3108 13.3929 16.2817 13.3364 16.275 13.2753L16.025 11.0255C16.0214 10.9929 16.0242 10.96 16.0333 10.9285C16.0425 10.8969 16.0577 10.8675 16.0782 10.8419C16.0987 10.8163 16.124 10.795 16.1527 10.7792C16.1815 10.7634 16.213 10.7534 16.2456 10.7497C16.3868 10.7351 16.5069 10.8332 16.522 10.9704L16.772 13.2202C16.7792 13.2861 16.7601 13.3521 16.7187 13.4039C16.6773 13.4557 16.6171 13.489 16.5513 13.4965C16.5419 13.4974 16.5325 13.4979 16.523 13.4979ZM23.5416 18.9972C23.5073 18.9972 23.4734 18.99 23.442 18.9762C23.4119 18.9632 23.3846 18.9443 23.3618 18.9206C23.339 18.897 23.321 18.8691 23.309 18.8385C23.297 18.808 23.2911 18.7753 23.2917 18.7425C23.2924 18.7096 23.2995 18.6772 23.3126 18.6471L25.1181 14.4977H6.88996L8.77108 18.6437C8.79852 18.704 8.80086 18.7728 8.77761 18.8349C8.75436 18.897 8.70741 18.9473 8.64708 18.9747C8.52208 19.0323 8.37271 18.9762 8.31608 18.8502L6.27439 14.3508C6.25704 14.3127 6.24956 14.2709 6.25262 14.2292C6.25569 14.1875 6.26922 14.1472 6.29196 14.1121C6.31459 14.077 6.34567 14.0482 6.38235 14.0282C6.41903 14.0082 6.46013 13.9978 6.50189 13.9979H25.4995C25.5409 13.9978 25.5817 14.0081 25.6182 14.0278C25.6547 14.0475 25.6857 14.076 25.7084 14.1107C25.7312 14.1454 25.7449 14.1852 25.7484 14.2265C25.7519 14.2679 25.745 14.3094 25.7284 14.3474L23.7706 18.8469C23.7513 18.8915 23.7193 18.9296 23.6786 18.9563C23.6379 18.983 23.5903 18.9973 23.5416 18.9972Z" fill="white"/>
<path d="M22.0004 30.9957H9.99805C9.85992 30.9957 9.74805 30.8839 9.74805 30.7457V16.7475C9.74803 16.7147 9.75449 16.6822 9.76704 16.6518C9.7796 16.6215 9.79802 16.5939 9.82124 16.5707C9.84446 16.5475 9.87202 16.5291 9.90236 16.5165C9.9327 16.504 9.96521 16.4975 9.99805 16.4976H22.0004C22.0333 16.4975 22.0658 16.504 22.0961 16.5165C22.1264 16.5291 22.154 16.5475 22.1772 16.5707C22.2004 16.5939 22.2188 16.6215 22.2314 16.6518C22.2439 16.6822 22.2504 16.7147 22.2504 16.7475V30.7457C22.2504 30.7785 22.2439 30.811 22.2314 30.8414C22.2188 30.8717 22.2004 30.8993 22.1772 30.9225C22.154 30.9457 22.1264 30.9641 22.0961 30.9767C22.0657 30.9892 22.0332 30.9957 22.0004 30.9957ZM10.248 30.4957H21.7504V16.9975H10.248V30.4957Z" fill="white"/>
<path d="M23.0001 31.9955H9.00195C8.86376 31.9955 8.75195 31.8837 8.75195 31.7455V30.7456C8.75193 30.7128 8.75838 30.6803 8.77094 30.6499C8.7835 30.6196 8.80192 30.5921 8.82514 30.5688C8.84835 30.5456 8.87592 30.5272 8.90626 30.5147C8.9366 30.5021 8.96911 30.4957 9.00195 30.4957H23.0001C23.033 30.4957 23.0655 30.5021 23.0958 30.5147C23.1261 30.5272 23.1537 30.5456 23.1769 30.5689C23.2001 30.5921 23.2185 30.6196 23.2311 30.65C23.2436 30.6803 23.2501 30.7128 23.2501 30.7456V31.7455C23.2501 31.7783 23.2436 31.8108 23.2311 31.8412C23.2185 31.8715 23.2001 31.8991 23.1769 31.9223C23.1537 31.9455 23.1261 31.9639 23.0958 31.9765C23.0654 31.9891 23.0329 31.9955 23.0001 31.9955ZM9.25188 31.4956H22.7502V30.9956H9.25188V31.4956ZM9.00195 18.9972H8.54395C8.40582 18.9972 8.29395 18.8854 8.29395 18.7472C8.29395 18.609 8.40576 18.4972 8.54395 18.4972H9.00195C9.14007 18.4972 9.25188 18.609 9.25188 18.7472C9.25188 18.8854 9.14007 18.9972 9.00195 18.9972ZM23.542 18.9972H23.0001C22.8619 18.9972 22.7501 18.8854 22.7501 18.7472C22.7501 18.609 22.8619 18.4972 23.0001 18.4972H23.542C23.6802 18.4972 23.7919 18.609 23.7919 18.7472C23.7919 18.8854 23.6802 18.9972 23.542 18.9972ZM15.9991 18.9972C15.8609 18.9972 15.7491 18.8854 15.7491 18.7472V17.7473C15.7491 17.6091 15.8609 17.4973 15.9991 17.4973C16.1373 17.4973 16.249 17.6091 16.249 17.7473V18.7472C16.249 18.8854 16.1373 18.9972 15.9991 18.9972ZM15.9991 29.9958C15.8609 29.9958 15.7491 29.8839 15.7491 29.7458V26.7462C15.7491 26.608 15.8609 26.4963 15.9991 26.4963C16.1373 26.4963 16.249 26.608 16.249 26.7462V29.7458C16.249 29.8839 16.1373 29.9958 15.9991 29.9958ZM15.9991 25.9962C14.2073 25.9962 12.7495 24.5384 12.7495 22.7467C12.7495 20.9549 14.2073 19.4971 15.9991 19.4971C17.7908 19.4971 19.2486 20.9549 19.2486 22.7467C19.2486 24.5384 17.7908 25.9962 15.9991 25.9962ZM15.9991 19.997C14.4831 19.997 13.2494 21.2303 13.2494 22.7467C13.2494 24.2626 14.4831 25.4963 15.9991 25.4963C17.5149 25.4963 18.7487 24.2626 18.7487 22.7467C18.7487 21.2303 17.5149 19.997 15.9991 19.997Z" fill="white"/>
<path d="M14.9193 24.5116C14.8665 24.5116 14.815 24.4948 14.7723 24.4637C14.7346 24.4363 14.7052 24.3988 14.6876 24.3556C14.67 24.3124 14.6649 24.2651 14.6728 24.2191L14.8578 23.1449L14.0766 22.3833C14.0432 22.3509 14.0195 22.3097 14.0083 22.2645C13.9971 22.2193 13.9988 22.1718 14.0131 22.1275C14.0275 22.0831 14.054 22.0436 14.0896 22.0135C14.1253 21.9834 14.1686 21.9638 14.2148 21.9571L15.2942 21.8004L15.7766 20.8225C15.8606 20.6516 16.1408 20.6516 16.2248 20.8225L16.7071 21.8004L17.7866 21.9571C17.8327 21.9638 17.876 21.9833 17.9116 22.0133C17.9473 22.0433 17.9738 22.0827 17.9883 22.127C18.0027 22.1713 18.0044 22.2188 17.9932 22.2641C17.9821 22.3094 17.9586 22.3507 17.9253 22.3833L17.1441 23.1449L17.3286 24.2191C17.3366 24.265 17.3315 24.3123 17.3139 24.3556C17.2963 24.3988 17.267 24.4363 17.2293 24.4637C17.1915 24.4911 17.1468 24.5075 17.1003 24.5108C17.0538 24.5142 17.0072 24.5045 16.9659 24.4827L16.0007 23.975L15.0355 24.4827C14.9997 24.5016 14.9598 24.5115 14.9193 24.5116ZM16.0008 23.4428C16.0408 23.4428 16.0808 23.4521 16.117 23.4716L16.7501 23.8046L16.629 23.1001C16.6223 23.0602 16.6253 23.0192 16.6378 22.9807C16.6503 22.9422 16.6719 22.9073 16.7008 22.8789L17.2134 22.379L16.505 22.276C16.465 22.2702 16.4269 22.2547 16.3941 22.2309C16.3614 22.207 16.3349 22.1756 16.317 22.1393L16.0006 21.4982L15.6843 22.1393C15.6664 22.1756 15.6399 22.207 15.6072 22.2309C15.5744 22.2547 15.5364 22.2702 15.4963 22.276L14.7879 22.379L15.3005 22.8789C15.3296 22.9073 15.3514 22.9423 15.364 22.9809C15.3765 23.0195 15.3796 23.0606 15.3728 23.1006L15.2516 23.8041L15.8844 23.4717C15.9202 23.4525 15.9602 23.4426 16.0008 23.4428Z" fill="white"/>
<path d="M10.002 31.9955C9.86383 31.9955 9.75195 31.8837 9.75195 31.7455V31.4956C9.75195 31.3574 9.86377 31.2456 10.002 31.2456C10.1401 31.2456 10.252 31.3574 10.252 31.4956V31.7455C10.252 31.8837 10.1401 31.9955 10.002 31.9955Z" fill="white"/>
<path d="M11.0019 31.9955C10.9691 31.9956 10.9365 31.9891 10.9062 31.9765C10.8759 31.964 10.8483 31.9456 10.8251 31.9224C10.8019 31.8991 10.7835 31.8716 10.7709 31.8412C10.7584 31.8109 10.7519 31.7784 10.752 31.7455V31.4956C10.752 31.3574 10.8638 31.2456 11.0019 31.2456C11.1401 31.2456 11.2519 31.3574 11.2519 31.4956V31.7455C11.2519 31.8837 11.1401 31.9955 11.0019 31.9955Z" fill="white"/>
<path d="M12.0019 31.9955C11.9691 31.9956 11.9365 31.9891 11.9062 31.9765C11.8759 31.964 11.8483 31.9456 11.8251 31.9224C11.8019 31.8991 11.7835 31.8716 11.7709 31.8412C11.7584 31.8109 11.7519 31.7784 11.752 31.7455V31.4956C11.752 31.3574 11.8638 31.2456 12.0019 31.2456C12.1401 31.2456 12.2519 31.3574 12.2519 31.4956V31.7455C12.2519 31.8837 12.1401 31.9955 12.0019 31.9955Z" fill="white"/>
<path d="M13.0019 31.9955C12.9691 31.9956 12.9365 31.9891 12.9062 31.9765C12.8759 31.964 12.8483 31.9456 12.8251 31.9224C12.8019 31.8991 12.7835 31.8716 12.7709 31.8412C12.7584 31.8109 12.7519 31.7784 12.752 31.7455V31.4956C12.752 31.3574 12.8638 31.2456 13.0019 31.2456C13.1401 31.2456 13.2519 31.3574 13.2519 31.4956V31.7455C13.2519 31.7784 13.2455 31.8109 13.2329 31.8412C13.2203 31.8716 13.2019 31.8991 13.1787 31.9224C13.1555 31.9456 13.1279 31.964 13.0976 31.9765C13.0672 31.9891 13.0347 31.9956 13.0019 31.9955Z" fill="white"/>
<path d="M14.001 31.9955C13.8628 31.9955 13.751 31.8837 13.751 31.7455V31.4956C13.751 31.3574 13.8628 31.2456 14.001 31.2456C14.1392 31.2456 14.251 31.3574 14.251 31.4956V31.7455C14.251 31.7784 14.2445 31.8109 14.232 31.8412C14.2194 31.8716 14.201 31.8991 14.1778 31.9224C14.1546 31.9456 14.127 31.964 14.0967 31.9765C14.0663 31.9891 14.0338 31.9956 14.001 31.9955Z" fill="white"/>
<path d="M15.001 31.9955C14.8628 31.9955 14.751 31.8837 14.751 31.7455V31.4956C14.751 31.3574 14.8628 31.2456 15.001 31.2456C15.0338 31.2456 15.0663 31.252 15.0967 31.2646C15.127 31.2772 15.1546 31.2956 15.1778 31.3188C15.201 31.342 15.2194 31.3696 15.2319 31.3999C15.2445 31.4303 15.2509 31.4628 15.2509 31.4956V31.7455C15.2509 31.8837 15.1391 31.9955 15.001 31.9955Z" fill="white"/>
<path d="M16.001 31.9955C15.8628 31.9955 15.751 31.8837 15.751 31.7455V31.4956C15.751 31.3574 15.8628 31.2456 16.001 31.2456C16.1392 31.2456 16.2509 31.3574 16.2509 31.4956V31.7455C16.2509 31.8837 16.1392 31.9955 16.001 31.9955Z" fill="white"/>
<path d="M17.001 31.9955C16.8628 31.9955 16.751 31.8837 16.751 31.7455V31.4956C16.751 31.3574 16.8628 31.2456 17.001 31.2456C17.0338 31.2456 17.0663 31.252 17.0967 31.2646C17.127 31.2772 17.1546 31.2956 17.1778 31.3188C17.201 31.342 17.2194 31.3696 17.2319 31.3999C17.2445 31.4303 17.2509 31.4628 17.2509 31.4956V31.7455C17.2509 31.8837 17.1391 31.9955 17.001 31.9955Z" fill="white"/>
<path d="M18.001 31.9955C17.8628 31.9955 17.751 31.8837 17.751 31.7455V31.4956C17.751 31.3574 17.8628 31.2456 18.001 31.2456C18.0338 31.2456 18.0663 31.252 18.0967 31.2646C18.127 31.2772 18.1546 31.2956 18.1778 31.3188C18.201 31.342 18.2194 31.3696 18.2319 31.3999C18.2445 31.4303 18.2509 31.4628 18.2509 31.4956V31.7455C18.2509 31.8837 18.1391 31.9955 18.001 31.9955Z" fill="white"/>
<path d="M19.0009 31.9955C18.9681 31.9956 18.9356 31.9891 18.9052 31.9765C18.8749 31.964 18.8473 31.9456 18.8241 31.9224C18.8009 31.8991 18.7825 31.8716 18.77 31.8412C18.7574 31.8109 18.751 31.7784 18.751 31.7455V31.4956C18.751 31.3574 18.8628 31.2456 19.0009 31.2456C19.1391 31.2456 19.2509 31.3574 19.2509 31.4956V31.7455C19.2509 31.8837 19.1391 31.9955 19.0009 31.9955Z" fill="white"/>
<path d="M20.0009 31.9955C19.9681 31.9956 19.9356 31.9891 19.9052 31.9765C19.8749 31.964 19.8473 31.9456 19.8241 31.9224C19.8009 31.8991 19.7825 31.8716 19.7699 31.8412C19.7574 31.8109 19.751 31.7784 19.751 31.7455V31.4956C19.751 31.3574 19.8628 31.2456 20.0009 31.2456C20.1391 31.2456 20.2509 31.3574 20.2509 31.4956V31.7455C20.2509 31.8837 20.1391 31.9955 20.0009 31.9955Z" fill="white"/>
<path d="M20.9999 31.9955C20.9671 31.9956 20.9346 31.9891 20.9043 31.9765C20.8739 31.964 20.8464 31.9456 20.8231 31.9224C20.7999 31.8991 20.7815 31.8716 20.769 31.8412C20.7564 31.8109 20.75 31.7784 20.75 31.7455V31.4956C20.75 31.3574 20.8618 31.2456 20.9999 31.2456C21.0328 31.2456 21.0653 31.252 21.0956 31.2646C21.126 31.2772 21.1535 31.2956 21.1767 31.3188C21.1999 31.342 21.2184 31.3696 21.2309 31.3999C21.2435 31.4303 21.2499 31.4628 21.2499 31.4956V31.7455C21.2499 31.8837 21.1381 31.9955 20.9999 31.9955Z" fill="white"/>
<path d="M21.9999 31.9955C21.9671 31.9956 21.9346 31.9891 21.9043 31.9765C21.8739 31.964 21.8464 31.9456 21.8231 31.9224C21.7999 31.8991 21.7815 31.8716 21.769 31.8412C21.7564 31.8109 21.75 31.7784 21.75 31.7455V31.4956C21.75 31.3574 21.8617 31.2456 21.9999 31.2456C22.1381 31.2456 22.2499 31.3574 22.2499 31.4956V31.7455C22.2499 31.8837 22.1381 31.9955 21.9999 31.9955Z" fill="white"/>
</svg>
