<svg width="32" height="32" viewBox="0 0 32 32" fill="none" xmlns="http://www.w3.org/2000/svg">
<g clip-path="url(#clip0_1714_3087)">
<path d="M10.5045 20.9867C8.0262 20.9867 6.00977 18.9705 6.00977 16.492C6.00977 14.0134 8.0262 11.9973 10.5045 11.9973C12.9828 11.9973 14.9992 14.0134 14.9992 16.492C14.9992 18.9705 12.9828 20.9867 10.5045 20.9867ZM10.5045 12.4967C8.30151 12.4967 6.50922 14.289 6.50922 16.492C6.50922 18.6949 8.30151 20.4872 10.5045 20.4872C12.7075 20.4872 14.4997 18.6949 14.4997 16.492C14.4997 14.289 12.7075 12.4967 10.5045 12.4967Z" fill="white"/>
<path d="M10.5045 21.9854C8.0262 21.9854 6.00977 19.9693 6.00977 17.4907C6.00975 17.4579 6.0162 17.4254 6.02875 17.3951C6.04129 17.3648 6.05969 17.3372 6.08289 17.314C6.10608 17.2909 6.13362 17.2725 6.16393 17.2599C6.19424 17.2474 6.22672 17.2409 6.25952 17.241C6.29232 17.241 6.3248 17.2474 6.3551 17.2599C6.3854 17.2725 6.41293 17.2909 6.43612 17.3141C6.45931 17.3373 6.4777 17.3648 6.49025 17.3951C6.50279 17.4254 6.50924 17.4579 6.50922 17.4907C6.50922 19.6937 8.30151 21.486 10.5045 21.486C12.7075 21.486 14.4997 19.6937 14.4997 17.4907C14.4997 17.4579 14.5062 17.4254 14.5187 17.3951C14.5313 17.3648 14.5496 17.3373 14.5728 17.3141C14.596 17.2909 14.6236 17.2725 14.6539 17.2599C14.6842 17.2474 14.7166 17.241 14.7494 17.241C14.7822 17.2409 14.8147 17.2474 14.845 17.2599C14.8753 17.2725 14.9029 17.2909 14.9261 17.314C14.9493 17.3372 14.9677 17.3648 14.9802 17.3951C14.9928 17.4254 14.9992 17.4579 14.9992 17.4907C14.9992 19.9692 12.9828 21.9854 10.5045 21.9854Z" fill="white"/>
<path d="M6.25952 17.7406C6.22672 17.7406 6.19423 17.7341 6.16392 17.7216C6.1336 17.7091 6.10606 17.6907 6.08286 17.6675C6.05967 17.6443 6.04127 17.6167 6.02873 17.5864C6.01618 17.5561 6.00974 17.5236 6.00977 17.4908V16.492C6.00975 16.4592 6.0162 16.4267 6.02875 16.3964C6.04129 16.3661 6.05969 16.3386 6.08289 16.3154C6.10608 16.2922 6.13362 16.2738 6.16393 16.2613C6.19424 16.2487 6.22672 16.2423 6.25952 16.2423C6.29232 16.2423 6.3248 16.2487 6.3551 16.2613C6.3854 16.2738 6.41293 16.2922 6.43612 16.3154C6.45931 16.3386 6.4777 16.3661 6.49025 16.3964C6.50279 16.4267 6.50924 16.4592 6.50922 16.492V17.4908C6.50924 17.5236 6.5028 17.5561 6.49026 17.5864C6.47773 17.6167 6.45933 17.6442 6.43614 17.6674C6.41295 17.6906 6.38542 17.709 6.35511 17.7216C6.32481 17.7341 6.29232 17.7406 6.25952 17.7406ZM14.7495 17.7406C14.7167 17.7406 14.6842 17.7341 14.6539 17.7216C14.6236 17.709 14.5961 17.6906 14.5729 17.6674C14.5497 17.6442 14.5313 17.6167 14.5188 17.5864C14.5062 17.5561 14.4998 17.5236 14.4998 17.4908V16.492C14.4998 16.4592 14.5062 16.4267 14.5188 16.3964C14.5313 16.3661 14.5497 16.3386 14.5729 16.3154C14.5961 16.2922 14.6236 16.2738 14.6539 16.2613C14.6842 16.2487 14.7167 16.2423 14.7495 16.2423C14.7823 16.2423 14.8148 16.2487 14.8451 16.2613C14.8754 16.2738 14.9029 16.2922 14.9261 16.3154C14.9493 16.3386 14.9677 16.3661 14.9803 16.3964C14.9928 16.4267 14.9993 16.4592 14.9993 16.492V17.4908C14.9993 17.5236 14.9928 17.5561 14.9803 17.5864C14.9677 17.6167 14.9493 17.6442 14.9261 17.6674C14.9029 17.6906 14.8754 17.709 14.8451 17.7216C14.8148 17.7341 14.7823 17.7406 14.7495 17.7406ZM10.5045 18.4897C9.40299 18.4897 8.50679 17.5938 8.50679 16.492C8.50679 15.3903 9.40299 14.4944 10.5045 14.4944C11.606 14.4944 12.5021 15.3903 12.5021 16.492C12.5021 17.5938 11.606 18.4897 10.5045 18.4897ZM10.5045 14.9938C9.6783 14.9938 9.00624 15.6659 9.00624 16.492C9.00624 17.3181 9.6783 17.9902 10.5045 17.9902C11.3307 17.9902 12.0027 17.3181 12.0027 16.492C12.0027 15.6659 11.3307 14.9938 10.5045 14.9938Z" fill="white"/>
<path d="M12.1807 17.2411C12.1269 17.241 12.0746 17.2237 12.0315 17.1915C11.9883 17.1594 11.9567 17.1142 11.9413 17.0627C11.754 16.4326 11.1634 15.9926 10.5049 15.9926C9.84648 15.9926 9.25588 16.4326 9.06866 17.0627C9.02936 17.1948 8.89211 17.2695 8.75799 17.2309C8.69451 17.212 8.64114 17.1686 8.6096 17.1104C8.57806 17.0521 8.57092 16.9837 8.58976 16.9202C8.8397 16.0799 9.62708 15.4932 10.505 15.4932C11.3829 15.4932 12.1703 16.0799 12.4202 16.9202C12.439 16.9837 12.4319 17.0521 12.4003 17.1103C12.3688 17.1686 12.3154 17.212 12.252 17.2309C12.2281 17.2378 12.2041 17.2411 12.1807 17.2411ZM9.25401 15.4908C9.22121 15.4908 9.18874 15.4844 9.15844 15.4718C9.12815 15.4593 9.10063 15.4409 9.07747 15.4177L7.32703 13.6672C7.30385 13.644 7.28546 13.6165 7.27291 13.5862C7.26036 13.5559 7.25391 13.5235 7.25391 13.4907C7.25391 13.4579 7.26036 13.4254 7.27291 13.3951C7.28546 13.3648 7.30385 13.3373 7.32703 13.3141C7.35022 13.291 7.37774 13.2726 7.40803 13.26C7.43832 13.2475 7.47079 13.241 7.50357 13.241C7.53636 13.241 7.56883 13.2475 7.59912 13.26C7.62941 13.2726 7.65693 13.291 7.68012 13.3141L9.43049 15.0646C9.45369 15.0877 9.4721 15.1153 9.48466 15.1456C9.49722 15.1758 9.50368 15.2083 9.50368 15.2411C9.50368 15.2739 9.49722 15.3064 9.48466 15.3367C9.4721 15.367 9.45369 15.3945 9.43049 15.4177C9.40734 15.4409 9.37983 15.4593 9.34955 15.4718C9.31926 15.4844 9.28679 15.4908 9.25401 15.4908ZM10.5049 20.9867C10.4721 20.9868 10.4396 20.9803 10.4093 20.9678C10.379 20.9552 10.3515 20.9368 10.3283 20.9136C10.3051 20.8904 10.2867 20.8629 10.2742 20.8326C10.2616 20.8023 10.2552 20.7698 10.2552 20.737V18.24C10.2552 18.2072 10.2616 18.1747 10.2742 18.1444C10.2867 18.1141 10.3051 18.0865 10.3283 18.0633C10.3515 18.0401 10.379 18.0217 10.4093 18.0092C10.4396 17.9966 10.4721 17.9902 10.5049 17.9902C10.5377 17.9902 10.5702 17.9966 10.6005 18.0092C10.6308 18.0217 10.6584 18.0401 10.6815 18.0633C10.7047 18.0865 10.7231 18.1141 10.7357 18.1444C10.7482 18.1747 10.7546 18.2072 10.7546 18.24V20.737C10.7546 20.7698 10.7482 20.8023 10.7357 20.8326C10.7231 20.8629 10.7047 20.8904 10.6815 20.9136C10.6584 20.9368 10.6308 20.9552 10.6005 20.9678C10.5702 20.9803 10.5377 20.9868 10.5049 20.9867ZM13.2512 4.50619C12.0119 4.50619 11.0038 3.4981 11.0038 2.25886C11.0038 1.01957 12.0119 0.0114746 13.2512 0.0114746C13.9952 0.0114746 14.6945 0.390922 15.1101 1.01026H15.2488C15.2816 1.01024 15.3141 1.01669 15.3444 1.02923C15.3747 1.04177 15.4022 1.06017 15.4254 1.08336C15.4486 1.10655 15.467 1.13408 15.4796 1.16438C15.4921 1.19468 15.4985 1.22716 15.4985 1.25995V3.25765C15.4985 3.29044 15.4921 3.32292 15.4796 3.35322C15.467 3.38352 15.4486 3.41105 15.4254 3.43424C15.4022 3.45743 15.3747 3.47583 15.3444 3.48837C15.3141 3.50091 15.2816 3.50736 15.2488 3.50734H15.1101C14.6943 4.1268 13.995 4.50619 13.2512 4.50619ZM13.2512 0.510929C12.2875 0.510929 11.5033 1.29519 11.5033 2.25886C11.5033 3.22254 12.2875 4.00673 13.2512 4.00673C13.866 4.00673 14.4426 3.6717 14.756 3.13227C14.7779 3.09443 14.8094 3.06301 14.8473 3.04118C14.8852 3.01935 14.9281 3.00787 14.9718 3.00789H14.9991V1.50977H14.9718C14.9281 1.50977 14.8851 1.49828 14.8472 1.47645C14.8093 1.45463 14.7777 1.42323 14.7558 1.3854C14.438 0.837651 13.8757 0.510929 13.2512 0.510929Z" fill="white"/>
<path d="M16.7475 3.50734H15.2487C15.2159 3.50735 15.1834 3.50091 15.1531 3.48836C15.1228 3.47582 15.0953 3.45743 15.0721 3.43424C15.0489 3.41105 15.0305 3.38352 15.018 3.35322C15.0055 3.32291 14.999 3.29044 14.999 3.25764V1.25995C14.999 1.22715 15.0055 1.19468 15.018 1.16438C15.0305 1.13407 15.0489 1.10654 15.0721 1.08335C15.0953 1.06016 15.1228 1.04177 15.1531 1.02923C15.1834 1.01668 15.2159 1.01024 15.2487 1.01025H16.7475C16.8138 1.01025 16.8771 1.03662 16.924 1.08341L17.4234 1.5828C17.4466 1.60597 17.465 1.63349 17.4775 1.66379C17.4901 1.69408 17.4966 1.72655 17.4965 1.75934V2.75819C17.4966 2.79098 17.4901 2.82345 17.4775 2.85374C17.465 2.88404 17.4466 2.91156 17.4234 2.93473L16.924 3.43412C16.9008 3.45733 16.8733 3.47575 16.843 3.48831C16.8127 3.50087 16.7803 3.50734 16.7475 3.50734ZM15.4985 3.00788H16.6441L16.9972 2.6548V1.86273L16.6441 1.50965H15.4985V3.00788Z" fill="white"/>
<path d="M16.2479 3.50734C16.2151 3.50735 16.1826 3.50091 16.1523 3.48836C16.122 3.47582 16.0945 3.45743 16.0713 3.43424C16.0481 3.41105 16.0297 3.38352 16.0171 3.35322C16.0046 3.32291 15.9982 3.29044 15.9982 3.25764V1.25995C15.9982 1.12195 16.1099 1.01025 16.2479 1.01025C16.3859 1.01025 16.4976 1.12195 16.4976 1.25995V3.25764C16.4976 3.29044 16.4911 3.32291 16.4786 3.35321C16.466 3.3835 16.4476 3.41103 16.4244 3.43422C16.4013 3.45741 16.3737 3.4758 16.3434 3.48835C16.3131 3.50089 16.2807 3.50735 16.2479 3.50734ZM14.7491 3.00788C14.7163 3.00791 14.6839 3.00146 14.6536 2.9889C14.6233 2.97635 14.5958 2.95794 14.5726 2.93473L14.0732 2.43528C14.05 2.4121 14.0316 2.38458 14.019 2.35429C14.0065 2.324 14 2.29153 14 2.25873C14 2.22594 14.0065 2.19347 14.019 2.16318C14.0316 2.13288 14.05 2.10536 14.0732 2.08219L14.5726 1.58274C14.5958 1.55955 14.6233 1.54116 14.6536 1.52862C14.6839 1.51607 14.7163 1.50961 14.7491 1.50961C14.7819 1.50961 14.8144 1.51607 14.8447 1.52862C14.875 1.54116 14.9025 1.55955 14.9257 1.58274C14.9489 1.60592 14.9672 1.63344 14.9798 1.66374C14.9923 1.69403 14.9988 1.72649 14.9988 1.75928C14.9988 1.79207 14.9923 1.82453 14.9798 1.85482C14.9672 1.88511 14.9489 1.91264 14.9257 1.93582L14.6028 2.25867L14.9257 2.58152C14.9489 2.60469 14.9673 2.63221 14.9798 2.66251C14.9924 2.6928 14.9989 2.72527 14.9989 2.75806C14.9989 2.79086 14.9924 2.82333 14.9798 2.85362C14.9673 2.88391 14.9489 2.91143 14.9257 2.93461C14.9025 2.95788 14.875 2.97633 14.8447 2.98891C14.8144 3.00149 14.7819 3.00794 14.7491 3.00788Z" fill="white"/>
<path d="M14.7488 3.00794H13.2507C13.2179 3.00796 13.1854 3.00151 13.1551 2.98897C13.1248 2.97643 13.0973 2.95803 13.0741 2.93484C13.0509 2.91165 13.0325 2.88412 13.0199 2.85382C13.0074 2.82352 13.001 2.79104 13.001 2.75825C13.001 2.72545 13.0074 2.69297 13.0199 2.66267C13.0325 2.63237 13.0509 2.60484 13.0741 2.58165C13.0973 2.55846 13.1248 2.54007 13.1551 2.52752C13.1854 2.51498 13.2179 2.50853 13.2507 2.50855H14.7488C14.7816 2.50852 14.8141 2.51497 14.8444 2.5275C14.8748 2.54004 14.9023 2.55843 14.9255 2.58162C14.9487 2.60482 14.9671 2.63235 14.9796 2.66266C14.9922 2.69296 14.9986 2.72544 14.9986 2.75825C14.9986 2.79104 14.9922 2.82352 14.9796 2.85382C14.9671 2.88413 14.9487 2.91166 14.9255 2.93485C14.9023 2.95804 14.8747 2.97643 14.8444 2.98897C14.8141 3.00151 14.7816 3.00796 14.7488 3.00794ZM14.7488 2.00916H13.2507C13.1127 2.00916 13.001 1.89746 13.001 1.75946C13.001 1.62146 13.1127 1.50977 13.2507 1.50977H14.7488C14.8869 1.50977 14.9986 1.62146 14.9986 1.75946C14.9986 1.89746 14.8869 2.00916 14.7488 2.00916ZM19.7435 4.00679C19.7107 4.00681 19.6782 4.00037 19.6479 3.98783C19.6176 3.97529 19.59 3.9569 19.5668 3.93371C19.5436 3.91052 19.5253 3.88298 19.5127 3.85268C19.5002 3.82237 19.4937 3.78989 19.4938 3.75709C19.4938 3.06848 18.9338 2.50861 18.2452 2.50861C18.2124 2.50863 18.1799 2.50218 18.1496 2.48964C18.1193 2.4771 18.0918 2.4587 18.0686 2.43551C18.0454 2.41232 18.027 2.38479 18.0145 2.35449C18.002 2.32419 17.9955 2.29171 17.9955 2.25892C17.9955 2.22612 18.0019 2.19363 18.0145 2.16332C18.027 2.13301 18.0454 2.10547 18.0686 2.08228C18.0918 2.05908 18.1193 2.04068 18.1496 2.02814C18.1799 2.01559 18.2124 2.00914 18.2452 2.00916C19.209 2.00916 19.9932 2.79342 19.9932 3.75709C19.9932 3.78989 19.9867 3.82236 19.9742 3.85267C19.9616 3.88297 19.9432 3.9105 19.9201 3.93369C19.8969 3.95688 19.8693 3.97527 19.839 3.98781C19.8087 4.00036 19.7762 4.0068 19.7435 4.00679Z" fill="white"/>
<path d="M19.7443 7.00319C19.7115 7.00322 19.679 6.99677 19.6487 6.98423C19.6184 6.97169 19.5909 6.9533 19.5677 6.93011C19.5445 6.90692 19.5261 6.87938 19.5135 6.84908C19.501 6.81877 19.4946 6.78629 19.4946 6.7535V3.75702C19.4946 3.72422 19.501 3.69174 19.5135 3.66144C19.5261 3.63113 19.5445 3.60359 19.5677 3.5804C19.5909 3.55721 19.6184 3.53882 19.6487 3.52628C19.679 3.51374 19.7115 3.5073 19.7443 3.50732C19.7771 3.50731 19.8096 3.51376 19.8399 3.5263C19.8702 3.53884 19.8977 3.55723 19.9209 3.58042C19.9441 3.60361 19.9625 3.63114 19.975 3.66145C19.9876 3.69175 19.994 3.72422 19.994 3.75702V6.7535C19.994 6.78629 19.9876 6.81877 19.975 6.84907C19.9625 6.87937 19.9441 6.9069 19.9209 6.93009C19.8977 6.95328 19.8702 6.97168 19.8399 6.98422C19.8096 6.99676 19.7771 7.00321 19.7443 7.00319ZM16.2484 7.00319H15.2496C15.2168 7.00321 15.1843 6.99676 15.154 6.98422C15.1237 6.97168 15.0962 6.95328 15.073 6.93009C15.0498 6.9069 15.0314 6.87937 15.0189 6.84907C15.0063 6.81877 14.9999 6.78629 14.9999 6.7535V5.75465C14.9999 5.72185 15.0063 5.68937 15.0188 5.65907C15.0314 5.62876 15.0498 5.60122 15.073 5.57803C15.0962 5.55484 15.1237 5.53645 15.154 5.52391C15.1843 5.51137 15.2168 5.50493 15.2496 5.50495H16.2484C16.2812 5.50493 16.3137 5.51137 16.344 5.52391C16.3743 5.53645 16.4018 5.55484 16.425 5.57803C16.4482 5.60122 16.4666 5.62876 16.4792 5.65907C16.4917 5.68937 16.4981 5.72185 16.4981 5.75465V6.75343C16.4981 6.78623 16.4917 6.81872 16.4792 6.84903C16.4666 6.87934 16.4482 6.90688 16.425 6.93007C16.4019 6.95327 16.3743 6.97167 16.344 6.98421C16.3137 6.99676 16.2812 7.00321 16.2484 7.00319ZM15.4993 6.50374H15.9987V6.00435H15.4993V6.50374ZM29.2331 25.4814H2.76434C2.73155 25.4814 2.69907 25.4749 2.66877 25.4624C2.63847 25.4499 2.61094 25.4315 2.58775 25.4083C2.56456 25.3851 2.54616 25.3576 2.53362 25.3273C2.52108 25.297 2.51463 25.2645 2.51465 25.2317V8.75113C2.51462 8.71833 2.52107 8.68584 2.5336 8.65553C2.54614 8.62522 2.56453 8.59768 2.58772 8.57449C2.61091 8.55129 2.63845 8.53289 2.66876 8.52035C2.69906 8.5078 2.73154 8.50135 2.76434 8.50137H29.2331C29.2659 8.50135 29.2984 8.5078 29.3287 8.52035C29.359 8.53289 29.3865 8.55129 29.4097 8.57449C29.4329 8.59768 29.4513 8.62522 29.4639 8.65553C29.4764 8.68584 29.4828 8.71833 29.4828 8.75113V25.2317C29.4828 25.2645 29.4764 25.297 29.4638 25.3273C29.4513 25.3576 29.4329 25.3851 29.4097 25.4083C29.3865 25.4315 29.359 25.4499 29.3287 25.4624C29.2984 25.4749 29.2659 25.4814 29.2331 25.4814ZM3.01404 24.9819H28.9834V9.00082H3.01404V24.9819Z" fill="white"/>
<path d="M30.2317 9.00075H1.76532C1.73253 9.00076 1.70005 8.99432 1.66975 8.98177C1.63945 8.96923 1.61191 8.95084 1.58872 8.92765C1.56553 8.90446 1.54714 8.87693 1.5346 8.84662C1.52206 8.81632 1.51561 8.78385 1.51563 8.75105V6.75336C1.51561 6.72056 1.52206 6.68809 1.5346 6.65778C1.54714 6.62748 1.56553 6.59995 1.58872 6.57676C1.61191 6.55357 1.63945 6.53518 1.66975 6.52264C1.70005 6.51009 1.73253 6.50365 1.76532 6.50366H30.2317C30.2645 6.50365 30.297 6.51009 30.3273 6.52264C30.3576 6.53518 30.3851 6.55357 30.4083 6.57676C30.4315 6.59995 30.4499 6.62748 30.4624 6.65778C30.475 6.68809 30.4814 6.72056 30.4814 6.75336V8.75105C30.4814 8.78385 30.475 8.81632 30.4624 8.84662C30.4499 8.87693 30.4315 8.90446 30.4083 8.92765C30.3851 8.95084 30.3576 8.96923 30.3273 8.98177C30.297 8.99432 30.2645 9.00076 30.2317 9.00075ZM2.01502 8.50129H29.982V7.00305H2.01502V8.50129Z" fill="white"/>
<path d="M28.7333 8.0019H3.26343C3.23062 8.00192 3.19814 7.99548 3.16782 7.98293C3.13751 7.97039 3.10997 7.952 3.08677 7.9288C3.06357 7.9056 3.04518 7.87806 3.03263 7.84775C3.02009 7.81743 3.01365 7.78494 3.01367 7.75214C3.01366 7.71934 3.0201 7.68686 3.03265 7.65655C3.0452 7.62624 3.0636 7.59871 3.08679 7.57552C3.10999 7.55233 3.13753 7.53394 3.16784 7.5214C3.19815 7.50886 3.23063 7.50242 3.26343 7.50244H28.7333C28.7661 7.50243 28.7986 7.50887 28.8289 7.52142C28.8592 7.53396 28.8868 7.55235 28.9099 7.57554C28.9331 7.59873 28.9515 7.62626 28.9641 7.65656C28.9766 7.68687 28.9831 7.71934 28.983 7.75214C28.9831 7.78494 28.9766 7.81743 28.9641 7.84775C28.9515 7.87806 28.9331 7.9056 28.9099 7.9288C28.8867 7.952 28.8592 7.97039 28.8289 7.98293C28.7986 7.99548 28.7661 8.00192 28.7333 8.0019ZM22.7404 31.9736C22.7016 31.9737 22.6633 31.9647 22.6287 31.9472L15.8867 28.5762C15.8274 28.5466 15.7824 28.4947 15.7615 28.4318C15.7405 28.369 15.7454 28.3004 15.775 28.2412C15.8367 28.1178 15.9869 28.0671 16.1101 28.1295L22.852 31.5005C22.9112 31.5301 22.9562 31.5821 22.9772 31.6449C22.9981 31.7077 22.9933 31.7763 22.9637 31.8355C22.943 31.877 22.9111 31.9119 22.8717 31.9363C22.8322 31.9607 22.7868 31.9736 22.7404 31.9736ZM24.738 31.9736C24.6992 31.9737 24.6609 31.9647 24.6263 31.9472L15.8867 27.5774C15.8274 27.5478 15.7824 27.4958 15.7614 27.433C15.7405 27.3702 15.7454 27.3016 15.775 27.2423C15.8367 27.1195 15.9869 27.0682 16.1101 27.1307L24.8497 31.5005C24.8873 31.5005 24.9245 31.509 24.9584 31.5255C24.9923 31.5419 25.022 31.5658 25.0454 31.5953C25.0687 31.6248 25.0851 31.6593 25.0933 31.696C25.1014 31.7328 25.1012 31.7709 25.0925 31.8076C25.0839 31.8442 25.067 31.8784 25.0433 31.9076C25.0195 31.9369 24.9895 31.9603 24.9554 31.9763C24.9213 31.9923 24.884 32.0003 24.8464 31.9999C24.8087 31.9994 24.7717 31.9904 24.738 31.9736Z" fill="white"/>
<path d="M24.7377 31.9736H22.7401C22.6021 31.9736 22.4904 31.8619 22.4904 31.7239C22.4904 31.5859 22.6021 31.4742 22.7401 31.4742H24.7377C24.8758 31.4742 24.9875 31.5859 24.9875 31.7239C24.9875 31.8619 24.8758 31.9736 24.7377 31.9736ZM9.25632 31.9736C9.20005 31.9736 9.14543 31.9546 9.10129 31.9197C9.05715 31.8848 9.02609 31.8361 9.01313 31.7813C9.00018 31.7266 9.00609 31.669 9.0299 31.6181C9.05372 31.5671 9.09406 31.5257 9.14437 31.5005L15.8864 28.1295C16.01 28.0671 16.1595 28.1177 16.2214 28.2412C16.251 28.3004 16.2559 28.369 16.235 28.4318C16.2141 28.4946 16.169 28.5466 16.1098 28.5762L9.3677 31.9472C9.33317 31.9646 9.295 31.9737 9.25632 31.9736ZM7.25869 31.9736C7.20242 31.9736 7.1478 31.9546 7.10366 31.9197C7.05952 31.8848 7.02846 31.8361 7.0155 31.7813C7.00255 31.7266 7.00846 31.669 7.03227 31.6181C7.05609 31.5671 7.09643 31.5257 7.14674 31.5005L15.8864 27.1307C16.01 27.0682 16.1595 27.1194 16.2214 27.2423C16.251 27.3016 16.2559 27.3701 16.235 27.433C16.2141 27.4958 16.169 27.5477 16.1098 27.5774L7.37013 31.9472C7.33557 31.9646 7.29739 31.9737 7.25869 31.9736Z" fill="white"/>
<path d="M9.25612 31.9737H7.25848C7.12049 31.9737 7.00879 31.862 7.00879 31.724C7.00879 31.586 7.12049 31.4743 7.25848 31.4743H9.25612C9.39411 31.4743 9.50587 31.586 9.50587 31.724C9.50587 31.862 9.39411 31.9737 9.25612 31.9737ZM15.4987 27.8535C15.4659 27.8535 15.4334 27.8471 15.4031 27.8346C15.3728 27.822 15.3453 27.8036 15.3221 27.7804C15.2989 27.7572 15.2805 27.7297 15.268 27.6994C15.2554 27.6691 15.249 27.6366 15.249 27.6038V25.2316C15.249 25.0936 15.3607 24.9819 15.4987 24.9819C15.6367 24.9819 15.7484 25.0936 15.7484 25.2316V27.6038C15.7484 27.6366 15.742 27.6691 15.7294 27.6994C15.7169 27.7297 15.6985 27.7573 15.6753 27.7805C15.6521 27.8036 15.6246 27.822 15.5943 27.8346C15.564 27.8471 15.5315 27.8536 15.4987 27.8535Z" fill="white"/>
<path d="M16.4977 27.8535C16.4649 27.8536 16.4325 27.8471 16.4022 27.8346C16.3719 27.822 16.3443 27.8036 16.3211 27.7805C16.2979 27.7573 16.2795 27.7297 16.267 27.6994C16.2545 27.6691 16.248 27.6366 16.248 27.6038V25.2316C16.248 25.1988 16.2545 25.1664 16.267 25.136C16.2795 25.1057 16.2979 25.0782 16.3211 25.055C16.3443 25.0318 16.3719 25.0134 16.4022 25.0009C16.4325 24.9884 16.4649 24.9819 16.4977 24.9819C16.5305 24.9819 16.563 24.9884 16.5933 25.0009C16.6236 25.0135 16.6512 25.0318 16.6743 25.055C16.6975 25.0782 16.7159 25.1058 16.7285 25.1361C16.741 25.1664 16.7475 25.1988 16.7474 25.2316V27.6038C16.7475 27.6366 16.741 27.6691 16.7285 27.6994C16.7159 27.7297 16.6975 27.7572 16.6743 27.7804C16.6512 27.8036 16.6236 27.822 16.5933 27.8346C16.563 27.8471 16.5305 27.8535 16.4977 27.8535Z" fill="white"/>
<path d="M16.4977 31.9735C16.4649 31.9736 16.4325 31.9671 16.4022 31.9546C16.3719 31.942 16.3443 31.9236 16.3211 31.9004C16.2979 31.8773 16.2795 31.8497 16.267 31.8194C16.2545 31.7891 16.248 31.7566 16.248 31.7238V28.6025C16.248 28.5697 16.2545 28.5372 16.267 28.5069C16.2795 28.4766 16.2979 28.4491 16.3211 28.4259C16.3443 28.4027 16.3719 28.3843 16.4022 28.3717C16.4325 28.3592 16.4649 28.3528 16.4977 28.3528C16.5305 28.3528 16.563 28.3592 16.5933 28.3718C16.6236 28.3843 16.6512 28.4027 16.6743 28.4259C16.6975 28.4491 16.7159 28.4766 16.7285 28.5069C16.741 28.5372 16.7475 28.5697 16.7474 28.6025V31.7238C16.7475 31.7566 16.741 31.7891 16.7285 31.8194C16.7159 31.8497 16.6975 31.8772 16.6743 31.9004C16.6512 31.9236 16.6236 31.942 16.5933 31.9546C16.563 31.9671 16.5305 31.9735 16.4977 31.9735Z" fill="white"/>
<path d="M16.4976 31.9735H15.4987C15.3607 31.9735 15.249 31.8618 15.249 31.7238C15.249 31.5858 15.3607 31.4741 15.4987 31.4741H16.4976C16.6356 31.4741 16.7473 31.5858 16.7473 31.7238C16.7473 31.8618 16.6356 31.9735 16.4976 31.9735Z" fill="white"/>
<path d="M15.4987 31.9735C15.4659 31.9735 15.4334 31.9671 15.4031 31.9546C15.3728 31.942 15.3453 31.9236 15.3221 31.9004C15.2989 31.8772 15.2805 31.8497 15.268 31.8194C15.2555 31.7891 15.249 31.7566 15.249 31.7238V28.6025C15.249 28.4645 15.3607 28.3528 15.4987 28.3528C15.6367 28.3528 15.7484 28.4645 15.7484 28.6025V31.7238C15.7484 31.7566 15.742 31.7891 15.7295 31.8194C15.7169 31.8497 15.6985 31.8773 15.6753 31.9004C15.6521 31.9236 15.6246 31.942 15.5943 31.9546C15.564 31.9671 15.5315 31.9736 15.4987 31.9735Z" fill="white"/>
<path d="M0.268251 14.9938C0.23545 14.9938 0.202968 14.9874 0.172662 14.9748C0.142356 14.9623 0.114821 14.9439 0.0916303 14.9207C0.0684398 14.8975 0.0500492 14.8699 0.0375103 14.8396C0.0249714 14.8093 0.0185301 14.7768 0.0185548 14.744C0.0185548 13.7804 0.802751 12.9961 1.76643 12.9961C1.79922 12.9961 1.8317 13.0025 1.862 13.0151C1.8923 13.0276 1.91983 13.046 1.94302 13.0692C1.96621 13.0924 1.98461 13.1199 1.99715 13.1502C2.00969 13.1805 2.01614 13.213 2.01612 13.2458C2.01614 13.2786 2.00969 13.3111 1.99715 13.3414C1.98461 13.3717 1.96621 13.3992 1.94302 13.4224C1.91983 13.4456 1.8923 13.464 1.862 13.4765C1.8317 13.4891 1.79922 13.4955 1.76643 13.4955C1.078 13.4955 0.517947 14.0553 0.517947 14.744C0.517971 14.7768 0.51153 14.8093 0.498991 14.8396C0.486452 14.8699 0.468062 14.8975 0.444871 14.9207C0.421681 14.9439 0.394145 14.9623 0.363839 14.9748C0.333533 14.9874 0.301051 14.9938 0.268251 14.9938Z" fill="white"/>
<path d="M1.76545 16.492C0.801775 16.492 0.0175782 15.7077 0.0175782 14.744C0.0175536 14.7112 0.0239953 14.6787 0.036535 14.6484C0.0490746 14.6181 0.0674662 14.5906 0.0906575 14.5674C0.113849 14.5442 0.141385 14.5258 0.17169 14.5133C0.201996 14.5007 0.234477 14.4943 0.267274 14.4943C0.300069 14.4943 0.332546 14.5008 0.362848 14.5133C0.39315 14.5258 0.420683 14.5442 0.443872 14.5674C0.467062 14.5906 0.485454 14.6182 0.497997 14.6485C0.510539 14.6788 0.516986 14.7112 0.51697 14.744C0.51697 15.4326 1.07708 15.9926 1.76545 15.9926C1.79824 15.9926 1.83072 15.999 1.86102 16.0115C1.89133 16.0241 1.91886 16.0425 1.94205 16.0657C1.96524 16.0889 1.98363 16.1164 1.99617 16.1467C2.00871 16.177 2.01516 16.2095 2.01515 16.2423C2.01517 16.2751 2.00873 16.3075 1.99619 16.3378C1.98365 16.3682 1.96526 16.3957 1.94207 16.4189C1.91888 16.4421 1.89134 16.4605 1.86103 16.473C1.83073 16.4855 1.79825 16.492 1.76545 16.492ZM5.26132 13.4955H1.76645C1.73365 13.4955 1.70118 13.4891 1.67088 13.4765C1.64057 13.464 1.61304 13.4456 1.58985 13.4224C1.56666 13.3992 1.54827 13.3717 1.53573 13.3414C1.52318 13.3111 1.51674 13.2786 1.51675 13.2458C1.51674 13.213 1.52318 13.1805 1.53573 13.1502C1.54827 13.1199 1.56666 13.0924 1.58985 13.0692C1.61304 13.046 1.64057 13.0276 1.67088 13.0151C1.70118 13.0025 1.73365 12.9961 1.76645 12.9961H5.26132C5.29412 12.9961 5.3266 13.0025 5.35691 13.0151C5.38722 13.0276 5.41476 13.046 5.43796 13.0692C5.46115 13.0924 5.47955 13.1199 5.4921 13.1502C5.50464 13.1805 5.51109 13.213 5.51108 13.2458C5.51109 13.2786 5.50464 13.3111 5.4921 13.3414C5.47955 13.3717 5.46115 13.3992 5.43796 13.4224C5.41476 13.4456 5.38722 13.464 5.35691 13.4765C5.3266 13.4891 5.29412 13.4955 5.26132 13.4955Z" fill="white"/>
<path d="M30.2302 13.4954C30.1974 13.4954 30.1649 13.489 30.1346 13.4765C30.1043 13.4639 30.0768 13.4455 30.0536 13.4223C30.0304 13.3991 30.012 13.3716 29.9994 13.3413C29.9869 13.311 29.9805 13.2785 29.9805 13.2457C29.9805 13.2129 29.9869 13.1805 29.9994 13.1502C30.012 13.1199 30.0304 13.0923 30.0536 13.0691C30.0768 13.0459 30.1043 13.0276 30.1346 13.015C30.1649 13.0025 30.1974 12.996 30.2302 12.996C30.9188 12.996 31.4787 12.4362 31.4787 11.7475C31.4787 11.7147 31.4851 11.6822 31.4977 11.6519C31.5102 11.6216 31.5286 11.5941 31.5518 11.5709C31.575 11.5477 31.6025 11.5293 31.6328 11.5168C31.6631 11.5042 31.6956 11.4978 31.7284 11.4978C31.7612 11.4978 31.7937 11.5042 31.824 11.5168C31.8543 11.5293 31.8818 11.5477 31.905 11.5709C31.9282 11.5941 31.9466 11.6216 31.9591 11.6519C31.9717 11.6822 31.9781 11.7147 31.9781 11.7475C31.9782 12.7112 31.1939 13.4954 30.2302 13.4954Z" fill="white"/>
<path d="M31.7294 11.9972C31.6966 11.9972 31.6641 11.9908 31.6338 11.9782C31.6035 11.9657 31.576 11.9473 31.5528 11.9241C31.5296 11.9009 31.5112 11.8733 31.4987 11.843C31.4861 11.8127 31.4797 11.7802 31.4797 11.7474C31.4797 11.0588 30.9198 10.4989 30.2312 10.4989C30.1984 10.4989 30.1659 10.4925 30.1356 10.4799C30.1053 10.4674 30.0777 10.449 30.0546 10.4258C30.0314 10.4026 30.013 10.3751 30.0004 10.3448C29.9879 10.3145 29.9814 10.282 29.9815 10.2492C29.9814 10.2164 29.9879 10.1839 30.0004 10.1536C30.013 10.1233 30.0314 10.0958 30.0546 10.0726C30.0777 10.0494 30.1053 10.031 30.1356 10.0185C30.1659 10.0059 30.1984 9.9995 30.2312 9.99951C31.1949 9.99951 31.9791 10.7838 31.9791 11.7474C31.9791 11.7802 31.9727 11.8127 31.9601 11.843C31.9476 11.8733 31.9292 11.9009 31.906 11.9241C31.8828 11.9473 31.8553 11.9657 31.825 11.9782C31.7947 11.9908 31.7622 11.9972 31.7294 11.9972ZM30.2302 13.4954H27.7341C27.7013 13.4954 27.6688 13.489 27.6385 13.4764C27.6082 13.4639 27.5807 13.4455 27.5575 13.4223C27.5343 13.3991 27.5159 13.3716 27.5034 13.3413C27.4908 13.311 27.4844 13.2785 27.4844 13.2457C27.4844 13.2129 27.4908 13.1804 27.5034 13.1501C27.5159 13.1198 27.5343 13.0923 27.5575 13.0691C27.5807 13.0459 27.6082 13.0275 27.6385 13.0149C27.6688 13.0024 27.7013 12.996 27.7341 12.996H30.2302C30.263 12.996 30.2954 13.0024 30.3257 13.015C30.356 13.0275 30.3836 13.0459 30.4068 13.0691C30.4299 13.0923 30.4483 13.1198 30.4609 13.1501C30.4734 13.1804 30.4799 13.2129 30.4799 13.2457C30.4799 13.2785 30.4734 13.311 30.4609 13.3413C30.4484 13.3716 30.43 13.3991 30.4068 13.4223C30.3836 13.4455 30.356 13.4639 30.3257 13.4764C30.2954 13.489 30.263 13.4954 30.2302 13.4954Z" fill="white"/>
<path d="M0.268251 22.4849C0.235453 22.485 0.202973 22.4785 0.172667 22.466C0.142361 22.4534 0.114825 22.435 0.091634 22.4119C0.0684427 22.3887 0.0500512 22.3611 0.0375115 22.3308C0.0249719 22.3005 0.0185301 22.268 0.0185548 22.2352C0.0185548 21.2715 0.802751 20.4873 1.76643 20.4873C1.79922 20.4873 1.8317 20.4937 1.862 20.5063C1.8923 20.5188 1.91983 20.5372 1.94302 20.5604C1.96621 20.5836 1.98461 20.6111 1.99715 20.6414C2.00969 20.6717 2.01614 20.7042 2.01612 20.737C2.01615 20.7698 2.00971 20.8023 1.99717 20.8326C1.98463 20.8629 1.96624 20.8904 1.94305 20.9136C1.91986 20.9368 1.89232 20.9552 1.86201 20.9678C1.83171 20.9803 1.79923 20.9868 1.76643 20.9868C1.078 20.9868 0.517947 21.5466 0.517947 22.2352C0.517963 22.268 0.511516 22.3005 0.498973 22.3308C0.48643 22.3611 0.468039 22.3886 0.444849 22.4118C0.421659 22.435 0.394126 22.4534 0.363825 22.466C0.333523 22.4785 0.301046 22.485 0.268251 22.4849Z" fill="white"/>
<path d="M5.26117 20.9868H1.7663C1.7335 20.9868 1.70102 20.9803 1.67071 20.9678C1.6404 20.9552 1.61287 20.9368 1.58968 20.9136C1.56649 20.8904 1.5481 20.8629 1.53556 20.8326C1.52302 20.8023 1.51658 20.7698 1.5166 20.737C1.51659 20.7042 1.52303 20.6717 1.53558 20.6414C1.54812 20.6111 1.56651 20.5836 1.5897 20.5604C1.61289 20.5372 1.64042 20.5188 1.67072 20.5063C1.70103 20.4937 1.7335 20.4873 1.7663 20.4873H5.26117C5.29397 20.4873 5.32645 20.4937 5.35676 20.5063C5.38707 20.5188 5.41461 20.5372 5.4378 20.5604C5.461 20.5836 5.4794 20.6111 5.49194 20.6414C5.50449 20.6717 5.51094 20.7042 5.51092 20.737C5.51095 20.7698 5.5045 20.8023 5.49196 20.8326C5.47942 20.8629 5.46102 20.8905 5.43783 20.9137C5.41463 20.9369 5.38709 20.9553 5.35677 20.9678C5.32646 20.9803 5.29397 20.9868 5.26117 20.9868Z" fill="white"/>
<path d="M30.2302 20.9866C30.1974 20.9867 30.1649 20.9802 30.1346 20.9677C30.1043 20.9551 30.0767 20.9367 30.0535 20.9135C30.0304 20.8903 30.012 20.8628 29.9994 20.8325C29.9869 20.8022 29.9804 20.7697 29.9805 20.7369C29.9805 20.7041 29.9869 20.6716 29.9994 20.6413C30.012 20.611 30.0304 20.5835 30.0536 20.5603C30.0768 20.5371 30.1043 20.5187 30.1346 20.5062C30.1649 20.4936 30.1974 20.4872 30.2302 20.4872C30.9188 20.4872 31.4787 19.9273 31.4787 19.2387C31.4787 19.2059 31.4851 19.1734 31.4977 19.1431C31.5102 19.1128 31.5286 19.0853 31.5518 19.0621C31.575 19.0389 31.6025 19.0205 31.6328 19.008C31.6631 18.9954 31.6956 18.989 31.7284 18.989C31.7612 18.989 31.7937 18.9954 31.824 19.008C31.8543 19.0205 31.8818 19.0389 31.905 19.0621C31.9282 19.0853 31.9466 19.1128 31.9591 19.1431C31.9717 19.1734 31.9781 19.2059 31.9781 19.2387C31.9782 20.2024 31.1939 20.9866 30.2302 20.9866Z" fill="white"/>
<path d="M31.7295 19.4884C31.6967 19.4884 31.6643 19.4819 31.634 19.4694C31.6036 19.4569 31.5761 19.4385 31.5529 19.4153C31.5297 19.3921 31.5113 19.3645 31.4988 19.3342C31.4863 19.3039 31.4798 19.2715 31.4798 19.2387C31.4798 18.55 30.9199 17.9901 30.2313 17.9901C30.1985 17.9901 30.166 17.9837 30.1357 17.9712C30.1054 17.9586 30.0779 17.9402 30.0547 17.9171C30.0315 17.8939 30.0131 17.8663 30.0006 17.836C29.988 17.8057 29.9816 17.7733 29.9816 17.7405C29.9816 17.7077 29.988 17.6752 30.0006 17.6449C30.0131 17.6146 30.0315 17.587 30.0547 17.5638C30.0779 17.5406 30.1054 17.5222 30.1357 17.5097C30.166 17.4972 30.1985 17.4907 30.2313 17.4907C31.195 17.4907 31.9792 18.275 31.9792 19.2387C31.9792 19.2715 31.9728 19.3039 31.9603 19.3342C31.9477 19.3645 31.9293 19.3921 31.9061 19.4153C31.8829 19.4384 31.8554 19.4568 31.8251 19.4694C31.7948 19.4819 31.7623 19.4884 31.7295 19.4884ZM30.2303 20.9866H23.739C23.7062 20.9866 23.6737 20.9802 23.6434 20.9676C23.6131 20.9551 23.5855 20.9367 23.5623 20.9135C23.5391 20.8903 23.5208 20.8627 23.5082 20.8324C23.4957 20.8021 23.4892 20.7696 23.4893 20.7368C23.4892 20.704 23.4957 20.6716 23.5082 20.6413C23.5208 20.611 23.5392 20.5834 23.5624 20.5602C23.5855 20.537 23.6131 20.5187 23.6434 20.5061C23.6737 20.4936 23.7062 20.4871 23.739 20.4871H30.2303C30.2631 20.4871 30.2956 20.4936 30.3259 20.5061C30.3562 20.5187 30.3837 20.537 30.4069 20.5602C30.4301 20.5834 30.4485 20.611 30.461 20.6413C30.4736 20.6716 30.48 20.704 30.48 20.7368C30.48 20.7696 30.4736 20.8021 30.461 20.8324C30.4485 20.8627 30.4301 20.8903 30.4069 20.9135C30.3837 20.9367 30.3562 20.9551 30.3259 20.9676C30.2956 20.9802 30.2631 20.9866 30.2303 20.9866Z" fill="white"/>
<path d="M25.7372 13.4955H16.7477C16.7149 13.4955 16.6825 13.4891 16.6522 13.4765C16.6219 13.464 16.5943 13.4456 16.5711 13.4224C16.548 13.3992 16.5296 13.3717 16.517 13.3414C16.5045 13.3111 16.498 13.2786 16.498 13.2458C16.498 13.213 16.5045 13.1805 16.517 13.1502C16.5296 13.1199 16.548 13.0924 16.5711 13.0692C16.5943 13.046 16.6219 13.0276 16.6522 13.0151C16.6825 13.0025 16.7149 12.9961 16.7477 12.9961H25.7371C25.7699 12.9961 25.8024 13.0025 25.8327 13.0151C25.863 13.0276 25.8905 13.046 25.9137 13.0692C25.9369 13.0924 25.9553 13.1199 25.9678 13.1502C25.9804 13.1805 25.9868 13.213 25.9868 13.2458C25.9868 13.2786 25.9804 13.3111 25.9679 13.3414C25.9553 13.3717 25.937 13.3992 25.9138 13.4224C25.8906 13.4456 25.863 13.464 25.8327 13.4765C25.8024 13.4891 25.77 13.4955 25.7372 13.4955Z" fill="white"/>
<path d="M25.7372 14.9938H16.7477C16.6097 14.9938 16.498 14.8821 16.498 14.7441C16.498 14.606 16.6097 14.4944 16.7477 14.4944H25.7371C25.8751 14.4944 25.9868 14.6061 25.9868 14.7441C25.9868 14.8821 25.8752 14.9938 25.7372 14.9938Z" fill="white"/>
<path d="M25.7372 16.4918H16.7477C16.7149 16.4918 16.6825 16.4854 16.6522 16.4729C16.6219 16.4603 16.5943 16.4419 16.5711 16.4187C16.5479 16.3956 16.5295 16.368 16.517 16.3377C16.5045 16.3074 16.498 16.2749 16.498 16.2421C16.498 16.2093 16.5045 16.1769 16.517 16.1466C16.5296 16.1163 16.548 16.0887 16.5711 16.0655C16.5943 16.0423 16.6219 16.0239 16.6522 16.0114C16.6825 15.9989 16.7149 15.9924 16.7477 15.9924H25.7371C25.7699 15.9924 25.8024 15.9989 25.8327 16.0114C25.863 16.0239 25.8905 16.0423 25.9137 16.0655C25.9369 16.0887 25.9553 16.1163 25.9678 16.1466C25.9804 16.1769 25.9868 16.2093 25.9868 16.2421C25.9868 16.2749 25.9804 16.3074 25.9679 16.3377C25.9553 16.368 25.937 16.3955 25.9138 16.4187C25.8906 16.4419 25.863 16.4603 25.8327 16.4729C25.8024 16.4854 25.77 16.4918 25.7372 16.4918Z" fill="white"/>
<path d="M25.7372 17.9906H16.7477C16.715 17.9906 16.6825 17.9842 16.6522 17.9717C16.6219 17.9591 16.5943 17.9407 16.5711 17.9175C16.548 17.8944 16.5296 17.8668 16.517 17.8365C16.5045 17.8062 16.498 17.7738 16.498 17.741C16.498 17.7082 16.5045 17.6757 16.517 17.6454C16.5295 17.6151 16.5479 17.5875 16.5711 17.5643C16.5943 17.5411 16.6218 17.5227 16.6522 17.5102C16.6825 17.4976 16.7149 17.4912 16.7477 17.4912H25.7371C25.7699 17.4912 25.8024 17.4976 25.8327 17.5102C25.863 17.5227 25.8905 17.5411 25.9137 17.5643C25.9369 17.5875 25.9553 17.6151 25.9679 17.6454C25.9804 17.6757 25.9868 17.7082 25.9868 17.741C25.9868 17.7738 25.9804 17.8062 25.9679 17.8365C25.9553 17.8668 25.9369 17.8944 25.9137 17.9175C25.8906 17.9407 25.863 17.9591 25.8327 17.9717C25.8024 17.9842 25.77 17.9906 25.7372 17.9906Z" fill="white"/>
<path d="M25.7372 19.4884H16.7477C16.6097 19.4884 16.498 19.3767 16.498 19.2387C16.498 19.1007 16.6097 18.989 16.7477 18.989H25.7371C25.8751 18.989 25.9868 19.1007 25.9868 19.2387C25.9868 19.3767 25.8752 19.4884 25.7372 19.4884Z" fill="white"/>
<path d="M21.7418 20.9868H16.7477C16.7149 20.9868 16.6825 20.9803 16.6522 20.9678C16.6218 20.9552 16.5943 20.9368 16.5711 20.9136C16.5479 20.8904 16.5295 20.8629 16.517 20.8326C16.5045 20.8023 16.498 20.7698 16.498 20.737C16.498 20.7042 16.5045 20.6717 16.517 20.6414C16.5296 20.6111 16.548 20.5836 16.5711 20.5604C16.5943 20.5372 16.6219 20.5188 16.6522 20.5063C16.6825 20.4937 16.7149 20.4873 16.7477 20.4873H21.7418C21.7746 20.4873 21.8071 20.4937 21.8374 20.5063C21.8677 20.5188 21.8952 20.5372 21.9184 20.5604C21.9416 20.5836 21.96 20.6111 21.9725 20.6414C21.9851 20.6717 21.9915 20.7042 21.9915 20.737C21.9915 20.7698 21.9851 20.8023 21.9725 20.8326C21.96 20.8629 21.9416 20.8904 21.9184 20.9136C21.8953 20.9368 21.8677 20.9552 21.8374 20.9678C21.8071 20.9803 21.7746 20.9868 21.7418 20.9868Z" fill="white"/>
<path d="M0.268251 31.9737C0.235453 31.9738 0.202973 31.9673 0.172667 31.9548C0.142361 31.9422 0.114825 31.9239 0.091634 31.9007C0.0684427 31.8775 0.0500512 31.8499 0.0375115 31.8196C0.0249719 31.7893 0.0185301 31.7568 0.0185548 31.724V22.2353C0.0185301 22.2025 0.0249719 22.17 0.0375115 22.1397C0.0500512 22.1094 0.0684427 22.0819 0.091634 22.0587C0.114825 22.0355 0.142361 22.0171 0.172667 22.0046C0.202973 21.992 0.235453 21.9856 0.268251 21.9856C0.301048 21.9856 0.333529 21.992 0.363834 22.0046C0.39414 22.0171 0.421676 22.0355 0.444867 22.0587C0.468059 22.0819 0.48645 22.1094 0.49899 22.1397C0.511529 22.17 0.517971 22.2025 0.517947 22.2353V31.724C0.517963 31.7568 0.511516 31.7893 0.498973 31.8196C0.48643 31.8499 0.468039 31.8775 0.444849 31.9006C0.421659 31.9238 0.394126 31.9422 0.363825 31.9548C0.333523 31.9673 0.301046 31.9738 0.268251 31.9737Z" fill="white"/>
</g>
<defs>
<clipPath id="clip0_1714_3087">
<rect width="32" height="32" fill="white"/>
</clipPath>
</defs>
</svg>
