<svg width="64" height="64" viewBox="0 0 64 64" fill="none" xmlns="http://www.w3.org/2000/svg">
<g clip-path="url(#clip0_1890_7974)">
<path d="M53.7697 54.13L40.4124 45.2266C40.0275 44.9701 39.5241 44.9776 39.147 45.2455L32.434 50.018C29.213 48.0948 25.6309 45.222 22.273 41.8618C18.9118 38.5007 16.0397 34.9192 14.1188 31.7029L18.8916 24.9901C19.1597 24.6129 19.1671 24.1096 18.9104 23.7246L10.0046 10.3675C9.69744 9.90672 9.09857 9.74109 8.59832 9.97809L4.14671 12.0876C3.89583 12.2065 3.69846 12.4145 3.59283 12.6711L0.695837 19.7061C-0.190411 21.8581 -0.0150362 24.3406 1.16471 26.3468L2.16883 28.0542C2.48121 28.5853 3.16533 28.7627 3.69633 28.4503C4.22746 28.1379 4.40495 27.4539 4.09246 26.9228L3.08833 25.2154C2.26058 23.8077 2.13733 22.0657 2.75908 20.5558L4.84995 15.4786L13.5076 28.7114L11.8833 30.9959C11.6321 31.3493 11.6079 31.8163 11.8222 32.1934C13.8303 35.7323 16.9816 39.7264 20.6948 43.4398C24.4043 47.1516 28.3992 50.3036 31.9438 52.315C32.3209 52.5291 32.788 52.5051 33.1413 52.2539L35.4259 50.6295L41.0263 54.2935C41.2148 54.4169 41.4266 54.4757 41.6363 54.4757C42 54.4757 42.3569 54.298 42.571 53.9706C42.9084 53.455 42.7638 52.7634 42.2481 52.426L37.3794 49.2405L39.8139 47.5095L51.73 55.4521L50.5811 57.8777L44.9437 54.1895C44.428 53.8521 43.7366 53.9968 43.399 54.5124C43.0616 55.028 43.2063 55.7196 43.7219 56.057L48.6586 59.2869L43.5829 61.3771C42.0724 61.9991 40.3296 61.876 38.9215 61.047L37.2145 60.0421C25.7672 53.309 13.8696 41.8885 6.16458 30.2375C5.82458 29.7236 5.1322 29.5823 4.61833 29.9223C4.10433 30.2623 3.96308 30.9545 4.30308 31.4685C12.1839 43.3854 24.3613 55.0711 36.0828 61.9657L37.7895 62.9702C38.9493 63.653 40.2683 63.9999 41.5909 63.9999C42.5564 63.9999 43.524 63.815 44.4328 63.4407L51.4664 60.5442C51.7231 60.4385 51.9311 60.2409 52.05 59.9901L54.1595 55.5361C54.3961 55.0358 54.2305 54.4372 53.7697 54.13ZM6.2592 13.556L8.6827 12.4076L16.6276 24.3236L14.8966 26.7579L6.2592 13.556Z" fill="#777777"/>
<path d="M27.2414 4.47412C26.897 3.96325 26.2033 3.8285 25.6924 4.17299C21.4863 7.01011 18.3063 11.0044 16.4962 15.7241C16.2754 16.2996 16.5632 16.945 17.1384 17.1656C17.2699 17.2161 17.4049 17.2398 17.5377 17.2398C17.9866 17.2398 18.4096 16.9671 18.5798 16.5233C20.2249 12.2336 23.1159 8.60274 26.9403 6.02312C27.4514 5.67862 27.5862 4.98499 27.2414 4.47412Z" fill="#777777"/>
<path d="M39.3716 0C35.8941 0 32.5333 0.714373 29.3833 2.123C28.8208 2.37462 28.5685 3.03449 28.8202 3.59699C29.0718 4.15962 29.7322 4.41174 30.2941 4.16012C33.1558 2.88037 36.21 2.2315 39.3716 2.2315C51.6455 2.2315 61.6311 12.2171 61.6311 24.4911C61.6311 29.0539 60.2608 33.4389 57.6683 37.1721C55.1341 40.8215 51.6176 43.6047 47.4989 45.2208C46.9252 45.4459 46.6425 46.0934 46.8677 46.667C47.0404 47.1068 47.4611 47.3755 47.9066 47.3755C48.0421 47.3755 48.1801 47.3507 48.3139 47.2982C52.8455 45.52 56.7141 42.4587 59.5013 38.445C62.3546 34.3363 63.8625 29.5112 63.8625 24.4912C63.8627 10.9867 52.876 0 39.3716 0Z" fill="#777777"/>
<path d="M37.1661 31.6544H31.581L35.0282 28.2072C37.1265 26.109 38.2821 23.3192 38.2821 20.3516C38.2821 17.4537 35.9245 15.0962 33.0267 15.0962C30.129 15.0962 27.7715 17.4537 27.7715 20.3516C27.7715 20.9678 28.2709 21.4673 28.8873 21.4673C29.5036 21.4673 30.0031 20.9677 30.0031 20.3516C30.0031 18.6842 31.3595 17.3278 33.0269 17.3278C34.6942 17.3278 36.0506 18.6842 36.0506 20.3516C36.0506 22.7229 35.1271 24.9524 33.4502 26.6292L28.0983 31.9812C27.7791 32.3003 27.6838 32.7803 27.8565 33.197C28.0291 33.6139 28.4361 33.8859 28.8874 33.8859H37.1664C37.7827 33.8859 38.2821 33.3863 38.2821 32.77C38.2819 32.1539 37.7825 31.6544 37.1661 31.6544Z" fill="#777777"/>
<path d="M49.8549 26.2229H47.9851V16.2121C47.9852 15.7101 47.6501 15.27 47.1661 15.1365C46.6821 15.003 46.1689 15.2091 45.9114 15.6401L39.2671 26.7668C39.0613 27.1116 39.0566 27.5404 39.2548 27.8896C39.4529 28.2387 39.8235 28.4546 40.225 28.4546H45.7535V32.7702C45.7535 33.3864 46.2529 33.8861 46.8694 33.8861C47.4857 33.8861 47.9851 33.3864 47.9851 32.7702V28.4546H49.8549C50.4712 28.4546 50.9707 27.9549 50.9707 27.3388C50.9707 26.7226 50.4712 26.2229 49.8549 26.2229ZM45.7536 26.2229H42.1911L45.7536 20.257V26.2229Z" fill="#777777"/>
</g>
<defs>
<clipPath id="clip0_1890_7974">
<rect width="64" height="64" fill="white"/>
</clipPath>
</defs>
</svg>
