<svg width="64" height="64" viewBox="0 0 64 64" fill="none" xmlns="http://www.w3.org/2000/svg">
<path d="M6.95866 25.959H3.75202C3.18664 25.959 2.72852 26.4172 2.72852 26.9825C2.72852 27.5477 3.18664 28.006 3.75202 28.006H6.95866C7.52403 28.006 7.98216 27.5477 7.98216 26.9825C7.98216 26.4172 7.52403 25.959 6.95866 25.959Z" fill="#777777"/>
<path d="M12.4179 37.5582H5.11725C4.55188 37.5582 4.09375 38.0164 4.09375 38.5817C4.09375 39.1469 4.55188 39.6052 5.11725 39.6052H12.418C12.9834 39.6052 13.4415 39.1469 13.4415 38.5817C13.4415 38.0164 12.9834 37.5582 12.4179 37.5582Z" fill="#777777"/>
<path d="M9.68891 31.4174H1.0235C0.458127 31.4174 0 31.8756 0 32.4409C0 33.0061 0.458127 33.4644 1.0235 33.4644H9.68891C10.2543 33.4644 10.7124 33.0061 10.7124 32.4409C10.7124 31.8756 10.2543 31.4174 9.68891 31.4174Z" fill="#777777"/>
<path d="M9.68905 45.7459H8.84968C8.2843 45.7459 7.82617 46.2042 7.82617 46.7694C7.82617 47.3347 8.2843 47.7929 8.84968 47.7929H9.68905C10.2544 47.7929 10.7126 47.3347 10.7126 46.7694C10.7126 46.2043 10.2544 45.7459 9.68905 45.7459Z" fill="#777777"/>
<path d="M5.43777 45.7459H1.0235C0.458127 45.7459 0 46.2042 0 46.7694C0 47.3347 0.458127 47.7929 1.0235 47.7929H5.43777C6.00315 47.7929 6.46127 47.3347 6.46127 46.7694C6.46127 46.2043 6.00302 45.7459 5.43777 45.7459Z" fill="#777777"/>
<path d="M53.4724 19.8911H44.797V18.0487C44.797 17.4835 44.3389 17.0252 43.7735 17.0252H30.753C30.1876 17.0252 29.7295 17.4835 29.7295 18.0487C29.7295 18.614 30.1876 19.0722 30.753 19.0722H42.75V40.6342C42.75 41.1994 43.2081 41.6577 43.7735 41.6577C44.3389 41.6577 44.797 41.1994 44.797 40.6342V21.9381H53.4724C58.1492 21.9381 61.9538 25.7424 61.9538 30.4184V47.731H59.3516C58.8593 44.6413 56.1769 42.2722 52.9508 42.2722C49.7248 42.2722 47.0423 44.6413 46.5502 47.731H44.7969V44.0459C44.7969 43.4807 44.3388 43.0224 43.7734 43.0224C43.208 43.0224 42.7499 43.4807 42.7499 44.0459V47.731H31.8872C31.395 44.6413 28.7126 42.2722 25.4866 42.2722C22.2606 42.2722 19.578 44.6413 19.0858 47.731H16.9572V32.8039C16.9572 32.2386 16.499 31.7804 15.9337 31.7804C15.3683 31.7804 14.9102 32.2386 14.9102 32.8039V48.7545C14.9102 49.3197 15.3683 49.778 15.9337 49.778H19.0858C19.578 52.8676 22.2606 55.2367 25.4866 55.2367C28.7126 55.2367 31.3951 52.8676 31.8872 49.778H46.55C47.0423 52.8676 49.7247 55.2367 52.9507 55.2367C56.1767 55.2367 58.8592 52.8676 59.3513 49.778H62.9771C63.5425 49.778 64.0006 49.3197 64.0006 48.7545V30.4184C64.0011 24.6136 59.2778 19.8911 53.4724 19.8911ZM25.4866 53.1897C23.0409 53.1897 21.0513 51.2001 21.0513 48.7545C21.0513 46.3088 23.0409 44.3192 25.4866 44.3192C27.9322 44.3192 29.9218 46.3088 29.9218 48.7545C29.9218 51.2002 27.9322 53.1897 25.4866 53.1897ZM52.9511 53.1897C50.5059 53.1897 48.5168 51.2011 48.5158 48.7562C48.5158 48.7557 48.5159 48.755 48.5159 48.7545C48.5159 48.754 48.5158 48.7532 48.5158 48.7527C48.5168 46.3078 50.5059 44.3192 52.9511 44.3192C55.3967 44.3192 57.3863 46.3088 57.3863 48.7545C57.3863 51.2002 55.3967 53.1897 52.9511 53.1897Z" fill="#777777"/>
<path d="M59.9065 30.4184C59.9065 26.8711 57.02 23.9852 53.472 23.9852H47.8673C47.3019 23.9852 46.8438 24.4435 46.8438 25.0087V34.6299C46.8438 35.1951 47.3019 35.6534 47.8673 35.6534H58.8833C59.4487 35.6534 59.9068 35.1951 59.9068 34.6299V30.4184H59.9065ZM48.8906 33.6065V26.0325H53.4719C55.8913 26.0325 57.8594 28.0001 57.8594 30.4186V33.6065H48.8906Z" fill="#777777"/>
<path d="M25.4864 46.1158C24.0314 46.1158 22.8477 47.2995 22.8477 48.7545C22.8477 50.2096 24.0314 51.3933 25.4864 51.3933C26.9414 51.3933 28.1252 50.2096 28.1252 48.7545C28.1252 47.2995 26.9414 46.1158 25.4864 46.1158ZM25.4864 49.3462C25.1602 49.3462 24.8947 49.0808 24.8947 48.7544C24.8947 48.4282 25.16 48.1627 25.4864 48.1627C25.8127 48.1627 26.0782 48.428 26.0782 48.7544C26.0782 49.0808 25.8127 49.3462 25.4864 49.3462Z" fill="#777777"/>
<path d="M52.9493 46.1158C51.4943 46.1158 50.3105 47.2995 50.3105 48.7545C50.3105 50.2096 51.4943 51.3933 52.9493 51.3933C54.4043 51.3933 55.5881 50.2096 55.5881 48.7545C55.5881 47.2995 54.4043 46.1158 52.9493 46.1158ZM52.9493 49.3462C52.6231 49.3462 52.3576 49.0808 52.3576 48.7544C52.3576 48.4282 52.6229 48.1627 52.9493 48.1627C53.2756 48.1627 53.5411 48.428 53.5411 48.7544C53.5409 49.0808 53.2756 49.3462 52.9493 49.3462Z" fill="#777777"/>
<path d="M58.8829 38.451C58.3175 38.451 57.8594 38.9093 57.8594 39.4746V42.0674C57.8594 42.6327 58.3175 43.0909 58.8829 43.0909C59.4483 43.0909 59.9064 42.6327 59.9064 42.0674V39.4746C59.9064 38.9093 59.4481 38.451 58.8829 38.451Z" fill="#777777"/>
<path d="M17.5978 8.76318C16.2172 8.76318 14.8713 9.01831 13.5974 9.52119C13.0716 9.72881 12.8138 10.3233 13.0214 10.8491C13.2291 11.3749 13.8237 11.6326 14.3493 11.4251C15.3826 11.0171 16.4756 10.8102 17.5978 10.8102C22.4775 10.8102 26.4474 14.7801 26.4474 19.6597C26.4474 24.5394 22.4775 28.5093 17.5978 28.5093C12.7182 28.5093 8.7483 24.5394 8.7483 19.6597C8.7483 17.1776 9.80068 14.7941 11.6354 13.1201C12.0532 12.7391 12.0827 12.0918 11.7018 11.6742C11.3207 11.2566 10.6732 11.2269 10.2558 11.6078C7.9968 13.6688 6.70117 16.6036 6.70117 19.6597C6.7013 25.6682 11.5896 30.5564 17.5978 30.5564C23.6062 30.5564 28.4944 25.6681 28.4944 19.6599C28.4944 13.6515 23.6062 8.76318 17.5978 8.76318Z" fill="#777777"/>
<path d="M20.1255 18.6362H18.6212V13.9614C18.6212 13.3962 18.1631 12.9379 17.5977 12.9379C17.0323 12.9379 16.5742 13.3962 16.5742 13.9614V19.6597C16.5742 20.225 17.0323 20.6832 17.5977 20.6832H20.1256C20.691 20.6832 21.1491 20.225 21.1491 19.6597C21.1491 19.0945 20.6909 18.6362 20.1255 18.6362Z" fill="#777777"/>
</svg>
