<svg width="160" height="25" viewBox="0 0 160 25" fill="none" xmlns="http://www.w3.org/2000/svg">
<path d="M70.0497 22.3431C69.4846 22.8569 68.9194 23.2551 68.3543 23.5376C67.7892 23.8202 67.2497 24.0257 66.7359 24.1541C66.2222 24.2826 65.7341 24.3596 65.2717 24.3853C64.835 24.411 64.4497 24.4239 64.1158 24.4239C62.9598 24.4239 61.8681 24.2055 60.8406 23.7688C59.8387 23.3064 58.9525 22.6899 58.1819 21.9193C57.4369 21.123 56.8333 20.211 56.3709 19.1835C55.9342 18.1303 55.7158 17.0129 55.7158 15.8312C55.7158 14.6496 55.9342 13.545 56.3709 12.5175C56.8333 11.4643 57.4369 10.5524 58.1819 9.78173C58.9525 8.98541 59.8387 8.3689 60.8406 7.9322C61.8681 7.46982 62.9598 7.23863 64.1158 7.23863C64.4497 7.23863 64.835 7.25147 65.2717 7.27716C65.7341 7.30285 66.2222 7.37991 66.7359 7.50835C67.2497 7.63679 67.7892 7.84229 68.3543 8.12486C68.9194 8.40743 69.4846 8.80559 70.0497 9.31935V7.66248H73.8258V24H70.0497V22.3431ZM64.7323 20.8789C65.4772 20.8789 66.1708 20.7633 66.813 20.5321C67.4552 20.2753 68.0075 19.9285 68.4699 19.4918C68.958 19.0294 69.3433 18.4899 69.6258 17.8734C69.9084 17.2569 70.0497 16.5762 70.0497 15.8312C70.0497 15.0863 69.9084 14.4056 69.6258 13.789C69.3433 13.1725 68.958 12.6459 68.4699 12.2092C68.0075 11.7469 67.4552 11.4001 66.813 11.1689C66.1708 10.912 65.4772 10.7836 64.7323 10.7836C64.013 10.7836 63.3323 10.912 62.6901 11.1689C62.0479 11.4001 61.4828 11.7469 60.9947 12.2092C60.5323 12.6459 60.1598 13.1725 59.8773 13.789C59.6204 14.4056 59.492 15.0863 59.492 15.8312C59.492 16.5762 59.6204 17.2569 59.8773 17.8734C60.1598 18.4899 60.5323 19.0294 60.9947 19.4918C61.4828 19.9285 62.0479 20.2753 62.6901 20.5321C63.3323 20.7633 64.013 20.8789 64.7323 20.8789Z" fill="white"/>
<path d="M16.3778 22.3431C15.8127 22.8569 15.2475 23.2551 14.6824 23.5376C14.1173 23.8202 13.5778 24.0257 13.0641 24.1541C12.5503 24.2826 12.0622 24.3596 11.5999 24.3853C11.1632 24.411 10.7778 24.4239 10.4439 24.4239C9.28795 24.4239 8.19621 24.2055 7.1687 23.7688C6.16687 23.3064 5.28063 22.6899 4.51 21.9193C3.76505 21.123 3.16138 20.211 2.699 19.1835C2.2623 18.1303 2.04395 17.0129 2.04395 15.8312C2.04395 14.6496 2.2623 13.545 2.699 12.5175C3.16138 11.4643 3.76505 10.5524 4.51 9.78173C5.28063 8.98541 6.16687 8.3689 7.1687 7.9322C8.19621 7.46982 9.28795 7.23863 10.4439 7.23863C10.7778 7.23863 11.1632 7.25147 11.5999 7.27716C12.0622 7.30285 12.5503 7.37991 13.0641 7.50835C13.5778 7.63679 14.1173 7.84229 14.6824 8.12486C15.2475 8.40743 15.8127 8.80559 16.3778 9.31935V0.95793H20.1539V24H16.3778V22.3431ZM11.0604 20.8789C11.8054 20.8789 12.4989 20.7633 13.1411 20.5321C13.7833 20.2753 14.3356 19.9285 14.798 19.4918C15.2861 19.0294 15.6714 18.4899 15.954 17.8734C16.2365 17.2569 16.3778 16.5762 16.3778 15.8312C16.3778 15.0863 16.2365 14.4056 15.954 13.789C15.6714 13.1725 15.2861 12.6459 14.798 12.2092C14.3356 11.7469 13.7833 11.4001 13.1411 11.1689C12.4989 10.912 11.8054 10.7836 11.0604 10.7836C10.3412 10.7836 9.66042 10.912 9.01823 11.1689C8.37603 11.4001 7.81089 11.7469 7.32282 12.2092C6.86044 12.6459 6.48797 13.1725 6.2054 13.789C5.94852 14.4056 5.82008 15.0863 5.82008 15.8312C5.82008 16.5762 5.94852 17.2569 6.2054 17.8734C6.48797 18.4899 6.86044 19.0294 7.32282 19.4918C7.81089 19.9285 8.37603 20.2753 9.01823 20.5321C9.66042 20.7633 10.3412 20.8789 11.0604 20.8789Z" fill="white"/>
<path d="M36.3863 17.4496H23.3625C23.568 18.1432 23.8506 18.7083 24.2102 19.145C24.5698 19.5817 24.968 19.9285 25.4047 20.1853C25.8671 20.4422 26.3423 20.622 26.8304 20.7248C27.3185 20.8275 27.7937 20.8789 28.2561 20.8789C28.6671 20.8789 29.1038 20.8404 29.5661 20.7633C30.0028 20.7119 30.4524 20.622 30.9148 20.4936C31.3771 20.3652 31.8524 20.1853 32.3404 19.9542L34.4597 22.9596C33.8689 23.2422 33.2395 23.4862 32.5716 23.6917C31.9551 23.8972 31.2744 24.0642 30.5294 24.1927C29.8102 24.3468 29.0395 24.4239 28.2175 24.4239C26.9845 24.4239 25.8414 24.2183 24.7882 23.8073C23.735 23.3963 22.8231 22.8184 22.0524 22.0734C21.2818 21.3028 20.6781 20.3908 20.2414 19.3376C19.8047 18.2844 19.5864 17.1156 19.5864 15.8312C19.5864 14.6496 19.7919 13.545 20.2029 12.5175C20.6139 11.4643 21.1919 10.5524 21.9368 9.78173C22.6818 8.98541 23.568 8.3689 24.5955 7.9322C25.6231 7.46982 26.7533 7.23863 27.9863 7.23863C29.0652 7.23863 30.1056 7.43129 31.1074 7.81661C32.1093 8.17624 32.9955 8.74137 33.7661 9.51201C34.5625 10.257 35.1918 11.1946 35.6542 12.3248C36.1423 13.4294 36.3863 14.7138 36.3863 16.178V17.4496ZM27.9863 10.7836C27.0873 10.7836 26.1882 11.0533 25.2891 11.5927C24.39 12.1322 23.7607 13.0056 23.401 14.2129H32.5716C32.2377 13.0056 31.6083 12.1322 30.6836 11.5927C29.7845 11.0533 28.8854 10.7836 27.9863 10.7836ZM26.0983 5.46616L28.7184 0.611143H33.034L29.8359 5.46616H26.0983Z" fill="white"/>
<path d="M133.564 17.4496H120.54C120.746 18.1432 121.028 18.7083 121.388 19.145C121.748 19.5817 122.146 19.9285 122.582 20.1853C123.045 20.4422 123.52 20.622 124.008 20.7248C124.496 20.8275 124.971 20.8789 125.434 20.8789C125.845 20.8789 126.282 20.8404 126.744 20.7633C127.181 20.7119 127.63 20.622 128.092 20.4936C128.555 20.3652 129.03 20.1853 129.518 19.9542L131.637 22.9596C131.047 23.2422 130.417 23.4862 129.749 23.6917C129.133 23.8972 128.452 24.0642 127.707 24.1927C126.988 24.3468 126.217 24.4239 125.395 24.4239C124.162 24.4239 123.019 24.2183 121.966 23.8073C120.913 23.3963 120.001 22.8184 119.23 22.0734C118.46 21.3028 117.856 20.3908 117.419 19.3376C116.982 18.2844 116.764 17.1156 116.764 15.8312C116.764 14.6496 116.97 13.545 117.381 12.5175C117.792 11.4643 118.37 10.5524 119.115 9.78173C119.86 8.98541 120.746 8.3689 121.773 7.9322C122.801 7.46982 123.931 7.23863 125.164 7.23863C126.243 7.23863 127.283 7.43129 128.285 7.81661C129.287 8.17624 130.173 8.74137 130.944 9.51201C131.74 10.257 132.37 11.1946 132.832 12.3248C133.32 13.4294 133.564 14.7138 133.564 16.178V17.4496ZM125.164 10.7836C124.265 10.7836 123.366 11.0533 122.467 11.5927C121.568 12.1322 120.938 13.0056 120.579 14.2129H129.749C129.415 13.0056 128.786 12.1322 127.861 11.5927C126.962 11.0533 126.063 10.7836 125.164 10.7836Z" fill="white"/>
<path d="M149.323 17.4496H136.299C136.505 18.1432 136.787 18.7083 137.147 19.145C137.506 19.5817 137.905 19.9285 138.341 20.1853C138.804 20.4422 139.279 20.622 139.767 20.7248C140.255 20.8275 140.73 20.8789 141.193 20.8789C141.604 20.8789 142.04 20.8404 142.503 20.7633C142.939 20.7119 143.389 20.622 143.851 20.4936C144.314 20.3652 144.789 20.1853 145.277 19.9542L147.396 22.9596C146.805 23.2422 146.176 23.4862 145.508 23.6917C144.892 23.8972 144.211 24.0642 143.466 24.1927C142.747 24.3468 141.976 24.4239 141.154 24.4239C139.921 24.4239 138.778 24.2183 137.725 23.8073C136.672 23.3963 135.76 22.8184 134.989 22.0734C134.218 21.3028 133.615 20.3908 133.178 19.3376C132.741 18.2844 132.523 17.1156 132.523 15.8312C132.523 14.6496 132.728 13.545 133.139 12.5175C133.55 11.4643 134.128 10.5524 134.873 9.78173C135.618 8.98541 136.505 8.3689 137.532 7.9322C138.56 7.46982 139.69 7.23863 140.923 7.23863C142.002 7.23863 143.042 7.43129 144.044 7.81661C145.046 8.17624 145.932 8.74137 146.703 9.51201C147.499 10.257 148.128 11.1946 148.591 12.3248C149.079 13.4294 149.323 14.7138 149.323 16.178V17.4496ZM140.923 10.7836C140.024 10.7836 139.125 11.0533 138.226 11.5927C137.327 12.1322 136.697 13.0056 136.338 14.2129H145.508C145.174 13.0056 144.545 12.1322 143.62 11.5927C142.721 11.0533 141.822 10.7836 140.923 10.7836Z" fill="white"/>
<path d="M43.4857 24H38.438L33.6215 7.66248H37.6674L40.9041 19.9927L44.2178 7.66248H48.3792L51.693 19.9927L54.9297 7.66248H58.9755L54.159 24H49.1114L46.2985 13.2496L43.4857 24Z" fill="white"/>
<path d="M75.8066 0.95793H79.5827V24H75.8066V0.95793Z" fill="white"/>
<path d="M81.9579 0.95793H85.7341V24H81.9579V0.95793Z" fill="white"/>
<path d="M96.8655 7.66248H100.372V1.99829C101.117 1.81848 101.759 1.6515 102.298 1.49738C102.838 1.31756 103.454 1.13775 104.148 0.95793V7.66248H108.618V11.2074H104.148V17.7964C104.148 17.9762 104.161 18.2331 104.187 18.567C104.238 18.8753 104.353 19.1835 104.533 19.4918C104.713 19.8 105.009 20.0697 105.42 20.3009C105.831 20.5321 106.396 20.6477 107.115 20.6477C107.295 20.6477 107.475 20.6477 107.654 20.6477C107.834 20.6477 108.001 20.6477 108.155 20.6477C108.309 20.622 108.451 20.6092 108.579 20.6092V23.8844C108.348 23.9101 108.091 23.9229 107.809 23.9229C107.552 23.9486 107.256 23.9743 106.922 24C106.614 24 106.254 24 105.843 24C105.638 24 105.227 23.9743 104.61 23.9229C104.02 23.8459 103.403 23.6147 102.761 23.2294C102.144 22.8184 101.592 22.189 101.104 21.3413C100.616 20.4936 100.372 19.2863 100.372 17.7193V11.2074H96.8655V7.66248Z" fill="white"/>
<path d="M146.33 7.66248H149.837V1.99829C150.582 1.81848 151.224 1.6515 151.763 1.49738C152.303 1.31756 152.919 1.13775 153.613 0.95793V7.66248H158.083V11.2074H153.613V17.7964C153.613 17.9762 153.626 18.2331 153.651 18.567C153.703 18.8753 153.818 19.1835 153.998 19.4918C154.178 19.8 154.473 20.0697 154.884 20.3009C155.295 20.5321 155.861 20.6477 156.58 20.6477C156.76 20.6477 156.939 20.6477 157.119 20.6477C157.299 20.6477 157.466 20.6477 157.62 20.6477C157.774 20.622 157.916 20.6092 158.044 20.6092V23.8844C157.813 23.9101 157.556 23.9229 157.273 23.9229C157.016 23.9486 156.721 23.9743 156.387 24C156.079 24 155.719 24 155.308 24C155.103 24 154.692 23.9743 154.075 23.9229C153.484 23.8459 152.868 23.6147 152.226 23.2294C151.609 22.8184 151.057 22.189 150.569 21.3413C150.081 20.4936 149.837 19.2863 149.837 17.7193V11.2074H146.33V7.66248Z" fill="white"/>
<path d="M109.346 7.66248H113.123V10.2826C113.611 9.58907 114.15 9.04963 114.741 8.66431C115.332 8.27899 115.897 7.99642 116.436 7.81661C116.976 7.63679 117.464 7.53404 117.901 7.50835C118.337 7.48266 118.633 7.46982 118.787 7.46982C118.967 7.46982 119.159 7.46982 119.365 7.46982C119.596 7.46982 119.814 7.48266 120.02 7.50835V11.1303C119.737 11.079 119.506 11.0404 119.326 11.0148C119.223 11.0148 119.146 11.0148 119.095 11.0148C118.068 11.0148 117.168 11.2459 116.398 11.7083C115.653 12.145 115.036 12.6973 114.548 13.3652C114.06 14.0331 113.701 14.7523 113.469 15.523C113.238 16.2936 113.123 17 113.123 17.6422V24H109.346V7.66248Z" fill="white"/>
<path d="M88.5228 19.4532C88.8054 19.8386 89.1522 20.1468 89.5632 20.378C89.9999 20.5835 90.4237 20.7248 90.8347 20.8019C91.2971 20.9303 91.7852 21.0074 92.299 21.033C92.4531 21.033 92.71 21.033 93.0696 21.033C93.4549 21.0074 93.8402 20.9431 94.2255 20.8404C94.6366 20.7376 94.9833 20.5963 95.2659 20.4165C95.5742 20.211 95.7283 19.9156 95.7283 19.5303C95.7283 19.0679 95.4971 18.7211 95.0347 18.4899C94.5723 18.2331 93.9815 18.0147 93.2622 17.8349C92.5687 17.6551 91.8109 17.4624 90.9889 17.2569C90.1925 17.0514 89.4347 16.756 88.7155 16.3707C88.0219 15.9597 87.4439 15.4331 86.9815 14.7909C86.5192 14.1487 86.288 13.2881 86.288 12.2092C86.288 11.6441 86.4164 11.0661 86.6733 10.4753C86.9302 9.88448 87.3283 9.35788 87.8678 8.8955C88.4072 8.40743 89.0751 8.00927 89.8714 7.70101C90.6935 7.39276 91.6439 7.23863 92.7228 7.23863C93.4934 7.23863 94.187 7.32854 94.8035 7.50835C95.42 7.66248 95.9595 7.86798 96.4219 8.12486C96.8842 8.35605 97.2824 8.61293 97.6164 8.8955C97.9503 9.17807 98.22 9.44779 98.4255 9.70467L96.1136 11.9395C95.8054 11.7083 95.4714 11.49 95.1118 11.2845C94.7521 11.1303 94.3668 10.9891 93.9558 10.8606C93.5705 10.7322 93.1467 10.668 92.6843 10.668C92.4274 10.668 92.1448 10.6937 91.8366 10.745C91.5283 10.7964 91.2329 10.8863 90.9503 11.0148C90.6935 11.1175 90.4751 11.2716 90.2953 11.4771C90.1412 11.6826 90.0641 11.9395 90.0641 12.2478C90.0641 12.7872 90.2953 13.1982 90.7577 13.4808C91.2201 13.7634 91.798 14.0074 92.4916 14.2129C93.2109 14.3927 93.9687 14.5854 94.765 14.7909C95.587 14.9707 96.3448 15.2404 97.0384 15.6C97.7576 15.9597 98.3485 16.4606 98.8108 17.1028C99.2732 17.7193 99.5044 18.5542 99.5044 19.6074C99.5044 20.1211 99.3503 20.6606 99.042 21.2257C98.7595 21.7908 98.3228 22.3174 97.7319 22.8055C97.1668 23.2679 96.4604 23.6532 95.6127 23.9615C94.765 24.2697 93.776 24.4239 92.6457 24.4239C91.6953 24.4239 90.8476 24.3211 90.1026 24.1156C89.3577 23.9101 88.7026 23.6532 88.1375 23.345C87.5724 23.011 87.0971 22.6514 86.7118 22.2661C86.3522 21.8807 86.0568 21.5211 85.8256 21.1872L88.5228 19.4532Z" fill="white"/>
</svg>
