<svg width="64" height="64" viewBox="0 0 64 64" fill="none" xmlns="http://www.w3.org/2000/svg">
<path d="M54.2773 17.1838H48.6966C49.5627 14.1703 48.6711 12.0383 47.6717 10.7194C46.7605 9.51573 46.3283 7.98936 46.4547 6.42186C46.5983 4.64437 46.044 2.93487 44.934 1.73137C43.8891 0.598749 42.4396 0 40.7425 0C37.9829 0 35.435 3.55299 32.9631 10.853H31.0364C28.5645 3.55299 26.0166 0 23.2571 0C21.56 0 20.1105 0.598749 19.0656 1.7315C17.9557 2.93499 17.4013 4.64462 17.5449 6.42174C17.6712 7.98948 17.239 9.51573 16.3282 10.7189C15.3285 12.0382 14.4369 14.1703 15.3029 17.1837H9.72229C9.09792 17.1837 8.5918 17.6898 8.5918 18.3142V23.8573C8.5918 24.4817 9.09792 24.9878 9.72229 24.9878C10.3467 24.9878 10.8528 24.4817 10.8528 23.8573V19.4447H27.704V36.2955H10.8528V28.3792C10.8528 27.7548 10.3467 27.2487 9.72229 27.2487C9.09792 27.2487 8.5918 27.7548 8.5918 28.3792V62.8692C8.5918 63.4936 9.09792 63.9997 9.72229 63.9997H28.8345H35.1651H42.4892C43.1137 63.9997 43.6197 63.4936 43.6197 62.8692C43.6197 62.2449 43.1137 61.7387 42.4892 61.7387H36.2956V44.8877H53.1468V61.7389H46.7848C46.1603 61.7389 45.6543 62.245 45.6543 62.8694C45.6543 63.4937 46.1603 63.9999 46.7848 63.9999H54.2773C54.9018 63.9999 55.4078 63.4937 55.4078 62.8694V18.3143C55.4078 17.69 54.9018 17.1838 54.2773 17.1838ZM27.704 61.7389H10.8528V44.8877H27.704V61.7389ZM27.704 42.6267H10.8528V38.5568H27.704V42.6267ZM37.7791 5.27574C39.3156 2.55487 40.3632 2.261 40.7425 2.261C41.8068 2.261 42.6577 2.59862 43.272 3.26449C43.9453 3.99437 44.2926 5.10661 44.201 6.24011C44.0301 8.36186 44.6225 10.4372 45.8692 12.0842C46.9148 13.4643 47.0652 15.1773 46.3185 17.1837H38.5566V15.5606L42.789 13.28C43.3386 12.9837 43.5442 12.2981 43.248 11.7485C42.9517 11.1989 42.2665 10.9932 41.7165 11.2895L38.1831 13.1935C37.651 12.0475 36.5969 11.1911 35.3274 10.9334C36.1372 8.62686 36.9597 6.72699 37.7791 5.27574ZM25.8898 13.0442L22.283 11.1009C21.7334 10.8049 21.0478 11.0101 20.7515 11.5599C20.4553 12.1095 20.6608 12.7951 21.2105 13.0913L25.4429 15.372V17.184H17.6812C16.9345 15.1775 17.0847 13.4646 18.1307 12.0841C19.3773 10.4374 19.9696 8.36198 19.7985 6.23999C19.707 5.10674 20.0541 3.99462 20.7275 3.26462C21.3418 2.59887 22.1928 2.26112 23.2571 2.26112C23.6364 2.26112 24.684 2.55487 26.2205 5.27586C27.0399 6.72699 27.8625 8.62686 28.6723 10.9337C27.4585 11.1799 26.4419 11.9735 25.8898 13.0442ZM34.0346 61.7389H29.965V43.7629C29.965 43.7609 29.9653 43.7592 29.9653 43.757C29.9653 43.7549 29.965 43.7532 29.965 43.7512V37.4319C29.965 37.4299 29.9653 37.4282 29.9653 37.426C29.9653 37.4239 29.965 37.4222 29.965 37.4202V19.4448H34.0346V61.7389ZM27.7039 17.1838V14.8857C27.7039 13.9088 28.4988 13.114 29.4756 13.114H34.5241C35.5 13.114 36.2937 13.9068 36.2957 14.8822C36.2957 14.884 36.2959 14.8857 36.2959 14.8875V17.1837L27.7039 17.1838ZM53.1468 36.2958H38.9341C38.3096 36.2958 37.8036 36.8019 37.8036 37.4263C37.8036 38.0507 38.3096 38.5568 38.9341 38.5568H53.1468V42.6267H36.2956V19.4448H53.1468V36.2958Z" fill="#777777"/>
</svg>
