<svg width="16" height="16" viewBox="0 0 16 16" fill="none" xmlns="http://www.w3.org/2000/svg">
<path d="M11.334 1.33331H4.66732C2.82637 1.33331 1.33398 2.8257 1.33398 4.66665V11.3333C1.33398 13.1743 2.82637 14.6666 4.66732 14.6666H11.334C13.1749 14.6666 14.6673 13.1743 14.6673 11.3333V4.66665C14.6673 2.8257 13.1749 1.33331 11.334 1.33331Z" stroke="#777777" stroke-width="0.6" stroke-linecap="round" stroke-linejoin="round"/>
<path d="M10.6658 7.58002C10.7481 8.13485 10.6533 8.7015 10.395 9.19936C10.1367 9.69723 9.72792 10.101 9.2269 10.3531C8.72589 10.6053 8.15812 10.6931 7.60434 10.604C7.05057 10.5149 6.53899 10.2534 6.14238 9.85679C5.74577 9.46018 5.48431 8.9486 5.3952 8.39483C5.30609 7.84105 5.39386 7.27328 5.64604 6.77227C5.89821 6.27125 6.30194 5.86251 6.79981 5.60418C7.29768 5.34585 7.86432 5.25108 8.41915 5.33335C8.9851 5.41727 9.50905 5.68099 9.91362 6.08556C10.3182 6.49012 10.5819 7.01407 10.6658 7.58002Z" stroke="#777777" stroke-width="0.6" stroke-linecap="round" stroke-linejoin="round"/>
<path d="M11.666 4.33331H11.6718" stroke="#777777" stroke-width="0.6" stroke-linecap="round" stroke-linejoin="round"/>
</svg>
