<svg width="32" height="32" viewBox="0 0 32 32" fill="none" xmlns="http://www.w3.org/2000/svg">
<path d="M19.2476 30.9894H12.7521C12.7193 30.9894 12.6868 30.9829 12.6565 30.9703C12.6262 30.9578 12.5986 30.9394 12.5754 30.9162L11.5761 29.9169C11.5529 29.8937 11.5345 29.8661 11.5219 29.8358C11.5094 29.8055 11.5029 29.773 11.5029 29.7402V26.2427C11.5029 26.2099 11.5094 26.1774 11.5219 26.1471C11.5345 26.1168 11.5529 26.0892 11.5761 26.066C11.5993 26.0428 11.6268 26.0244 11.6572 26.0119C11.6875 25.9993 11.72 25.9929 11.7528 25.9929H20.2469C20.3132 25.993 20.3767 26.0193 20.4236 26.0661C20.4704 26.113 20.4968 26.1765 20.4968 26.2427V29.7402C20.4968 29.773 20.4903 29.8055 20.4778 29.8358C20.4652 29.8662 20.4468 29.8937 20.4236 29.9169L19.4243 30.9162C19.3774 30.963 19.3139 30.9894 19.2476 30.9894ZM12.8555 30.4897H19.1442L19.9971 29.6368V26.4925H12.0026V29.6368L12.8555 30.4897Z" fill="white"/>
<path d="M11.253 27.9913C11.189 27.9913 11.1276 27.9667 11.0812 27.9226C11.0348 27.8786 11.0071 27.8185 11.0037 27.7546C11.0003 27.6885 11.0233 27.6237 11.0676 27.5745C11.1119 27.5253 11.1739 27.4957 11.24 27.4922L20.733 26.9926C20.8755 26.9813 20.9887 27.0911 20.9955 27.2287C21.0034 27.3663 20.897 27.4839 20.7594 27.4912L11.2664 27.9908C11.262 27.9913 11.2574 27.9913 11.253 27.9913ZM11.253 29.4903C11.189 29.4902 11.1276 29.4657 11.0812 29.4216C11.0348 29.3776 11.0071 29.3175 11.0037 29.2536C11.0003 29.1875 11.0232 29.1227 11.0676 29.0735C11.1119 29.0243 11.1739 28.9947 11.24 28.9911L20.733 28.4915C20.8755 28.4764 20.9887 28.5901 20.9955 28.7277C21.0034 28.8653 20.897 28.9828 20.7594 28.9901L11.2664 29.4898C11.262 29.4903 11.2574 29.4903 11.253 29.4903ZM20.247 26.4924H11.7529C11.72 26.4924 11.6876 26.486 11.6572 26.4734C11.6269 26.4609 11.5994 26.4425 11.5762 26.4193C11.553 26.3961 11.5345 26.3685 11.522 26.3382C11.5094 26.3079 11.503 26.2754 11.503 26.2426V24.6944C8.99723 23.1281 7.50586 20.4489 7.50586 17.4988C7.50584 17.466 7.51229 17.4335 7.52484 17.4032C7.53739 17.3729 7.55579 17.3454 7.57899 17.3222C7.60219 17.299 7.62974 17.2806 7.66005 17.268C7.69037 17.2555 7.72286 17.249 7.75567 17.249C7.78848 17.249 7.82097 17.2555 7.85129 17.268C7.88161 17.2806 7.90915 17.299 7.93235 17.3222C7.95555 17.3454 7.97395 17.3729 7.9865 17.4032C7.99905 17.4335 8.0055 17.466 8.00548 17.4988C8.00548 20.3191 9.45467 22.8769 11.8819 24.3411C11.9187 24.3634 11.9492 24.3947 11.9703 24.4322C11.9915 24.4696 12.0026 24.5119 12.0026 24.5549V25.9928H19.9972V24.5549C19.9972 24.5119 20.0083 24.4696 20.0295 24.4321C20.0507 24.3946 20.0813 24.3633 20.1182 24.3411C22.5452 22.8769 23.9943 20.3191 23.9943 17.4988C23.9942 17.466 24.0007 17.4335 24.0132 17.4032C24.0257 17.3728 24.0441 17.3453 24.0674 17.322C24.0906 17.2988 24.1181 17.2804 24.1485 17.2679C24.1788 17.2554 24.2113 17.249 24.2442 17.249C24.3104 17.2491 24.3739 17.2754 24.4207 17.3223C24.4675 17.3691 24.4939 17.4326 24.4939 17.4988C24.4939 20.4489 23.0029 23.1281 20.4969 24.6944V26.2426C20.4968 26.3088 20.4705 26.3724 20.4237 26.4192C20.3768 26.4661 20.3133 26.4924 20.247 26.4924ZM15.9999 31.9885C14.1184 31.9885 13.5511 30.8975 13.528 30.8511C13.4984 30.7918 13.4935 30.7232 13.5145 30.6604C13.5354 30.5975 13.5805 30.5455 13.6397 30.5159C13.7625 30.454 13.9113 30.5037 13.974 30.6257C13.9937 30.6633 14.447 31.4889 15.9999 31.4889C17.5547 31.4889 18.0075 30.6608 18.026 30.6257C18.0895 30.5047 18.2397 30.4559 18.3617 30.5183C18.4837 30.5808 18.5334 30.7286 18.472 30.8511C18.4485 30.8975 17.8815 31.9885 15.9999 31.9885Z" fill="white"/>
<path d="M7.75567 17.7487C7.72286 17.7487 7.69036 17.7422 7.66004 17.7297C7.62972 17.7171 7.60217 17.6987 7.57897 17.6755C7.55577 17.6523 7.53737 17.6248 7.52482 17.5944C7.51228 17.5641 7.50583 17.5316 7.50586 17.4988C7.50586 14.7371 8.85373 12.1394 11.1117 10.5492C11.1385 10.5303 11.1688 10.5169 11.2008 10.5097C11.2328 10.5025 11.2659 10.5017 11.2983 10.5073C11.3306 10.513 11.3615 10.5249 11.3892 10.5425C11.4169 10.56 11.4409 10.5829 11.4598 10.6097C11.498 10.664 11.513 10.7311 11.5017 10.7964C11.4904 10.8617 11.4537 10.9199 11.3995 10.9581C9.27436 12.4546 8.00548 14.8996 8.00548 17.4988C8.00551 17.5316 7.99906 17.5641 7.98652 17.5944C7.97398 17.6248 7.95558 17.6523 7.93237 17.6755C7.90917 17.6987 7.88162 17.7171 7.8513 17.7297C7.82098 17.7422 7.78849 17.7487 7.75567 17.7487ZM24.2461 17.7482C24.1799 17.7482 24.1163 17.7219 24.0695 17.675C24.0226 17.6282 23.9963 17.5646 23.9962 17.4984C23.9962 14.8987 22.7277 12.4537 20.6022 10.9572C20.5482 10.9188 20.5115 10.8607 20.5002 10.7954C20.4889 10.7302 20.5038 10.6631 20.5417 10.6088C20.5801 10.5548 20.6382 10.5182 20.7035 10.5069C20.7687 10.4955 20.8358 10.5104 20.8901 10.5483C23.1482 12.1384 24.4958 14.7367 24.4958 17.4984C24.4959 17.5312 24.4895 17.5637 24.477 17.594C24.4644 17.6244 24.4461 17.652 24.4229 17.6752C24.3997 17.6984 24.3721 17.7168 24.3418 17.7293C24.3114 17.7419 24.2789 17.7483 24.2461 17.7482Z" fill="white"/>
<path d="M16.2502 11.5031C12.2401 11.5031 11.1849 10.9986 11.142 10.9771C11.0827 10.9474 11.0377 10.8955 11.0167 10.8326C10.9958 10.7697 11.0006 10.7011 11.0302 10.6418C11.0914 10.5194 11.2391 10.4696 11.3632 10.5291C11.3854 10.5394 12.4345 11.0034 16.2502 11.0034C19.9333 11.0034 20.5617 10.5798 20.5871 10.5618C20.6857 10.4643 20.8341 10.472 20.9316 10.5696C21.0292 10.6672 21.0215 10.8326 20.9238 10.9302C20.8282 11.0259 20.1529 11.5031 16.2502 11.5031Z" fill="white"/>
<path d="M11.2476 11.0147C11.1835 11.0147 11.1188 10.9883 11.068 10.9376C10.9706 10.84 10.979 10.6746 11.0765 10.577C11.1721 10.4813 11.847 10.0042 15.75 10.0042C19.76 10.0042 20.815 10.5087 20.8579 10.5302C20.8873 10.5448 20.9135 10.5651 20.935 10.5898C20.9566 10.6146 20.973 10.6434 20.9834 10.6745C20.9939 10.7056 20.998 10.7385 20.9957 10.7712C20.9935 10.804 20.9847 10.836 20.9701 10.8653C20.9086 10.9883 20.7583 11.0371 20.6373 10.9781C20.6149 10.9678 19.5658 10.5038 15.75 10.5038C12.0673 10.5038 11.4381 10.9273 11.4129 10.9453C11.3913 10.9673 11.3656 10.9848 11.3372 10.9967C11.3088 11.0086 11.2784 11.0147 11.2476 11.0147ZM21.9958 15.6027C21.7752 15.6027 21.5557 15.5598 21.384 15.4739C21.181 15.3724 20.8111 15.3724 20.6081 15.4739C20.2656 15.6457 19.7278 15.6457 19.3853 15.4739C19.1825 15.3724 18.8126 15.3724 18.6096 15.4739C18.2671 15.6457 17.7293 15.6457 17.3868 15.4739C17.1838 15.3724 16.814 15.3724 16.6111 15.4739C16.2688 15.6452 15.7308 15.6452 15.3883 15.4739C15.1853 15.3724 14.8154 15.3724 14.613 15.4739C14.27 15.6457 13.7327 15.6457 13.3897 15.4739C13.1865 15.3724 12.8166 15.3724 12.6144 15.4739C12.2709 15.6452 11.7337 15.6452 11.3911 15.4739C11.1881 15.3724 10.8188 15.3724 10.6158 15.4739C10.2723 15.6457 9.73534 15.6457 9.39234 15.4739L8.89321 15.2241C8.86384 15.2094 8.83764 15.1892 8.81612 15.1644C8.79459 15.1396 8.77816 15.1108 8.76776 15.0797C8.75736 15.0486 8.75319 15.0157 8.7555 14.983C8.75781 14.9502 8.76655 14.9183 8.78121 14.8889C8.81087 14.8297 8.86279 14.7847 8.92558 14.7638C8.98837 14.7428 9.0569 14.7476 9.11615 14.7772L9.61627 15.027C9.81877 15.1285 10.1886 15.1285 10.3921 15.027C10.7346 14.8552 11.2721 14.8552 11.6151 15.027C11.8176 15.1285 12.1871 15.1285 12.3906 15.027C12.7327 14.8552 13.2699 14.8547 13.6134 15.027C13.8164 15.1285 14.186 15.1285 14.389 15.027C14.732 14.8552 15.269 14.8552 15.612 15.027C15.815 15.1285 16.1848 15.1285 16.3878 15.027C16.7301 14.8552 17.2678 14.8552 17.6104 15.027C17.8134 15.1285 18.1831 15.1285 18.3861 15.027C18.7286 14.8552 19.2664 14.8552 19.6089 15.027C19.8119 15.1285 20.1818 15.1285 20.3848 15.027C20.7273 14.8552 21.2649 14.8552 21.6074 15.027C21.8104 15.1285 22.1803 15.1285 22.3833 15.027L22.8829 14.7772C22.9123 14.7624 22.9443 14.7536 22.977 14.7512C23.0098 14.7488 23.0428 14.7529 23.0739 14.7633C23.1051 14.7737 23.134 14.7901 23.1588 14.8117C23.1836 14.8332 23.2039 14.8595 23.2186 14.8889C23.2333 14.9183 23.242 14.9502 23.2443 14.983C23.2466 15.0157 23.2425 15.0486 23.232 15.0798C23.2216 15.1109 23.2052 15.1397 23.1836 15.1644C23.162 15.1892 23.1358 15.2095 23.1064 15.2241L22.6068 15.4739C22.436 15.5598 22.2154 15.6027 21.9958 15.6027ZM14.7507 25.4932C14.7179 25.4932 14.6854 25.4867 14.6551 25.4742C14.6248 25.4616 14.5972 25.4432 14.574 25.42C14.5508 25.3968 14.5324 25.3693 14.5199 25.339C14.5073 25.3086 14.5009 25.2761 14.5009 25.2433V23.2447C14.5009 23.2119 14.5073 23.1794 14.5199 23.1491C14.5324 23.1188 14.5508 23.0912 14.574 23.068C14.5972 23.0448 14.6248 23.0264 14.6551 23.0139C14.6854 23.0013 14.7179 22.9949 14.7507 22.9949C14.7835 22.9949 14.816 23.0013 14.8463 23.0139C14.8767 23.0264 14.9042 23.0448 14.9274 23.068C14.9506 23.0912 14.969 23.1188 14.9816 23.1491C14.9942 23.1794 15.0006 23.2119 15.0006 23.2447V25.2433C15.0006 25.2762 14.9941 25.3086 14.9816 25.339C14.969 25.3693 14.9506 25.3968 14.9274 25.42C14.9042 25.4432 14.8767 25.4616 14.8463 25.4742C14.816 25.4867 14.7835 25.4932 14.7507 25.4932ZM17.2492 25.4932C17.2164 25.4932 17.1839 25.4868 17.1535 25.4743C17.1232 25.4617 17.0956 25.4433 17.0724 25.4201C17.0492 25.3969 17.0308 25.3694 17.0182 25.339C17.0057 25.3087 16.9993 25.2762 16.9993 25.2433V23.2447C16.9993 23.2119 17.0057 23.1794 17.0182 23.149C17.0308 23.1187 17.0492 23.0911 17.0724 23.0679C17.0956 23.0447 17.1232 23.0263 17.1535 23.0138C17.1839 23.0013 17.2164 22.9948 17.2492 22.9949C17.3154 22.995 17.3789 23.0213 17.4258 23.0681C17.4726 23.115 17.4989 23.1785 17.499 23.2447V25.2433C17.4989 25.3096 17.4726 25.3731 17.4258 25.4199C17.3789 25.4667 17.3154 25.4931 17.2492 25.4932Z" fill="white"/>
<path d="M14.751 23.4946C14.7135 23.4947 14.6765 23.4863 14.6427 23.4701C14.6089 23.4538 14.5791 23.4302 14.5556 23.401C14.5143 23.3492 14.4952 23.2831 14.5025 23.2173C14.5098 23.1514 14.543 23.0911 14.5947 23.0497L15.8438 22.0504C15.8957 22.0093 15.9617 21.9903 16.0275 21.9976C16.0933 22.0049 16.1535 22.0379 16.1951 22.0894C16.2365 22.1412 16.2556 22.2073 16.2483 22.2732C16.241 22.339 16.2078 22.3993 16.1561 22.4407L14.907 23.44C14.8627 23.4753 14.8077 23.4946 14.751 23.4946Z" fill="white"/>
<path d="M17.2493 23.4946C17.1925 23.4948 17.1374 23.4755 17.0932 23.44L15.8438 22.4407C15.7921 22.3992 15.759 22.339 15.7517 22.2731C15.7443 22.2073 15.7634 22.1412 15.8047 22.0894C15.8463 22.0379 15.9066 22.005 15.9723 21.9976C16.0381 21.9903 16.1041 22.0093 16.156 22.0504L17.4054 23.0497C17.457 23.0912 17.4901 23.1515 17.4974 23.2173C17.5047 23.2831 17.4857 23.3491 17.4445 23.401C17.421 23.4302 17.3913 23.4537 17.3575 23.4699C17.3237 23.4861 17.2868 23.4946 17.2493 23.4946ZM17.2493 22.4954C17.2165 22.4954 17.1839 22.489 17.1536 22.4765C17.1233 22.4639 17.0957 22.4456 17.0725 22.4223C17.0493 22.3991 17.0309 22.3716 17.0183 22.3412C17.0058 22.3109 16.9994 22.2784 16.9994 22.2455V18.9979C16.9994 18.965 17.0058 18.9325 17.0183 18.9022C17.0309 18.8718 17.0493 18.8443 17.0725 18.8211C17.0957 18.7979 17.1233 18.7795 17.1536 18.7669C17.1839 18.7544 17.2165 18.748 17.2493 18.748C17.3155 18.7481 17.379 18.7744 17.4259 18.8213C17.4727 18.8681 17.499 18.9316 17.499 18.9979V22.2455C17.499 22.3118 17.4727 22.3753 17.4258 22.4221C17.379 22.469 17.3155 22.4953 17.2493 22.4954ZM14.7508 22.4954C14.718 22.4954 14.6855 22.4889 14.6552 22.4764C14.6249 22.4638 14.5973 22.4454 14.5741 22.4222C14.5509 22.399 14.5325 22.3715 14.52 22.3412C14.5074 22.3108 14.501 22.2784 14.501 22.2455V18.9979C14.501 18.965 14.5074 18.9326 14.5199 18.9022C14.5325 18.8719 14.5509 18.8444 14.5741 18.8212C14.5973 18.798 14.6248 18.7796 14.6552 18.767C14.6855 18.7545 14.718 18.748 14.7508 18.748C14.7836 18.748 14.8161 18.7545 14.8464 18.767C14.8768 18.7796 14.9043 18.798 14.9275 18.8212C14.9507 18.8444 14.9691 18.8719 14.9817 18.9022C14.9942 18.9325 15.0007 18.965 15.0007 18.9979V22.2455C15.0007 22.2784 14.9942 22.3109 14.9817 22.3412C14.9691 22.3715 14.9507 22.399 14.9275 22.4222C14.9043 22.4454 14.8767 22.4638 14.8464 22.4764C14.8161 22.4889 14.7836 22.4954 14.7508 22.4954Z" fill="white"/>
<path d="M14.7509 19.2478C14.7181 19.2478 14.6856 19.2413 14.6553 19.2288C14.625 19.2162 14.5974 19.1978 14.5742 19.1746C14.551 19.1514 14.5326 19.1239 14.5201 19.0936C14.5076 19.0633 14.5011 19.0308 14.5011 18.998C14.5011 18.4471 14.053 17.9986 13.5019 17.9986C12.9507 17.9986 12.5026 18.4471 12.5026 18.998C12.5026 19.136 12.3908 19.2478 12.2527 19.2478C12.1147 19.2478 12.0029 19.136 12.0029 18.998C12.0029 18.1713 12.6753 17.499 13.5019 17.499C14.3284 17.499 15.0008 18.1714 15.0008 18.998C15.0008 19.0308 14.9944 19.0633 14.9818 19.0936C14.9692 19.1239 14.9508 19.1514 14.9276 19.1746C14.9044 19.1978 14.8769 19.2162 14.8466 19.2288C14.8162 19.2413 14.7837 19.2478 14.7509 19.2478Z" fill="white"/>
<path d="M13.5019 20.4968C12.6753 20.4968 12.0029 19.8245 12.0029 18.998C12.0029 18.8598 12.1147 18.7481 12.2527 18.7481C12.3908 18.7481 12.5026 18.8598 12.5026 18.998C12.5026 19.5488 12.9507 19.9972 13.5019 19.9972C13.5347 19.9972 13.5672 20.0036 13.5975 20.0162C13.6278 20.0287 13.6553 20.0471 13.6785 20.0703C13.7017 20.0935 13.7201 20.1211 13.7327 20.1514C13.7452 20.1817 13.7517 20.2142 13.7517 20.247C13.7517 20.2798 13.7453 20.3123 13.7327 20.3427C13.7202 20.373 13.7018 20.4005 13.6786 20.4237C13.6554 20.4469 13.6278 20.4653 13.5975 20.4779C13.5672 20.4904 13.5347 20.4969 13.5019 20.4968ZM19.7476 19.2478C19.7148 19.2478 19.6823 19.2414 19.652 19.2289C19.6216 19.2163 19.5941 19.1979 19.5709 19.1747C19.5477 19.1515 19.5293 19.1239 19.5168 19.0936C19.5042 19.0633 19.4978 19.0308 19.4979 18.998C19.4979 18.4471 19.0489 17.9986 18.4986 17.9986C17.9472 17.9986 17.4992 18.4471 17.4992 18.998C17.4992 19.0642 17.4729 19.1277 17.426 19.1745C17.3792 19.2214 17.3157 19.2477 17.2495 19.2478C17.2167 19.2478 17.1841 19.2414 17.1538 19.2289C17.1235 19.2164 17.0959 19.198 17.0727 19.1748C17.0495 19.1515 17.0311 19.124 17.0185 19.0936C17.006 19.0633 16.9996 19.0308 16.9996 18.998C16.9996 18.1713 17.672 17.499 18.4986 17.499C19.3252 17.499 19.9975 18.1714 19.9975 18.998C19.9974 19.0642 19.9711 19.1277 19.9242 19.1746C19.8774 19.2214 19.8139 19.2477 19.7476 19.2478Z" fill="white"/>
<path d="M21.0941 20.8853C21.0613 20.8854 21.0288 20.879 20.9985 20.8664C20.9681 20.8539 20.9405 20.8355 20.9173 20.8123C20.8941 20.7891 20.8757 20.7615 20.8632 20.7312C20.8506 20.7008 20.8442 20.6683 20.8443 20.6355C20.8442 20.6027 20.8506 20.5701 20.8632 20.5398C20.8757 20.5095 20.8941 20.4819 20.9173 20.4587C20.9406 20.4355 20.9681 20.4171 20.9985 20.4045C21.0288 20.392 21.0613 20.3856 21.0941 20.3857C21.6445 20.3857 22.0934 19.9372 22.0934 19.3864C22.0933 19.3536 22.0997 19.3211 22.1123 19.2907C22.1248 19.2604 22.1432 19.2328 22.1664 19.2096C22.1896 19.1864 22.2171 19.168 22.2475 19.1555C22.2778 19.143 22.3103 19.1365 22.3431 19.1366C22.4094 19.1366 22.4729 19.163 22.5198 19.2098C22.5666 19.2566 22.593 19.3202 22.593 19.3864C22.593 20.2129 21.9207 20.8853 21.0941 20.8853ZM18.8455 20.8853H18.3458C18.313 20.8853 18.2805 20.8789 18.2501 20.8663C18.2198 20.8538 18.1923 20.8354 18.1691 20.8122C18.1458 20.789 18.1274 20.7614 18.1149 20.7311C18.1023 20.7008 18.0959 20.6683 18.0959 20.6355C18.0959 20.6027 18.1023 20.5702 18.1149 20.5398C18.1274 20.5095 18.1458 20.482 18.1691 20.4588C18.1923 20.4356 18.2198 20.4172 18.2501 20.4046C18.2805 20.3921 18.313 20.3856 18.3458 20.3857H18.8455C18.8783 20.3857 18.9108 20.3921 18.9411 20.4046C18.9714 20.4172 18.9989 20.4356 19.0221 20.4588C19.0453 20.482 19.0637 20.5095 19.0763 20.5399C19.0888 20.5702 19.0952 20.6027 19.0952 20.6355C19.0952 20.6683 19.0888 20.7008 19.0763 20.7311C19.0637 20.7614 19.0453 20.789 19.0221 20.8122C18.9989 20.8354 18.9714 20.8538 18.9411 20.8663C18.9108 20.8789 18.8783 20.8853 18.8455 20.8853ZM13.3493 8.39423C12.3851 8.39423 11.6006 7.6096 11.6006 6.64548C11.6006 5.68129 12.3851 4.89673 13.3493 4.89673C14.3135 4.89673 15.0981 5.68135 15.0981 6.64548C15.0981 7.60967 14.3135 8.39423 13.3493 8.39423ZM13.3493 5.39635C12.6606 5.39635 12.1003 5.95648 12.1003 6.64548C12.1003 7.33448 12.6606 7.89454 13.3493 7.89454C14.038 7.89454 14.5985 7.33442 14.5985 6.64548C14.5985 5.95654 14.0381 5.39635 13.3493 5.39635ZM15.348 14.3899C14.9346 14.3899 14.5985 14.0537 14.5985 13.6405C14.5985 13.2272 14.9346 12.891 15.348 12.891C15.7612 12.891 16.0974 13.2272 16.0974 13.6405C16.0974 14.0537 15.7612 14.3899 15.348 14.3899ZM15.348 13.3907C15.2817 13.3907 15.2182 13.4171 15.1714 13.4639C15.1245 13.5107 15.0982 13.5742 15.0981 13.6405C15.0982 13.7067 15.1245 13.7702 15.1714 13.8171C15.2182 13.8639 15.2817 13.8902 15.348 13.8903C15.4142 13.8902 15.4777 13.8639 15.5245 13.817C15.5713 13.7702 15.5977 13.7067 15.5978 13.6405C15.5977 13.5743 15.5713 13.5108 15.5245 13.4639C15.4777 13.4171 15.4142 13.3908 15.348 13.3907ZM20.0948 13.3907C19.5435 13.3907 19.0953 12.9422 19.0953 12.3914C19.0967 12.3261 19.1237 12.2639 19.1704 12.2183C19.2171 12.1726 19.2799 12.147 19.3452 12.147C19.4105 12.147 19.4733 12.1726 19.52 12.2183C19.5667 12.2639 19.5937 12.3261 19.5951 12.3914C19.5952 12.5239 19.6478 12.651 19.7415 12.7447C19.8352 12.8384 19.9623 12.891 20.0948 12.891C20.37 12.891 20.5944 12.6671 20.5944 12.3914C20.5943 12.3586 20.6008 12.3261 20.6133 12.2957C20.6258 12.2654 20.6442 12.2378 20.6675 12.2146C20.6907 12.1914 20.7182 12.173 20.7486 12.1604C20.7789 12.1479 20.8114 12.1415 20.8443 12.1415C20.9105 12.1416 20.9741 12.1679 21.0209 12.2148C21.0678 12.2616 21.0941 12.3252 21.0941 12.3914C21.0941 12.9422 20.6451 13.3907 20.0948 13.3907Z" fill="white"/>
<g clip-path="url(#clip0_1714_3163)">
<path d="M22.1277 6.82972C21.9059 7.05154 21.8833 7.40232 22.0768 7.62826C22.1864 7.75626 22.3454 7.82972 22.5134 7.82972C22.6671 7.82972 22.8113 7.77008 22.9195 7.66172L24.1958 6.38536C24.2872 6.2942 24.3377 6.17275 24.3377 6.04354C24.3377 5.91433 24.2872 5.79287 24.1958 5.70172L22.9195 4.42536C22.6889 4.19457 22.2758 4.21517 22.0681 4.46899C21.8843 4.69396 21.91 5.03942 22.1263 5.25566L22.8715 6.00136C22.8867 6.01639 22.8889 6.03433 22.8889 6.04354C22.8889 6.05275 22.8867 6.07069 22.8715 6.08596L22.1277 6.82972ZM23.0429 5.82972L22.2977 5.08426C22.1684 4.95505 22.15 4.75214 22.256 4.62245C22.3197 4.54439 22.4133 4.49978 22.5134 4.49978C22.6019 4.49978 22.6853 4.5342 22.7481 4.59699L24.0244 5.87336C24.07 5.91893 24.0952 5.97954 24.0952 6.04378C24.0952 6.10802 24.07 6.16863 24.0244 6.2142L22.7481 7.49057C22.6169 7.62172 22.3825 7.61275 22.261 7.47093C22.1515 7.34269 22.1684 7.13202 22.2991 7.00136L23.0429 6.2576C23.0998 6.20039 23.1313 6.12451 23.1313 6.04378C23.1316 5.96257 23.1001 5.88669 23.0429 5.82972Z" fill="white"/>
<path d="M16.645 6.31316C16.6641 6.44092 16.7318 6.5534 16.8355 6.63025L18.2864 7.70395C18.3858 7.77764 18.5039 7.81667 18.6275 7.81667C18.8379 7.81667 19.0316 7.70128 19.1332 7.51534C19.269 7.26613 19.1907 6.94467 18.9512 6.7677L18.1007 6.13861C18.0743 6.11873 18.0685 6.08116 18.0881 6.05473L18.7308 5.18613C18.8268 5.05595 18.8639 4.89037 18.8319 4.73158C18.8001 4.57279 18.7015 4.43413 18.5616 4.35073C18.3167 4.20479 17.9691 4.28576 17.7924 4.52407L16.7347 5.95388C16.6578 6.05764 16.6261 6.18516 16.645 6.31316ZM16.9296 6.09813L17.9878 4.66782C18.0569 4.57449 18.1693 4.51631 18.2813 4.51631C18.3378 4.51631 18.3904 4.53061 18.4379 4.55873C18.5204 4.60795 18.5761 4.68601 18.5948 4.7791C18.613 4.87073 18.5916 4.96649 18.5361 5.04164L17.8932 5.91025C17.7943 6.04407 17.8227 6.23364 17.9565 6.33304L18.8072 6.96237C18.9499 7.06807 18.9987 7.2557 18.9206 7.39898C18.8261 7.57182 18.5878 7.62516 18.4309 7.50879L16.98 6.4351C16.9281 6.39679 16.8942 6.34055 16.8847 6.27704C16.8753 6.21352 16.891 6.15001 16.9296 6.09813Z" fill="white"/>
<path d="M20.5378 4.21209L19.5066 7.53452C19.461 7.68094 19.4755 7.83633 19.5468 7.97185C19.6183 8.10761 19.7383 8.20724 19.8845 8.25258C19.9398 8.27003 19.997 8.27876 20.0549 8.27876C20.3075 8.27876 20.5279 8.11658 20.6031 7.87488L21.6343 4.55245C21.7281 4.25015 21.5587 3.92797 21.2561 3.83415C20.958 3.74179 20.6302 3.91585 20.5378 4.21209ZM21.4028 4.4807L20.3715 7.80288C20.3182 7.97452 20.1279 8.07415 19.9565 8.0213C19.8717 7.99512 19.8026 7.93742 19.7611 7.85912C19.7199 7.78058 19.7117 7.69088 19.7378 7.60652L20.7694 4.28409C20.8128 4.1447 20.9398 4.05088 21.086 4.05088C21.1194 4.05088 21.1524 4.05597 21.1844 4.06591C21.3589 4.11997 21.4569 4.30615 21.4028 4.4807Z" fill="white"/>
<path d="M18.4616 3.55147C18.5286 3.55147 18.5829 3.49717 18.5829 3.43026V2.94541H19.0677C19.1346 2.94541 19.1889 2.89111 19.1889 2.8242C19.1889 2.75729 19.1346 2.70298 19.0677 2.70298H18.5829V2.21814C18.5829 2.15123 18.5286 2.09692 18.4616 2.09692C18.3947 2.09692 18.3404 2.15123 18.3404 2.21814V2.70298H17.8556C17.7887 2.70298 17.7344 2.75729 17.7344 2.8242C17.7344 2.89111 17.7887 2.94541 17.8556 2.94541H18.3404V3.43026C18.3404 3.49717 18.3947 3.55147 18.4616 3.55147Z" fill="white"/>
<path d="M17.8558 0.763546V1.00597H17.6134C17.5465 1.00597 17.4922 1.06027 17.4922 1.12718C17.4922 1.19409 17.5465 1.24839 17.6134 1.24839H17.8558V1.49082C17.8558 1.55773 17.9101 1.61203 17.977 1.61203C18.0439 1.61203 18.0982 1.55773 18.0982 1.49082V1.24839H18.3407C18.4076 1.24839 18.4619 1.19409 18.4619 1.12718C18.4619 1.06027 18.4076 1.00597 18.3407 1.00597H18.0982V0.763546C18.0982 0.696637 18.0439 0.642334 17.977 0.642334C17.9101 0.642334 17.8558 0.696637 17.8558 0.763546Z" fill="white"/>
<path d="M17.0073 1.61206C16.9404 1.61206 16.8861 1.66636 16.8861 1.73327V1.9757H16.6437C16.5768 1.9757 16.5225 2.03 16.5225 2.09691C16.5225 2.16382 16.5768 2.21812 16.6437 2.21812H16.8861V2.46055C16.8861 2.52745 16.9404 2.58176 17.0073 2.58176C17.0742 2.58176 17.1285 2.52745 17.1285 2.46055V2.21812H17.3709C17.4379 2.21812 17.4922 2.16382 17.4922 2.09691C17.4922 2.03 17.4379 1.9757 17.3709 1.9757H17.1285V1.73327C17.1285 1.66636 17.0742 1.61206 17.0073 1.61206Z" fill="white"/>
</g>
<defs>
<clipPath id="clip0_1714_3163">
<rect width="8" height="8" fill="white" transform="translate(16.4014 0.399902)"/>
</clipPath>
</defs>
</svg>
