<svg width="32" height="33" viewBox="0 0 32 33" fill="none" xmlns="http://www.w3.org/2000/svg">
<g clip-path="url(#clip0_1714_3025)">
<path d="M10.1675 31.5413C10.1324 31.5414 10.0977 31.5341 10.0656 31.5198C10.0335 31.5055 10.0049 31.4845 9.98152 31.4583C9.95959 31.4339 9.94269 31.4054 9.93178 31.3744C9.92087 31.3435 9.91616 31.3107 9.91793 31.2779C9.9197 31.2451 9.92791 31.213 9.94209 31.1834C9.95627 31.1538 9.97615 31.1273 10.0006 31.1054L10.0538 31.0551C10.3425 30.771 10.5012 30.3917 10.5012 29.9869C10.5012 29.16 9.82846 28.4872 9.00152 28.4872C8.17458 28.4872 7.50183 29.16 7.50183 29.9869C7.50129 30.3559 7.63726 30.712 7.88358 30.9867C7.90508 31.0111 7.92752 31.0346 7.9507 31.057C7.99774 31.1037 8.02432 31.1671 8.02459 31.2334C8.02486 31.2997 7.9988 31.3634 7.95214 31.4104C7.92907 31.4338 7.90162 31.4523 7.87137 31.4651C7.84112 31.4778 7.80865 31.4845 7.77583 31.4846C7.743 31.4848 7.71046 31.4785 7.68007 31.4661C7.64968 31.4537 7.62203 31.4355 7.5987 31.4124C7.5687 31.3821 7.53939 31.3519 7.51108 31.3201C7.18269 30.9537 7.00136 30.4789 7.00195 29.9869C7.00195 28.8841 7.89902 27.9873 9.00152 27.9873C10.104 27.9873 11.0011 28.8841 11.0011 29.9869C11.0011 30.5263 10.7895 31.0321 10.405 31.4109L10.3345 31.4772C10.2887 31.5186 10.2292 31.5414 10.1675 31.5413Z" fill="white"/>
<path d="M9.50165 30.7368C9.46883 30.7368 9.43632 30.7303 9.406 30.7178C9.37568 30.7052 9.34814 30.6868 9.32496 30.6635L8.32515 29.6637C8.30195 29.6405 8.28354 29.6129 8.27098 29.5826C8.25842 29.5523 8.25195 29.5198 8.25195 29.487C8.25195 29.4542 8.25842 29.4217 8.27098 29.3913C8.28354 29.361 8.30195 29.3335 8.32515 29.3103C8.34836 29.2871 8.37591 29.2686 8.40623 29.2561C8.43655 29.2435 8.46905 29.2371 8.50187 29.2371C8.53469 29.2371 8.56719 29.2435 8.59751 29.2561C8.62783 29.2686 8.65538 29.2871 8.67859 29.3103L9.6784 30.3101C9.71339 30.345 9.73723 30.3896 9.7469 30.4381C9.75656 30.4866 9.75162 30.5368 9.73269 30.5825C9.71377 30.6282 9.68171 30.6672 9.64058 30.6947C9.59945 30.7222 9.5511 30.7368 9.50165 30.7368Z" fill="white"/>
<path d="M8.75579 31.4829C8.70634 31.4829 8.65799 31.4683 8.61686 31.4408C8.57573 31.4134 8.54368 31.3743 8.52475 31.3286C8.50583 31.2829 8.50088 31.2327 8.51055 31.1842C8.52021 31.1357 8.54405 31.0911 8.57904 31.0562L9.32504 30.3102C9.37191 30.2634 9.43548 30.237 9.50176 30.237C9.56804 30.237 9.63161 30.2634 9.67848 30.3102C9.72535 30.3571 9.75168 30.4207 9.75168 30.487C9.75168 30.5532 9.72535 30.6168 9.67848 30.6637L8.93254 31.4096C8.90935 31.4329 8.8818 31.4513 8.85147 31.4639C8.82114 31.4764 8.78862 31.4829 8.75579 31.4829ZM8.50191 29.7371C8.43829 29.7372 8.37705 29.7129 8.33079 29.6692C8.30686 29.6468 8.28759 29.6198 8.27408 29.5899C8.26057 29.5599 8.2531 29.5276 8.25207 29.4948C8.25105 29.462 8.25651 29.4293 8.26813 29.3986C8.27974 29.3679 8.2973 29.3397 8.31979 29.3158L10.2569 27.2538C10.3027 27.207 10.365 27.1801 10.4305 27.1788C10.4959 27.1774 10.5592 27.2018 10.6069 27.2466C10.6546 27.2915 10.6828 27.3532 10.6854 27.4186C10.6881 27.484 10.665 27.5479 10.6211 27.5964L8.68398 29.6585C8.66064 29.6834 8.63243 29.7032 8.60112 29.7167C8.5698 29.7303 8.53603 29.7372 8.50191 29.7371Z" fill="white"/>
<path d="M31.2465 32.4826H0.752867C0.720035 32.4826 0.687522 32.4762 0.657186 32.4636C0.626851 32.4511 0.599289 32.4326 0.576076 32.4094C0.552863 32.3862 0.534455 32.3586 0.521904 32.3283C0.509353 32.298 0.502905 32.2654 0.50293 32.2326V28.7334C0.50293 26.5879 1.61424 25.7657 3.66487 24.9998C5.82412 24.1934 7.54105 23.4474 8.62987 22.8435C8.75099 22.7775 8.90274 22.82 8.96968 22.9411C8.98562 22.9698 8.99574 23.0013 8.99949 23.034C9.00323 23.0666 9.00051 23.0996 8.99148 23.1311C8.98246 23.1627 8.9673 23.1922 8.94689 23.2179C8.92647 23.2436 8.90119 23.265 8.87249 23.2809C7.76212 23.8965 6.02205 24.6532 3.83962 25.4685C1.91768 26.186 1.0028 26.8578 1.0028 28.7334V31.9827H30.9966V28.7334C30.9966 26.8578 30.0817 26.186 28.1597 25.4685C25.9405 24.638 24.247 23.9019 23.1266 23.2809C23.0686 23.2488 23.0258 23.1949 23.0075 23.1312C22.9892 23.0675 22.9969 22.9991 23.029 22.9411C23.0959 22.82 23.2482 22.7775 23.3688 22.8435C24.4677 23.4527 26.1387 24.1782 28.3351 24.9998C30.3854 25.7657 31.4965 26.5879 31.4965 28.7334V32.2326C31.4965 32.2654 31.4901 32.298 31.4775 32.3283C31.4649 32.3586 31.4465 32.3862 31.4233 32.4094C31.4001 32.4326 31.3725 32.4511 31.3422 32.4636C31.3118 32.4762 31.2793 32.4826 31.2465 32.4826Z" fill="white"/>
<path d="M16.0001 23.4843C12.5289 23.4843 7.00195 18.5654 7.00195 12.7366C7.00195 12.5984 7.1137 12.4866 7.25189 12.4866C7.28472 12.4866 7.31724 12.493 7.34757 12.5056C7.37791 12.5181 7.40547 12.5365 7.42868 12.5598C7.45189 12.583 7.4703 12.6105 7.48285 12.6409C7.49541 12.6712 7.50185 12.7037 7.50183 12.7366C7.50183 18.2945 12.7217 22.9844 16.0001 22.9844C19.2787 22.9844 24.4983 18.2945 24.4983 12.7366C24.4983 12.5984 24.6101 12.4866 24.7483 12.4866C24.7812 12.4866 24.8137 12.493 24.844 12.5056C24.8743 12.5182 24.9019 12.5366 24.9251 12.5598C24.9483 12.583 24.9667 12.6106 24.9792 12.6409C24.9918 12.6712 24.9982 12.7037 24.9982 12.7366C24.9982 18.5654 19.471 23.4843 16.0001 23.4843ZM16.015 25.4839C15.877 25.4839 15.7626 25.3721 15.7626 25.2339C15.7626 25.0958 15.872 24.984 16.0101 24.984H16.015C16.0478 24.984 16.0803 24.9904 16.1106 25.003C16.141 25.0156 16.1685 25.034 16.1917 25.0572C16.2149 25.0804 16.2333 25.1079 16.2459 25.1383C16.2585 25.1686 16.2649 25.2011 16.2649 25.2339C16.2649 25.3721 16.1531 25.4839 16.015 25.4839ZM16.015 27.4834C15.877 27.4834 15.7626 27.3717 15.7626 27.2336C15.7626 27.0954 15.872 26.9836 16.0101 26.9836H16.015C16.0478 26.9836 16.0803 26.99 16.1106 27.0026C16.141 27.0151 16.1685 27.0335 16.1917 27.0568C16.215 27.08 16.2334 27.1075 16.2459 27.1379C16.2585 27.1682 16.2649 27.2007 16.2649 27.2336C16.2649 27.2664 16.2585 27.2989 16.2459 27.3292C16.2333 27.3596 16.2149 27.3871 16.1917 27.4103C16.1685 27.4335 16.1409 27.4519 16.1106 27.4645C16.0803 27.477 16.0478 27.4835 16.015 27.4834ZM16.015 29.4831C15.877 29.4831 15.7626 29.3713 15.7626 29.2331C15.7626 29.0949 15.872 28.9832 16.0101 28.9832H16.015C16.0478 28.9832 16.0803 28.9896 16.1106 29.0022C16.141 29.0147 16.1685 29.0331 16.1917 29.0563C16.215 29.0796 16.2334 29.1071 16.2459 29.1375C16.2585 29.1678 16.2649 29.2003 16.2649 29.2331C16.2649 29.266 16.2585 29.2985 16.2459 29.3288C16.2333 29.3591 16.2149 29.3867 16.1917 29.4099C16.1685 29.4331 16.141 29.4515 16.1106 29.4641C16.0803 29.4766 16.0478 29.4831 16.015 29.4831ZM16.015 31.4827C15.877 31.4827 15.7626 31.3709 15.7626 31.2328C15.7626 31.0946 15.872 30.9828 16.0101 30.9828H16.015C16.1531 30.9828 16.2649 31.0946 16.2649 31.2328C16.2649 31.3709 16.1531 31.4827 16.015 31.4827Z" fill="white"/>
<path d="M22.249 22.4846C22.2161 22.4846 22.1836 22.4781 22.1533 22.4656C22.1229 22.453 22.0954 22.4346 22.0722 22.4114C22.049 22.3881 22.0305 22.3606 22.018 22.3302C22.0054 22.2999 21.999 22.2674 21.999 22.2346V21.2348C21.999 21.0966 22.1108 20.9849 22.249 20.9849C22.3871 20.9849 22.4989 21.0966 22.4989 21.2348V22.2346C22.4989 22.2674 22.4925 22.2999 22.4799 22.3302C22.4674 22.3606 22.449 22.3882 22.4258 22.4114C22.4026 22.4346 22.375 22.453 22.3447 22.4656C22.3143 22.4781 22.2818 22.4846 22.249 22.4846Z" fill="white"/>
<path d="M19.7489 25.9839C19.6968 25.984 19.646 25.9677 19.6035 25.9375C19.5768 25.9184 19.5541 25.8942 19.5368 25.8663C19.5194 25.8384 19.5077 25.8073 19.5024 25.7749C19.497 25.7425 19.4981 25.7093 19.5056 25.6773C19.513 25.6453 19.5267 25.6151 19.5459 25.5884L22.0453 22.0892C22.0841 22.0356 22.1424 21.9994 22.2077 21.9885C22.273 21.9777 22.3399 21.9929 22.3939 22.0311C22.4207 22.0502 22.4433 22.0744 22.4607 22.1023C22.478 22.1302 22.4897 22.1612 22.4951 22.1937C22.5004 22.2261 22.4993 22.2592 22.4918 22.2912C22.4844 22.3232 22.4707 22.3534 22.4515 22.3801L19.9521 25.8794C19.929 25.9117 19.8985 25.938 19.8632 25.9562C19.8278 25.9744 19.7887 25.9839 19.7489 25.9839Z" fill="white"/>
<path d="M19.7488 25.9838C19.71 25.984 19.6717 25.9749 19.637 25.9574L16.6377 24.4577C16.5784 24.4281 16.5333 24.3761 16.5123 24.3132C16.4914 24.2503 16.4962 24.1817 16.5259 24.1224C16.5555 24.0631 16.6075 24.018 16.6704 23.997C16.7333 23.9761 16.8019 23.9809 16.8612 24.0106L19.8606 25.5102C19.8983 25.5102 19.9356 25.5188 19.9695 25.5352C20.0035 25.5516 20.0333 25.5755 20.0567 25.6051C20.0801 25.6346 20.0965 25.6691 20.1047 25.706C20.1129 25.7428 20.1127 25.781 20.104 25.8177C20.0953 25.8544 20.0785 25.8887 20.0547 25.9179C20.0309 25.9472 20.0008 25.9707 19.9666 25.9867C19.9324 26.0027 19.8951 26.0107 19.8574 26.0102C19.8196 26.0097 19.7825 26.0007 19.7488 25.9838ZM9.75091 22.4846C9.71808 22.4846 9.68557 22.4781 9.65523 22.4656C9.6249 22.453 9.59734 22.4346 9.57412 22.4114C9.55091 22.3881 9.5325 22.3606 9.51995 22.3302C9.5074 22.2999 9.50095 22.2674 9.50098 22.2346V21.2348C9.50096 21.202 9.50741 21.1695 9.51997 21.1391C9.53252 21.1088 9.55093 21.0812 9.57414 21.058C9.59736 21.0348 9.62492 21.0164 9.65525 21.0039C9.68558 20.9913 9.71809 20.9848 9.75091 20.9849C9.8891 20.9849 10.0009 21.0966 10.0009 21.2348V22.2346C10.0009 22.2674 9.99446 22.2999 9.9819 22.3302C9.96934 22.3606 9.95092 22.3881 9.92771 22.4113C9.90449 22.4346 9.87693 22.453 9.84659 22.4655C9.81626 22.4781 9.78375 22.4846 9.75091 22.4846Z" fill="white"/>
<path d="M12.2506 25.9839C12.2108 25.984 12.1716 25.9746 12.1361 25.9564C12.1007 25.9382 12.0702 25.9118 12.0471 25.8794L9.54757 22.3802C9.50901 22.3262 9.49348 22.2591 9.50438 22.1936C9.51528 22.1281 9.55172 22.0697 9.6057 22.0311C9.65969 21.9928 9.72666 21.9774 9.79197 21.9883C9.85727 21.9992 9.91562 22.0355 9.95426 22.0892L12.4537 25.5885C12.4922 25.6425 12.5078 25.7096 12.4969 25.775C12.486 25.8405 12.4496 25.8989 12.3956 25.9375C12.3516 25.9688 12.3009 25.9839 12.2506 25.9839Z" fill="white"/>
<path d="M12.2507 25.9838C12.1944 25.9838 12.1397 25.9648 12.0955 25.9299C12.0513 25.895 12.0202 25.8461 12.0073 25.7913C11.9943 25.7365 12.0002 25.6789 12.0241 25.6279C12.0479 25.5769 12.0883 25.5354 12.1387 25.5102L15.138 24.0105C15.2616 23.9485 15.4112 23.9993 15.4734 24.1223C15.5031 24.1816 15.5079 24.2503 15.487 24.3132C15.466 24.3761 15.4209 24.4281 15.3616 24.4577L12.3622 25.9574C12.3276 25.9748 12.2894 25.9838 12.2507 25.9838ZM7.25148 11.9866C7.18926 11.9866 7.1293 11.9633 7.08328 11.9215C7.03725 11.8796 7.00847 11.8221 7.00254 11.7601C6.69354 8.45952 7.40967 5.82777 9.13123 3.93752C11.7054 1.11052 15.9511 0.517334 19.0596 0.517334C20.817 0.517334 22.0395 0.709209 22.0912 0.717021C22.145 0.725708 22.1945 0.751718 22.2323 0.791105C22.27 0.830493 22.2938 0.881108 22.3002 0.935271C22.3063 0.989343 22.2947 1.04395 22.267 1.09082C22.2394 1.13768 22.1972 1.17425 22.1469 1.19496C20.3591 1.93065 20.6491 3.71002 20.7985 4.29002C20.8564 4.28778 20.9144 4.28665 20.9723 4.28665C21.6826 4.28665 23.0222 4.45946 24.0142 5.6184C25.1033 6.89008 25.4333 8.96196 24.9949 11.7753C24.987 11.8259 24.9637 11.8729 24.9283 11.9098C24.8928 11.9467 24.8469 11.9719 24.7967 11.9818C24.7465 11.992 24.6944 11.9864 24.6475 11.9659C24.6006 11.9454 24.5611 11.9109 24.5345 11.8671L22.4485 8.45615C21.6577 8.76221 18.6964 9.83233 15.9284 9.83233C13.169 9.83233 10.2435 8.76808 9.45054 8.45858L7.46754 11.8627C7.44544 11.9004 7.41388 11.9317 7.37598 11.9534C7.33809 11.9751 7.29517 11.9866 7.25148 11.9866ZM22.5515 7.89621C22.636 7.89621 22.718 7.93964 22.7649 8.01583L24.5945 11.0074C24.8587 8.69877 24.5364 6.99696 23.6348 5.94352C22.7727 4.9369 21.5967 4.78652 20.9722 4.78652C20.7784 4.78652 20.6579 4.80165 20.65 4.80258C20.5354 4.81921 20.4187 4.7494 20.3796 4.63708C20.3708 4.61171 19.6112 2.34752 21.2598 1.12121C20.734 1.07046 19.9647 1.01721 19.0596 1.01721C16.0519 1.01721 11.9522 1.58202 9.50079 4.27383C8.01867 5.90146 7.32867 8.12996 7.44529 10.9072L9.1271 8.02014C9.15772 7.96787 9.20625 7.92847 9.26371 7.90925C9.32116 7.89003 9.38363 7.8923 9.43954 7.91565C9.47342 7.92983 12.8697 9.33233 15.9284 9.33233C18.9883 9.33233 22.4217 7.92933 22.4564 7.91514C22.4866 7.90272 22.5189 7.89629 22.5515 7.89621Z" fill="white"/>
<path d="M19.249 31.9826C19.2161 31.9827 19.1836 31.9762 19.1533 31.9637C19.123 31.9511 19.0954 31.9327 19.0722 31.9095C19.049 31.8863 19.0306 31.8587 19.018 31.8284C19.0054 31.7981 18.999 31.7655 18.999 31.7327V28.7333C18.999 28.7005 19.0055 28.668 19.018 28.6377C19.0306 28.6073 19.049 28.5798 19.0722 28.5566C19.0954 28.5334 19.123 28.5149 19.1533 28.5024C19.1836 28.4898 19.2161 28.4834 19.249 28.4834H21.7485C21.7813 28.4834 21.8138 28.4898 21.8441 28.5024C21.8745 28.5149 21.902 28.5334 21.9252 28.5566C21.9484 28.5798 21.9669 28.6073 21.9794 28.6377C21.992 28.668 21.9984 28.7005 21.9984 28.7333C21.9984 28.8715 21.8866 28.9833 21.7485 28.9833H19.4989V31.7327C19.4989 31.7655 19.4925 31.7981 19.4799 31.8284C19.4674 31.8587 19.449 31.8863 19.4257 31.9095C19.4025 31.9327 19.375 31.9511 19.3446 31.9637C19.3143 31.9762 19.2818 31.9827 19.249 31.9826Z" fill="white"/>
<path d="M26.2474 31.9826C26.2146 31.9827 26.1821 31.9762 26.1518 31.9637C26.1214 31.9511 26.0939 31.9327 26.0707 31.9095C26.0474 31.8863 26.029 31.8587 26.0165 31.8284C26.0039 31.798 25.9975 31.7655 25.9975 31.7327V28.9833H23.748C23.7152 28.9834 23.6826 28.9769 23.6523 28.9643C23.622 28.9518 23.5944 28.9334 23.5712 28.9101C23.548 28.8869 23.5296 28.8594 23.517 28.829C23.5045 28.7987 23.498 28.7662 23.498 28.7333C23.498 28.7005 23.5045 28.668 23.517 28.6377C23.5296 28.6073 23.548 28.5798 23.5712 28.5566C23.5944 28.5334 23.622 28.5149 23.6523 28.5024C23.6826 28.4898 23.7152 28.4834 23.748 28.4834H26.2474C26.3856 28.4834 26.4974 28.5952 26.4974 28.7333V31.7327C26.4974 31.7655 26.491 31.7981 26.4784 31.8284C26.4659 31.8587 26.4474 31.8863 26.4242 31.9095C26.401 31.9327 26.3734 31.9511 26.3431 31.9637C26.3128 31.9762 26.2803 31.9827 26.2474 31.9826Z" fill="white"/>
<path d="M23.2487 28.9831H22.249C22.2161 28.9832 22.1836 28.9767 22.1533 28.9642C22.1229 28.9516 22.0954 28.9332 22.0722 28.91C22.049 28.8867 22.0305 28.8592 22.018 28.8288C22.0054 28.7985 21.999 28.766 21.999 28.7331V27.7334C21.999 27.5952 22.1108 27.4834 22.249 27.4834H23.2487C23.3869 27.4834 23.4987 27.5952 23.4987 27.7334V28.7331C23.4987 28.8713 23.3869 28.9831 23.2487 28.9831ZM22.4989 28.4832H22.9988V27.9833H22.4989V28.4832Z" fill="white"/>
<path d="M22.249 29.2333C22.2161 29.2333 22.1836 29.2268 22.1533 29.2143C22.123 29.2017 22.0954 29.1833 22.0722 29.1601C22.049 29.1369 22.0306 29.1093 22.018 29.079C22.0055 29.0487 21.999 29.0162 21.999 28.9833V28.7333C21.999 28.5952 22.1108 28.4834 22.249 28.4834C22.3871 28.4834 22.4989 28.5952 22.4989 28.7333V28.9833C22.4989 29.0162 22.4925 29.0487 22.4799 29.079C22.4674 29.1093 22.449 29.1369 22.4257 29.1601C22.4025 29.1833 22.375 29.2017 22.3446 29.2143C22.3143 29.2269 22.2818 29.2333 22.249 29.2333Z" fill="white"/>
<path d="M23.2489 29.2333C23.2161 29.2333 23.1836 29.2268 23.1532 29.2143C23.1229 29.2017 23.0954 29.1833 23.0722 29.1601C23.0489 29.1369 23.0305 29.1093 23.018 29.079C23.0054 29.0487 22.999 29.0162 22.999 28.9833V28.7333C22.999 28.7005 23.0054 28.668 23.018 28.6377C23.0305 28.6073 23.0489 28.5798 23.0722 28.5566C23.0954 28.5334 23.1229 28.5149 23.1532 28.5024C23.1836 28.4898 23.2161 28.4834 23.2489 28.4834C23.3871 28.4834 23.4989 28.5952 23.4989 28.7333V28.9833C23.4989 29.0162 23.4925 29.0487 23.4799 29.079C23.4673 29.1094 23.4489 29.1369 23.4257 29.1601C23.4025 29.1833 23.3749 29.2017 23.3446 29.2143C23.3142 29.2269 23.2817 29.2333 23.2489 29.2333Z" fill="white"/>
<path d="M24.7481 30.483H20.749C20.7161 30.483 20.6836 30.4766 20.6533 30.464C20.623 30.4515 20.5954 30.4331 20.5722 30.4099C20.549 30.3866 20.5306 30.3591 20.518 30.3288C20.5055 30.2984 20.499 30.2659 20.499 30.2331C20.499 30.2003 20.5055 30.1678 20.518 30.1374C20.5306 30.1071 20.549 30.0795 20.5722 30.0563C20.5954 30.0331 20.623 30.0147 20.6533 30.0021C20.6836 29.9896 20.7161 29.9831 20.749 29.9832H24.7481C24.781 29.9831 24.8135 29.9896 24.8438 30.0021C24.8741 30.0147 24.9017 30.0331 24.9249 30.0563C24.9481 30.0795 24.9665 30.1071 24.9791 30.1374C24.9916 30.1678 24.998 30.2003 24.998 30.2331C24.998 30.2659 24.9916 30.2984 24.9791 30.3288C24.9665 30.3591 24.9481 30.3866 24.9249 30.4099C24.9017 30.4331 24.8741 30.4515 24.8438 30.464C24.8135 30.4766 24.781 30.483 24.7481 30.483Z" fill="white"/>
<path d="M23.7486 31.4828H21.749C21.6108 31.4828 21.499 31.371 21.499 31.2328C21.499 31.0947 21.6108 30.9829 21.749 30.9829H23.7486C23.8867 30.9829 23.9985 31.0947 23.9985 31.2328C23.9985 31.371 23.8867 31.4828 23.7486 31.4828Z" fill="white"/>
</g>
<defs>
<clipPath id="clip0_1714_3025">
<rect width="32" height="32" fill="white" transform="translate(0 0.5)"/>
</clipPath>
</defs>
</svg>
