<svg width="64" height="64" viewBox="0 0 64 64" fill="none" xmlns="http://www.w3.org/2000/svg">
<g clip-path="url(#clip0_1890_7896)">
<path d="M53.3333 52.2667C53.3333 52.8555 52.8555 53.3333 52.2667 53.3333C51.6779 53.3333 51.2 52.8555 51.2 52.2667C51.2 51.6779 51.6779 51.2 52.2667 51.2C52.8555 51.2 53.3333 51.6779 53.3333 52.2667ZM50.1333 25.6H54.4C54.9909 25.6 55.4667 26.0757 55.4667 26.6667C55.4667 27.2576 54.9909 27.7333 54.4 27.7333H50.1333C49.5424 27.7333 49.0667 27.2576 49.0667 26.6667C49.0667 26.0757 49.5424 25.6 50.1333 25.6ZM43.7333 21.3333C41.9797 21.3333 40.5333 22.7797 40.5333 24.5333V54.4C40.5333 56.1536 41.9797 57.6 43.7333 57.6H60.8C62.5536 57.6 64 56.1536 64 54.4V24.5333C64 22.7797 62.5536 21.3333 60.8 21.3333H43.7333ZM43.7333 23.4667H60.8C61.4101 23.4667 61.8667 23.9232 61.8667 24.5333V54.4C61.8667 55.0101 61.4101 55.4667 60.8 55.4667H43.7333C43.1232 55.4667 42.6667 55.0101 42.6667 54.4V24.5333C42.6667 23.9232 43.1232 23.4667 43.7333 23.4667ZM29.8667 41.6C29.8667 42.1888 29.3888 42.6667 28.8 42.6667C28.2112 42.6667 27.7333 42.1888 27.7333 41.6C27.7333 41.0112 28.2112 40.5333 28.8 40.5333C29.3888 40.5333 29.8667 41.0112 29.8667 41.6ZM3.2 6.39999C1.4464 6.39999 0 7.84639 0 9.59999V43.7333C0 45.4869 1.4464 46.9333 3.2 46.9333H23.4667V51.2H20.2667C19.6757 51.2 19.2 51.6757 19.2 52.2667C19.2 52.8576 19.6757 53.3333 20.2667 53.3333H37.3333C37.9243 53.3333 38.4 52.8576 38.4 52.2667C38.4 51.6757 37.9243 51.2 37.3333 51.2H34.1333V46.9333H37.3333C38.7584 46.9333 38.7328 44.8 37.3333 44.8H3.2C2.58987 44.8 2.13333 44.3435 2.13333 43.7333V38.4H37.3333C37.9243 38.4 38.4 37.9243 38.4 37.3333C38.4 36.7424 37.9243 36.2667 37.3333 36.2667H2.13333V9.59999C2.13333 8.98986 2.58987 8.53333 3.2 8.53333H54.4C55.0101 8.53333 55.4667 8.98986 55.4667 9.59999V18.1333C55.4667 19.552 57.6 19.5349 57.6 18.1333V9.59999C57.6 7.84639 56.1536 6.39999 54.4 6.39999H3.2ZM25.6 46.9333H32V51.2H25.6V46.9333Z" fill="#777777"/>
</g>
<defs>
<clipPath id="clip0_1890_7896">
<rect width="64" height="64" fill="white"/>
</clipPath>
</defs>
</svg>
