<svg width="64" height="61" viewBox="0 0 64 61" fill="none" xmlns="http://www.w3.org/2000/svg">
<path d="M26.4007 52.3308C26.3946 52.329 26.3885 52.3274 26.3824 52.3258L22.6561 51.358C22.3402 51.2651 22.0907 51.1015 22.0369 51.0161L22.0344 48.9893C22.0375 48.9855 22.0407 48.9821 22.0439 48.9785C23.3215 47.4515 24.0251 45.4729 24.0251 43.4073V41.8978C25.2997 37.7454 24.4015 34.1453 23.9405 33.0975C23.939 33.094 23.937 33.0908 23.9354 33.0873C23.9265 33.0678 23.9167 33.0489 23.9067 33.0301C23.9009 33.0191 23.8953 33.0079 23.8891 32.9971C23.8795 32.9806 23.869 32.9649 23.8585 32.949C23.8504 32.9368 23.8426 32.9242 23.834 32.9125C23.8249 32.9 23.815 32.8881 23.8052 32.876C23.7941 32.8621 23.7832 32.848 23.7715 32.8349C23.7634 32.8257 23.7545 32.8173 23.746 32.8084C23.7319 32.7938 23.7179 32.779 23.703 32.7653C23.695 32.7579 23.6865 32.7513 23.6784 32.7443C23.6622 32.7304 23.6462 32.7164 23.6294 32.7036C23.6201 32.6966 23.6104 32.6904 23.6009 32.6836C23.5844 32.6721 23.5681 32.6604 23.551 32.6498C23.539 32.6423 23.5264 32.6359 23.5141 32.6289C23.499 32.6204 23.484 32.6116 23.4684 32.6039C23.453 32.5963 23.4372 32.5899 23.4215 32.583C23.4081 32.5773 23.3949 32.571 23.3812 32.5659C23.364 32.5593 23.3464 32.5539 23.3287 32.5482C23.3158 32.5441 23.303 32.5395 23.2899 32.5359C23.2729 32.5311 23.2554 32.5276 23.238 32.5239C23.2235 32.5208 23.2091 32.5171 23.1945 32.5146C23.1792 32.512 23.1637 32.5105 23.1484 32.5085C23.1309 32.5063 23.1134 32.504 23.0956 32.5028C23.0829 32.5019 23.0699 32.5019 23.057 32.5014C23.0362 32.5007 23.0156 32.5001 22.9947 32.5008C22.9836 32.5011 22.9725 32.5021 22.9612 32.5029C22.9389 32.5044 22.9166 32.506 22.8942 32.509C22.8906 32.5094 22.8871 32.5094 22.8836 32.5099C21.92 32.6479 20.7444 32.3662 19.4999 32.0682C17.2986 31.5411 14.8156 30.948 12.6405 32.5163C10.5372 32.697 9.04587 34.4645 9.04587 36.8535C9.04587 38.5908 9.852 41.6936 10.0367 42.3821V43.2173C10.0367 45.3734 10.7829 47.3664 11.979 48.853L11.9762 51.0181C11.9225 51.1036 11.6729 51.2671 11.357 51.3601L7.63087 52.3279C7.62475 52.3295 7.61862 52.3311 7.6125 52.3329C5.241 52.9974 4 55.3226 4 57.276V58.356C4 59.5383 5.03462 60.5 6.3065 60.5L16.9835 60.4989C16.9912 60.499 16.9989 60.5 17.0067 60.5C17.0146 60.5 17.0222 60.499 17.0301 60.4989L27.7072 60.4976C28.979 60.4976 30.0136 59.5359 30.0136 58.3538V57.2738C30.0134 55.3204 28.7725 52.9951 26.4007 52.3308ZM17.0109 54.3364L13.543 52.2556C13.8074 51.9211 13.9764 51.5148 13.9764 51.033L13.9769 50.6034C14.9019 51.1486 15.9355 51.4584 17.0176 51.4584C18.0799 51.4584 19.105 51.1834 20.0364 50.6629L20.0369 51.0295C20.0369 51.5254 20.2156 51.9411 20.4931 52.2811L17.0109 54.3364ZM12.037 42.8759C12.037 41.8819 12.4576 40.4284 12.772 39.5089C17.3029 39.6129 20.7216 40.701 22.0252 41.1835V41.7385C22.0252 41.7415 22.0252 41.7446 22.0252 41.7476V43.407C22.0252 45.17 21.3621 46.7853 20.3279 47.9029C20.3255 47.9053 20.3234 47.9076 20.3211 47.91C19.432 48.8675 18.27 49.4583 17.0177 49.4583C14.3644 49.4583 12.037 46.5419 12.037 43.2173V42.8759ZM12.999 34.5C13.006 34.5 13.0127 34.4991 13.0197 34.499C13.0455 34.4985 13.0711 34.4976 13.0967 34.4951C13.1094 34.4939 13.1216 34.4916 13.1341 34.4899C13.154 34.4873 13.174 34.4846 13.1937 34.4808C13.2084 34.4779 13.2225 34.4739 13.2369 34.4704C13.2541 34.4661 13.2715 34.4623 13.2886 34.4571C13.304 34.4525 13.3187 34.4468 13.3337 34.4415C13.3494 34.436 13.3651 34.4308 13.3805 34.4244C13.3964 34.4179 13.4117 34.4101 13.4271 34.4029C13.4411 34.3963 13.4551 34.39 13.4689 34.3828C13.486 34.3736 13.5024 34.3634 13.5187 34.3533C13.5301 34.3463 13.5419 34.3399 13.553 34.3324C13.5731 34.319 13.5924 34.3041 13.6115 34.2894C13.6181 34.2843 13.625 34.2799 13.6315 34.2746C15.1029 33.0724 17.0124 33.5295 19.034 34.0135C20.1222 34.274 21.2396 34.541 22.3246 34.545C22.5854 35.5084 22.8417 37.2155 22.5664 39.2489C20.9391 38.6559 17.1201 37.5 12.0759 37.5C12.0734 37.5 12.0711 37.5004 12.0686 37.5004C12.0454 37.5005 12.0224 37.5021 11.9994 37.5039C11.9886 37.5048 11.9777 37.505 11.9671 37.5063C11.9481 37.5084 11.9294 37.5116 11.9106 37.5149C11.8962 37.5174 11.8816 37.5193 11.8674 37.5223C11.8544 37.525 11.8417 37.5289 11.8289 37.5323C11.8096 37.5371 11.7902 37.5418 11.7715 37.5478C11.7642 37.5501 11.7574 37.553 11.7502 37.5556C11.7267 37.5638 11.7034 37.572 11.6806 37.5818C11.6759 37.5838 11.6715 37.5864 11.6667 37.5884C11.6424 37.5994 11.6182 37.6108 11.5949 37.6236C11.5861 37.6284 11.578 37.634 11.5694 37.6391C11.5507 37.6501 11.532 37.6609 11.5141 37.673C11.4974 37.6844 11.4815 37.697 11.4654 37.7095C11.4565 37.7164 11.4471 37.7226 11.4385 37.7298C11.4185 37.7463 11.3995 37.7641 11.3807 37.7821C11.3766 37.7863 11.372 37.7899 11.3679 37.794C11.3507 37.8111 11.3346 37.8296 11.3186 37.8481C11.3134 37.8541 11.3077 37.8598 11.3027 37.866C11.2904 37.8811 11.279 37.8973 11.2674 37.9133C11.2595 37.924 11.2512 37.9345 11.2439 37.9456C11.2357 37.9578 11.2286 37.9708 11.221 37.9833C11.2111 37.9995 11.2011 38.0155 11.1922 38.0324C11.1871 38.042 11.1828 38.0523 11.178 38.062C11.1714 38.0755 11.1645 38.0888 11.1585 38.1026C11.0894 37.6311 11.046 37.1976 11.046 36.8539C11.0461 35.7679 11.5575 34.5 12.999 34.5ZM6.30637 58.5C6.10212 58.5 6 58.3836 6 58.3561V57.2761C6 56.0789 6.73638 54.6605 8.14375 54.2614L11.5319 53.3815L16.0066 56.0664V58.4991L6.30637 58.5ZM28.0134 58.3538C28.0134 58.3813 27.9112 58.4976 27.7069 58.4976L18.0066 58.4988V56.071L22.5415 53.3945L25.8696 54.2589C27.277 54.658 28.0132 56.0764 28.0132 57.2736L28.0134 58.3538Z" fill="#AAAAAA"/>
<path d="M56.4007 52.3307C56.3946 52.329 56.3885 52.3274 56.3824 52.3257L52.6561 51.358C52.3403 51.2651 52.0908 51.1015 52.0369 51.0161L52.0344 48.9892C52.0375 48.9855 52.0408 48.9821 52.0439 48.9785C53.3215 47.4515 54.0251 45.4729 54.0251 43.4072V41.8977C55.2997 37.7454 54.4015 34.1452 53.9405 33.0975C53.939 33.094 53.937 33.0909 53.9355 33.0875C53.9265 33.0677 53.9166 33.0485 53.9064 33.0295C53.9006 33.0189 53.8953 33.008 53.8893 32.9976C53.8794 32.9807 53.8688 32.9645 53.858 32.9482C53.8501 32.9364 53.8425 32.9244 53.8343 32.9129C53.8249 32.9 53.8147 32.8877 53.8047 32.8754C53.7939 32.8619 53.7833 32.8481 53.7718 32.8352C53.7633 32.8257 53.7542 32.817 53.7455 32.8079C53.7316 32.7935 53.7179 32.779 53.7033 32.7655C53.6951 32.7579 53.6864 32.7511 53.678 32.7439C53.6621 32.7302 53.6463 32.7165 53.6295 32.7039C53.6201 32.6967 53.6102 32.6905 53.6006 32.6836C53.5842 32.6721 53.568 32.6605 53.551 32.65C53.539 32.6425 53.5264 32.6361 53.514 32.6291C53.4989 32.6206 53.4839 32.6119 53.4683 32.6041C53.453 32.5965 53.4374 32.5901 53.4217 32.5834C53.4082 32.5775 53.3949 32.5712 53.3811 32.566C53.3641 32.5595 53.3465 32.5541 53.3291 32.5486C53.316 32.5444 53.3031 32.5397 53.2897 32.5361C53.2729 32.5315 53.2555 32.528 53.2383 32.5242C53.2236 32.521 53.2091 32.5175 53.1942 32.5149C53.1791 32.5122 53.1638 32.5107 53.1484 32.5089C53.1308 32.5066 53.1133 32.5042 53.0954 32.503C53.0826 32.5021 53.0697 32.5021 53.0569 32.5016C53.0361 32.501 53.0155 32.5004 52.9946 32.501C52.9835 32.5014 52.9722 32.5024 52.9611 32.5031C52.9389 32.5046 52.9165 32.5062 52.8942 32.5092C52.8906 32.5097 52.8871 32.5097 52.8836 32.5102C51.9201 32.6482 50.7444 32.3666 49.4999 32.0686C47.2986 31.5415 44.8156 30.9484 42.6405 32.5166C40.5372 32.6974 39.0459 34.4649 39.0459 36.8539C39.0459 38.5911 39.852 41.694 40.0368 42.3825V43.2176C40.0368 45.3737 40.7829 47.3667 41.979 48.8534L41.9762 51.0185C41.9225 51.104 41.6729 51.2675 41.357 51.3605L37.6309 52.3282C37.6247 52.3299 37.6186 52.3315 37.6125 52.3332C35.241 52.9974 34 55.3226 34 57.276V58.356C34 59.5381 35.0346 60.4999 36.3065 60.4999L46.9835 60.4987C46.9913 60.4989 46.9989 60.4999 47.0067 60.4999C47.0146 60.4999 47.0222 60.4989 47.0301 60.4987L57.7072 60.4975C58.979 60.4975 60.0136 59.5357 60.0136 58.3536V57.2736C60.0134 55.3204 58.7725 52.9951 56.4007 52.3307ZM47.0109 54.3364L43.543 52.2556C43.8074 51.9211 43.9764 51.5147 43.9764 51.033L43.9769 50.6034C44.9019 51.1486 45.9355 51.4584 47.0176 51.4584C48.0799 51.4584 49.105 51.1834 50.0364 50.6629L50.0369 51.0295C50.0369 51.5254 50.2156 51.9411 50.4931 52.2811L47.0109 54.3364ZM42.037 42.8759C42.037 41.8819 42.4576 40.4284 42.772 39.5089C47.3029 39.6129 50.7216 40.701 52.0252 41.1835V41.7385C52.0252 41.7415 52.0252 41.7446 52.0252 41.7476V43.407C52.0252 45.17 51.3621 46.7852 50.3279 47.9029C50.3255 47.9052 50.3234 47.9076 50.3211 47.91C49.432 48.8675 48.27 49.4582 47.0177 49.4582C44.3644 49.4582 42.037 46.5419 42.037 43.2172V42.8759ZM42.999 34.5C43.0059 34.5 43.0126 34.4991 43.0195 34.499C43.0453 34.4985 43.071 34.4976 43.0966 34.4951C43.1091 34.4939 43.1214 34.4916 43.1338 34.4899C43.1538 34.4872 43.1739 34.4846 43.1937 34.4807C43.2082 34.4779 43.2222 34.474 43.2364 34.4705C43.2539 34.4662 43.2714 34.4622 43.2886 34.4571C43.3037 34.4525 43.3185 34.4469 43.3332 34.4416C43.3491 34.436 43.365 34.4307 43.3806 34.4242C43.3964 34.4177 43.4114 34.4101 43.4268 34.4029C43.4409 34.3961 43.4551 34.3899 43.4691 34.3825C43.486 34.3735 43.5021 34.3634 43.5184 34.3534C43.53 34.3462 43.5419 34.3397 43.5532 34.3322C43.5734 34.3189 43.5924 34.3041 43.6115 34.2894C43.6181 34.2841 43.6251 34.2797 43.6317 34.2745C45.1031 33.0722 47.0126 33.5294 49.0342 34.0134C50.1225 34.2739 51.2399 34.5409 52.3249 34.5449C52.5856 35.5082 52.842 37.2154 52.5666 39.2487C50.939 38.6559 47.12 37.5 42.0759 37.5C42.0734 37.5 42.0711 37.5004 42.0686 37.5004C42.0454 37.5005 42.0224 37.5021 41.9994 37.5039C41.9886 37.5047 41.9777 37.505 41.9671 37.5062C41.9481 37.5084 41.9294 37.5116 41.9106 37.5149C41.8963 37.5174 41.8816 37.5192 41.8674 37.5222C41.8544 37.525 41.8418 37.5289 41.8289 37.5322C41.8096 37.5371 41.7902 37.5417 41.7715 37.5477C41.7642 37.5501 41.7574 37.553 41.7503 37.5556C41.7268 37.5637 41.7033 37.572 41.6806 37.5817C41.6759 37.5837 41.6714 37.5864 41.6668 37.5884C41.6424 37.5994 41.6183 37.6107 41.5949 37.6236C41.5861 37.6284 41.578 37.634 41.5694 37.6391C41.5507 37.6501 41.532 37.6609 41.5141 37.673C41.4974 37.6844 41.4815 37.697 41.4654 37.7095C41.4565 37.7164 41.4471 37.7226 41.4385 37.7297C41.4185 37.7462 41.3995 37.7641 41.3807 37.7821C41.3766 37.7862 41.372 37.7899 41.3679 37.794C41.3507 37.8111 41.3346 37.8296 41.3187 37.8481C41.3135 37.8541 41.3079 37.8597 41.3029 37.866C41.2905 37.8811 41.2791 37.8972 41.2675 37.9132C41.2596 37.924 41.2514 37.9345 41.244 37.9456C41.2359 37.9577 41.2288 37.9707 41.2211 37.9832C41.2113 37.9995 41.2013 38.0155 41.1924 38.0324C41.1873 38.042 41.1829 38.0522 41.1781 38.062C41.1715 38.0755 41.1646 38.0887 41.1586 38.1026C41.0895 37.6311 41.0461 37.1976 41.0461 36.8539C41.0461 35.7679 41.5575 34.5 42.999 34.5ZM36.3064 58.5C36.1021 58.5 36 58.3836 36 58.3561V57.2761C36 56.0789 36.7364 54.6605 38.1437 54.2614L41.5319 53.3815L46.0066 56.0664V58.4991L36.3064 58.5ZM58.0134 58.3537C58.0134 58.3812 57.9112 58.4976 57.7069 58.4976L48.0066 58.4987V56.071L52.5415 53.3945L55.8698 54.2589C57.2771 54.658 58.0134 56.0764 58.0134 57.2736V58.3537Z" fill="#AAAAAA"/>
<path d="M59 4.5H39C38.4477 4.5 38 4.94775 38 5.5C38 6.05225 38.4477 6.5 39 6.5H59C60.6542 6.5 62 7.84588 62 9.5V23.5C62 25.1541 60.6542 26.5 59 26.5H38C37.4477 26.5 37 26.9478 37 27.5V30.0859L33.7071 26.793C33.3166 26.4024 32.6835 26.4024 32.293 26.793C31.9023 27.1835 31.9023 27.8166 32.293 28.2071L37.293 33.2071C37.4842 33.3985 37.74 33.5 38.0003 33.5C38.1291 33.5 38.2591 33.4751 38.3828 33.4239C38.7565 33.2691 39.0001 32.9044 39.0001 32.5V28.5H59.0001C61.7571 28.5 64.0001 26.257 64.0001 23.5V9.5C64 6.743 61.757 4.5 59 4.5Z" fill="#AAAAAA"/>
<path d="M36 19.5V5.5C36 2.743 33.757 0.5 31 0.5H5C2.243 0.5 0 2.743 0 5.5V19.5C0 22.257 2.243 24.5 5 24.5H19V28.5C19 28.9044 19.2436 29.2691 19.6173 29.4239C19.741 29.4751 19.8709 29.5 19.9998 29.5C20.26 29.5 20.5157 29.3984 20.7071 29.2071L25.4141 24.5H31C33.757 24.5 36 22.257 36 19.5ZM34 19.5C34 21.1541 32.6541 22.5 31 22.5H25C24.7348 22.5 24.4804 22.6054 24.2929 22.7929L21 26.0859V23.5C21 22.9478 20.5522 22.5 20 22.5H5C3.34588 22.5 2 21.1541 2 19.5V5.5C2 3.84588 3.34588 2.5 5 2.5H31C32.6541 2.5 34 3.84588 34 5.5V19.5Z" fill="#AAAAAA"/>
<path d="M6 7.5H9C9.55225 7.5 10 7.05225 10 6.5C10 5.94775 9.55225 5.5 9 5.5H6C5.44775 5.5 5 5.94775 5 6.5C5 7.05225 5.44775 7.5 6 7.5Z" fill="#AAAAAA"/>
<path d="M30 5.5H13C12.4477 5.5 12 5.94775 12 6.5C12 7.05225 12.4477 7.5 13 7.5H30C30.5522 7.5 31 7.05225 31 6.5C31 5.94775 30.5522 5.5 30 5.5Z" fill="#AAAAAA"/>
<path d="M30 9.5H6C5.44775 9.5 5 9.94775 5 10.5C5 11.0523 5.44775 11.5 6 11.5H30C30.5522 11.5 31 11.0523 31 10.5C31 9.94775 30.5522 9.5 30 9.5Z" fill="#AAAAAA"/>
<path d="M30 13.5H27C26.4477 13.5 26 13.9477 26 14.5C26 15.0523 26.4477 15.5 27 15.5H30C30.5522 15.5 31 15.0523 31 14.5C31 13.9477 30.5522 13.5 30 13.5Z" fill="#AAAAAA"/>
<path d="M6 15.5H23C23.5522 15.5 24 15.0523 24 14.5C24 13.9477 23.5522 13.5 23 13.5H6C5.44775 13.5 5 13.9477 5 14.5C5 15.0523 5.44775 15.5 6 15.5Z" fill="#AAAAAA"/>
<path d="M30 17.5H6C5.44775 17.5 5 17.9477 5 18.5C5 19.0523 5.44775 19.5 6 19.5H30C30.5522 19.5 31 19.0523 31 18.5C31 17.9477 30.5522 17.5 30 17.5Z" fill="#AAAAAA"/>
<path d="M39 11.5H42C42.5522 11.5 43 11.0523 43 10.5C43 9.94775 42.5522 9.5 42 9.5H39C38.4477 9.5 38 9.94775 38 10.5C38 11.0523 38.4477 11.5 39 11.5Z" fill="#AAAAAA"/>
<path d="M58 11.5C58.5522 11.5 59 11.0523 59 10.5C59 9.94775 58.5522 9.5 58 9.5H46C45.4477 9.5 45 9.94775 45 10.5C45 11.0523 45.4477 11.5 46 11.5H58Z" fill="#AAAAAA"/>
<path d="M39 15.5H58C58.5522 15.5 59 15.0523 59 14.5C59 13.9477 58.5522 13.5 58 13.5H39C38.4477 13.5 38 13.9477 38 14.5C38 15.0523 38.4477 15.5 39 15.5Z" fill="#AAAAAA"/>
<path d="M58 17.5H55C54.4477 17.5 54 17.9477 54 18.5C54 19.0523 54.4477 19.5 55 19.5H58C58.5522 19.5 59 19.0523 59 18.5C59 17.9477 58.5522 17.5 58 17.5Z" fill="#AAAAAA"/>
<path d="M39 19.5H51C51.5522 19.5 52 19.0523 52 18.5C52 17.9477 51.5522 17.5 51 17.5H39C38.4477 17.5 38 17.9477 38 18.5C38 19.0523 38.4477 19.5 39 19.5Z" fill="#AAAAAA"/>
<path d="M39 23.5H58C58.5522 23.5 59 23.0523 59 22.5C59 21.9477 58.5522 21.5 58 21.5H39C38.4477 21.5 38 21.9477 38 22.5C38 23.0523 38.4477 23.5 39 23.5Z" fill="#AAAAAA"/>
</svg>
