<svg width="14" height="13" viewBox="0 0 14 13" fill="none" xmlns="http://www.w3.org/2000/svg">
<mask id="path-1-inside-1_2073_58732" fill="white">
<path d="M13.2898 1.173C13.1865 1.08373 13.0607 1.02445 12.9261 1.00159C12.7915 0.978724 12.6532 0.99315 12.5262 1.0433L0.991367 5.57486C0.840579 5.63409 0.713027 5.74056 0.627797 5.87833C0.542568 6.01611 0.504243 6.17778 0.51856 6.33915C0.532876 6.50052 0.599063 6.65292 0.707216 6.77353C0.815369 6.89415 0.959673 6.9765 1.11853 7.00827L4.24942 7.63449V11.4991C4.24786 11.6477 4.29122 11.7934 4.37383 11.917C4.45643 12.0407 4.57444 12.1365 4.7124 12.1919C4.80483 12.2306 4.90399 12.2507 5.00418 12.2509C5.1021 12.2506 5.19898 12.2309 5.2892 12.1928C5.37942 12.1548 5.46119 12.0992 5.52976 12.0293L7.31702 10.2421L9.9541 12.5627C10.09 12.6834 10.2654 12.7501 10.4471 12.7503C10.5261 12.7502 10.6046 12.7378 10.6798 12.7134C10.8037 12.6741 10.9152 12.603 11.0031 12.5071C11.091 12.4113 11.1522 12.2941 11.1806 12.1672L13.5315 1.9089C13.5622 1.77586 13.5559 1.63696 13.5133 1.50725C13.4707 1.37753 13.3934 1.26194 13.2898 1.173ZM1.0166 6.29495C1.01039 6.24094 1.02256 6.18642 1.05117 6.14019C1.07977 6.09396 1.12313 6.05873 1.17423 6.04019L11.7477 1.8863L4.44144 7.16301L1.21659 6.51803C1.16302 6.50877 1.11414 6.48171 1.07785 6.44123C1.04156 6.40074 1.01998 6.34921 1.0166 6.29495ZM5.17618 11.6758C5.14122 11.7108 5.09668 11.7346 5.04818 11.7442C4.99969 11.7539 4.94943 11.7489 4.90375 11.73C4.85807 11.7111 4.81903 11.679 4.79156 11.6379C4.76409 11.5968 4.74942 11.5485 4.74942 11.4991V7.98256L6.94092 9.9111L5.17618 11.6758ZM13.0441 1.79721L10.6932 12.0555C10.6836 12.0977 10.6631 12.1367 10.6338 12.1686C10.6045 12.2005 10.5675 12.2243 10.5263 12.2376C10.4851 12.2509 10.4411 12.2532 10.3987 12.2444C10.3563 12.2356 10.3169 12.216 10.2844 12.1873L4.89975 7.44882L13.0037 1.59601C13.025 1.6244 13.0397 1.65721 13.0467 1.69203C13.0537 1.72684 13.0528 1.76278 13.0441 1.79721Z"/>
</mask>
<path d="M13.2898 1.173C13.1865 1.08373 13.0607 1.02445 12.9261 1.00159C12.7915 0.978724 12.6532 0.99315 12.5262 1.0433L0.991367 5.57486C0.840579 5.63409 0.713027 5.74056 0.627797 5.87833C0.542568 6.01611 0.504243 6.17778 0.51856 6.33915C0.532876 6.50052 0.599063 6.65292 0.707216 6.77353C0.815369 6.89415 0.959673 6.9765 1.11853 7.00827L4.24942 7.63449V11.4991C4.24786 11.6477 4.29122 11.7934 4.37383 11.917C4.45643 12.0407 4.57444 12.1365 4.7124 12.1919C4.80483 12.2306 4.90399 12.2507 5.00418 12.2509C5.1021 12.2506 5.19898 12.2309 5.2892 12.1928C5.37942 12.1548 5.46119 12.0992 5.52976 12.0293L7.31702 10.2421L9.9541 12.5627C10.09 12.6834 10.2654 12.7501 10.4471 12.7503C10.5261 12.7502 10.6046 12.7378 10.6798 12.7134C10.8037 12.6741 10.9152 12.603 11.0031 12.5071C11.091 12.4113 11.1522 12.2941 11.1806 12.1672L13.5315 1.9089C13.5622 1.77586 13.5559 1.63696 13.5133 1.50725C13.4707 1.37753 13.3934 1.26194 13.2898 1.173ZM1.0166 6.29495C1.01039 6.24094 1.02256 6.18642 1.05117 6.14019C1.07977 6.09396 1.12313 6.05873 1.17423 6.04019L11.7477 1.8863L4.44144 7.16301L1.21659 6.51803C1.16302 6.50877 1.11414 6.48171 1.07785 6.44123C1.04156 6.40074 1.01998 6.34921 1.0166 6.29495ZM5.17618 11.6758C5.14122 11.7108 5.09668 11.7346 5.04818 11.7442C4.99969 11.7539 4.94943 11.7489 4.90375 11.73C4.85807 11.7111 4.81903 11.679 4.79156 11.6379C4.76409 11.5968 4.74942 11.5485 4.74942 11.4991V7.98256L6.94092 9.9111L5.17618 11.6758ZM13.0441 1.79721L10.6932 12.0555C10.6836 12.0977 10.6631 12.1367 10.6338 12.1686C10.6045 12.2005 10.5675 12.2243 10.5263 12.2376C10.4851 12.2509 10.4411 12.2532 10.3987 12.2444C10.3563 12.2356 10.3169 12.216 10.2844 12.1873L4.89975 7.44882L13.0037 1.59601C13.025 1.6244 13.0397 1.65721 13.0467 1.69203C13.0537 1.72684 13.0528 1.76278 13.0441 1.79721Z" fill="#777777"/>
<path d="M13.2898 1.173L11.9822 2.68633L11.987 2.69043L13.2898 1.173ZM12.5262 1.0433L13.2575 2.90481L13.2608 2.9035L12.5262 1.0433ZM0.991367 5.57486L1.72263 7.43637L1.72267 7.43636L0.991367 5.57486ZM1.11853 7.00827L1.51079 5.04711L1.51067 5.04709L1.11853 7.00827ZM4.24942 7.63449H6.24942V5.9949L4.64168 5.67333L4.24942 7.63449ZM4.24942 11.4991L6.24931 11.5201L6.24942 11.5096V11.4991H4.24942ZM4.7124 12.1919L5.48483 10.3471L5.47156 10.3415L5.45821 10.3362L4.7124 12.1919ZM5.00418 12.2509L4.99888 14.251L5.01045 14.2509L5.00418 12.2509ZM5.52976 12.0293L4.11554 10.6151L4.10878 10.6219L4.10209 10.6287L5.52976 12.0293ZM7.31702 10.2421L8.63828 8.74064L7.22963 7.50102L5.90281 8.82785L7.31702 10.2421ZM9.9541 12.5627L11.2822 11.0673L11.2754 11.0613L9.9541 12.5627ZM10.4471 12.7503L10.445 14.7503L10.4494 14.7503L10.4471 12.7503ZM10.6798 12.7134L10.0752 10.8069L10.0628 10.811L10.6798 12.7134ZM11.1806 12.1672L9.23112 11.7204L9.22901 11.7298L11.1806 12.1672ZM13.5315 1.9089L11.5827 1.45931L11.582 1.46215L13.5315 1.9089ZM1.0166 6.29495L3.01274 6.17066L3.00948 6.11829L3.00348 6.06617L1.0166 6.29495ZM1.17423 6.04019L1.8563 7.92029L1.88104 7.91131L1.90554 7.90169L1.17423 6.04019ZM11.7477 1.8863L12.9187 3.50767L11.0164 0.0248024L11.7477 1.8863ZM4.44144 7.16301L4.04921 9.12417L4.90495 9.29532L5.61242 8.78437L4.44144 7.16301ZM1.21659 6.51803L1.60882 4.55687L1.58322 4.55175L1.55749 4.5473L1.21659 6.51803ZM5.17618 11.6758L3.76198 10.2616L3.76192 10.2616L5.17618 11.6758ZM4.74942 11.4991H2.74942V11.4991L4.74942 11.4991ZM4.74942 7.98256L6.07069 6.48114L2.74942 3.55839V7.98256H4.74942ZM6.94092 9.9111L8.35512 11.3253L9.8625 9.81798L8.26219 8.40968L6.94092 9.9111ZM13.0441 1.79721L11.1051 1.30696L11.0996 1.32865L11.0946 1.35046L13.0441 1.79721ZM10.6932 12.0555L12.6427 12.5025L12.6427 12.5023L10.6932 12.0555ZM10.2844 12.1873L8.96313 13.6888L8.96331 13.6889L10.2844 12.1873ZM4.89975 7.44882L3.72878 5.82746L1.6972 7.2947L3.57849 8.95024L4.89975 7.44882ZM13.0037 1.59601L14.6031 0.395188L13.4243 -1.17483L11.8327 -0.0253549L13.0037 1.59601ZM14.5974 -0.340323C14.2178 -0.668338 13.7556 -0.886162 13.261 -0.970173L12.5912 2.97335C12.3658 2.93506 12.1552 2.8358 11.9822 2.68633L14.5974 -0.340323ZM13.261 -0.970173C12.7664 -1.05418 12.2582 -1.00118 11.7916 -0.816897L13.2608 2.9035C13.0482 2.98748 12.8166 3.01163 12.5912 2.97335L13.261 -0.970173ZM11.7949 -0.818201L0.260059 3.71335L1.72267 7.43636L13.2575 2.9048L11.7949 -0.818201ZM0.260099 3.71334C-0.292817 3.93054 -0.760533 4.32095 -1.07306 4.82615L2.32865 6.93052C2.18659 7.16017 1.97398 7.33764 1.72263 7.43637L0.260099 3.71334ZM-1.07306 4.82615C-1.38558 5.33135 -1.52611 5.92416 -1.47362 6.51589L2.51074 6.16241C2.5346 6.43139 2.47072 6.70087 2.32865 6.93052L-1.07306 4.82615ZM-1.47362 6.51589C-1.42112 7.10761 -1.17842 7.66643 -0.781841 8.10872L2.19627 5.43835C2.37655 5.63941 2.48687 5.89343 2.51074 6.16241L-1.47362 6.51589ZM-0.781841 8.10872C-0.38526 8.551 0.143881 8.85298 0.726402 8.96945L1.51067 5.04709C1.77547 5.10003 2.016 5.2373 2.19627 5.43835L-0.781841 8.10872ZM0.726276 8.96942L3.85717 9.59564L4.64168 5.67333L1.51079 5.04711L0.726276 8.96942ZM2.24942 7.63449V11.4991H6.24942V7.63449H2.24942ZM2.24953 11.478C2.24373 12.0294 2.40454 12.5697 2.71091 13.0282L6.03674 10.8059C6.1779 11.0171 6.25199 11.2661 6.24931 11.5201L2.24953 11.478ZM2.71091 13.0282C3.01728 13.4867 3.45494 13.842 3.9666 14.0477L5.45821 10.3362C5.69394 10.4309 5.89559 10.5946 6.03674 10.8059L2.71091 13.0282ZM3.93998 14.0367C4.27539 14.1772 4.63524 14.25 4.99888 14.2509L5.00949 10.2509C5.17273 10.2514 5.33427 10.2841 5.48483 10.3471L3.93998 14.0367ZM5.01045 14.2509C5.37317 14.2498 5.73206 14.1766 6.06628 14.0357L4.51212 10.35C4.66589 10.2851 4.83102 10.2515 4.99792 10.251L5.01045 14.2509ZM6.06628 14.0357C6.4005 13.8948 6.70341 13.6889 6.95743 13.4299L4.10209 10.6287C4.21897 10.5096 4.35834 10.4148 4.51212 10.35L6.06628 14.0357ZM6.94397 13.4435L8.73123 11.6563L5.90281 8.82785L4.11554 10.6151L6.94397 13.4435ZM5.99576 11.7435L8.63284 14.0641L11.2754 11.0613L8.63828 8.74064L5.99576 11.7435ZM8.62603 14.0581C9.12739 14.5034 9.77444 14.7496 10.445 14.7503L10.4493 10.7503C10.7563 10.7507 11.0526 10.8634 11.2822 11.0673L8.62603 14.0581ZM10.4494 14.7503C10.7372 14.75 11.0231 14.7046 11.2968 14.6158L10.0628 10.811C10.1862 10.7709 10.3151 10.7505 10.4448 10.7503L10.4494 14.7503ZM11.2844 14.6198C11.7417 14.4748 12.153 14.2124 12.4772 13.8588L9.52896 11.1555C9.67744 10.9936 9.86579 10.8734 10.0752 10.807L11.2844 14.6198ZM12.4772 13.8588C12.8014 13.5052 13.0273 13.0727 13.1322 12.6046L9.22901 11.7298C9.27706 11.5155 9.38048 11.3174 9.52896 11.1555L12.4772 13.8588ZM13.1301 12.614L15.4809 2.35565L11.582 1.46215L9.23114 11.7205L13.1301 12.614ZM15.4803 2.3585C15.593 1.86985 15.5699 1.35968 15.4134 0.883236L11.6131 2.13126C11.5418 1.91425 11.5313 1.68187 11.5827 1.45931L15.4803 2.3585ZM15.4134 0.883236C15.257 0.406791 14.9731 -0.0177602 14.5926 -0.344432L11.987 2.69043C11.8137 2.54164 11.6844 2.34827 11.6131 2.13126L15.4134 0.883236ZM3.00348 6.06617C3.04873 6.45922 2.96012 6.85604 2.75195 7.19249L-0.649615 5.08789C-0.91499 5.5168 -1.02796 6.02267 -0.970267 6.52373L3.00348 6.06617ZM2.75195 7.19249C2.54378 7.52895 2.22822 7.78536 1.8563 7.92029L0.49216 4.16009C0.0180328 4.33209 -0.384238 4.65897 -0.649615 5.08789L2.75195 7.19249ZM1.90554 7.90169L12.479 3.74781L11.0164 0.0248024L0.442921 4.17869L1.90554 7.90169ZM10.5767 0.264942L3.27046 5.54165L5.61242 8.78437L12.9187 3.50767L10.5767 0.264942ZM4.83367 5.20185L1.60882 4.55687L0.824352 8.47919L4.04921 9.12417L4.83367 5.20185ZM1.55749 4.5473C1.94731 4.61473 2.303 4.81165 2.56707 5.10622L-0.41137 7.77623C-0.074726 8.15176 0.378721 8.4028 0.875683 8.48877L1.55749 4.5473ZM2.56707 5.10622C2.83113 5.40079 2.98815 5.77581 3.01274 6.17066L-0.97953 6.41924C-0.948187 6.92261 -0.748011 7.4007 -0.41137 7.77623L2.56707 5.10622ZM3.76192 10.2616C4.00665 10.0169 4.31848 9.85021 4.65795 9.78267L5.43842 13.7058C5.87488 13.619 6.27579 13.4047 6.59045 13.09L3.76192 10.2616ZM4.65795 9.78267C4.9974 9.71514 5.34927 9.74977 5.66907 9.88223L4.13842 13.5778C4.54958 13.7481 5.00199 13.7926 5.43842 13.7058L4.65795 9.78267ZM5.66907 9.88223C5.98887 10.0147 6.26219 10.239 6.45448 10.5268L3.12863 12.7491C3.37586 13.1191 3.72726 13.4075 4.13842 13.5778L5.66907 9.88223ZM6.45448 10.5268C6.64677 10.8146 6.74942 11.1529 6.74942 11.499L2.74942 11.4991C2.74943 11.9441 2.8814 12.3791 3.12863 12.7491L6.45448 10.5268ZM6.74942 11.4991V7.98256H2.74942V11.4991H6.74942ZM3.42816 9.48397L5.61966 11.4125L8.26219 8.40968L6.07069 6.48114L3.42816 9.48397ZM5.52672 8.49687L3.76198 10.2616L6.59038 13.09L8.35512 11.3253L5.52672 8.49687ZM11.0946 1.35046L8.74378 11.6088L12.6427 12.5023L14.9936 2.24396L11.0946 1.35046ZM8.74382 11.6085C8.81157 11.3131 8.9549 11.0403 9.15975 10.8169L12.1079 13.5203C12.3713 13.2331 12.5556 12.8824 12.6427 12.5025L8.74382 11.6085ZM9.15975 10.8169C9.3646 10.5935 9.62398 10.4271 9.91248 10.3341L11.1401 14.1411C11.511 14.0215 11.8445 13.8076 12.1079 13.5203L9.15975 10.8169ZM9.91248 10.3341C10.201 10.2411 10.5087 10.2246 10.8055 10.2862L9.99194 14.2026C10.3735 14.2819 10.7691 14.2607 11.1401 14.1411L9.91248 10.3341ZM10.8055 10.2862C11.1022 10.3479 11.3779 10.4856 11.6055 10.6858L8.96331 13.6889C9.2559 13.9463 9.61035 14.1234 9.99194 14.2026L10.8055 10.2862ZM11.6057 10.6859L6.22101 5.9474L3.57849 8.95024L8.96313 13.6888L11.6057 10.6859ZM6.07073 9.07018L14.1747 3.21737L11.8327 -0.0253549L3.72878 5.82746L6.07073 9.07018ZM11.4043 2.79683C11.2464 2.58655 11.1376 2.34361 11.0859 2.0858L15.0076 1.29825C14.9418 0.970816 14.8036 0.662255 14.6031 0.395188L11.4043 2.79683ZM11.0859 2.0858C11.0341 1.82801 11.0407 1.56189 11.1051 1.30696L14.9831 2.28745C15.0649 1.96367 15.0733 1.62567 15.0076 1.29825L11.0859 2.0858Z" fill="#777777" mask="url(#path-1-inside-1_2073_58732)"/>
</svg>
