<svg width="18" height="16" viewBox="0 0 18 16" fill="none" xmlns="http://www.w3.org/2000/svg">
<mask id="path-1-inside-1_2073_29273" fill="white">
<path d="M16.8622 0.716236C16.7331 0.604649 16.5759 0.530548 16.4076 0.501969C16.2394 0.473389 16.0665 0.491422 15.9077 0.554112L1.48921 6.21856C1.30072 6.2926 1.14128 6.42569 1.03475 6.5979C0.928209 6.77012 0.880304 6.97221 0.8982 7.17392C0.916095 7.37563 0.998828 7.56613 1.13402 7.7169C1.26921 7.86767 1.44959 7.97061 1.64817 8.01032L5.56178 8.79309V13.6238C5.55982 13.8096 5.61402 13.9918 5.71728 14.1463C5.82054 14.3008 5.96805 14.4206 6.14051 14.4899C6.25604 14.5383 6.37998 14.5633 6.50523 14.5637C6.62762 14.5633 6.74872 14.5386 6.8615 14.491C6.97427 14.4435 7.07648 14.374 7.1622 14.2866L9.39627 12.0526L12.6926 14.9534C12.8625 15.1042 13.0817 15.1877 13.3089 15.1879C13.4077 15.1878 13.5058 15.1722 13.5997 15.1417C13.7547 15.0926 13.894 15.0037 14.0039 14.8839C14.1137 14.7641 14.1902 14.6176 14.2258 14.459L17.1643 1.63611C17.2027 1.46981 17.1948 1.29619 17.1416 1.13404C17.0883 0.971897 16.9917 0.827411 16.8622 0.716236ZM1.52076 7.11867C1.51298 7.05116 1.5282 6.98301 1.56396 6.92522C1.59971 6.86743 1.65391 6.8234 1.71779 6.80022L14.9346 1.60786L5.8018 8.20374L1.77073 7.39753C1.70377 7.38594 1.64267 7.35212 1.59731 7.30152C1.55195 7.25092 1.52498 7.1865 1.52076 7.11867ZM6.72023 13.8447C6.67653 13.8884 6.62085 13.9182 6.56023 13.9303C6.49962 13.9423 6.43678 13.9361 6.37968 13.9125C6.32259 13.8888 6.27378 13.8488 6.23944 13.7974C6.20511 13.746 6.18678 13.6856 6.18678 13.6238V9.22818L8.92615 11.6389L6.72023 13.8447ZM16.5551 1.49649L13.6166 14.3194C13.6045 14.3721 13.5789 14.4209 13.5423 14.4607C13.5057 14.5006 13.4594 14.5304 13.4078 14.547C13.3563 14.5636 13.3014 14.5665 13.2484 14.5555C13.1954 14.5445 13.1461 14.5199 13.1055 14.4842L6.37469 8.56101L16.5046 1.24499C16.5313 1.28049 16.5496 1.3215 16.5584 1.36502C16.5671 1.40854 16.566 1.45346 16.5551 1.49649Z"/>
</mask>
<path d="M16.8622 0.716236C16.7331 0.604649 16.5759 0.530548 16.4076 0.501969C16.2394 0.473389 16.0665 0.491422 15.9077 0.554112L1.48921 6.21856C1.30072 6.2926 1.14128 6.42569 1.03475 6.5979C0.928209 6.77012 0.880304 6.97221 0.8982 7.17392C0.916095 7.37563 0.998828 7.56613 1.13402 7.7169C1.26921 7.86767 1.44959 7.97061 1.64817 8.01032L5.56178 8.79309V13.6238C5.55982 13.8096 5.61402 13.9918 5.71728 14.1463C5.82054 14.3008 5.96805 14.4206 6.14051 14.4899C6.25604 14.5383 6.37998 14.5633 6.50523 14.5637C6.62762 14.5633 6.74872 14.5386 6.8615 14.491C6.97427 14.4435 7.07648 14.374 7.1622 14.2866L9.39627 12.0526L12.6926 14.9534C12.8625 15.1042 13.0817 15.1877 13.3089 15.1879C13.4077 15.1878 13.5058 15.1722 13.5997 15.1417C13.7547 15.0926 13.894 15.0037 14.0039 14.8839C14.1137 14.7641 14.1902 14.6176 14.2258 14.459L17.1643 1.63611C17.2027 1.46981 17.1948 1.29619 17.1416 1.13404C17.0883 0.971897 16.9917 0.827411 16.8622 0.716236ZM1.52076 7.11867C1.51298 7.05116 1.5282 6.98301 1.56396 6.92522C1.59971 6.86743 1.65391 6.8234 1.71779 6.80022L14.9346 1.60786L5.8018 8.20374L1.77073 7.39753C1.70377 7.38594 1.64267 7.35212 1.59731 7.30152C1.55195 7.25092 1.52498 7.1865 1.52076 7.11867ZM6.72023 13.8447C6.67653 13.8884 6.62085 13.9182 6.56023 13.9303C6.49962 13.9423 6.43678 13.9361 6.37968 13.9125C6.32259 13.8888 6.27378 13.8488 6.23944 13.7974C6.20511 13.746 6.18678 13.6856 6.18678 13.6238V9.22818L8.92615 11.6389L6.72023 13.8447ZM16.5551 1.49649L13.6166 14.3194C13.6045 14.3721 13.5789 14.4209 13.5423 14.4607C13.5057 14.5006 13.4594 14.5304 13.4078 14.547C13.3563 14.5636 13.3014 14.5665 13.2484 14.5555C13.1954 14.5445 13.1461 14.5199 13.1055 14.4842L6.37469 8.56101L16.5046 1.24499C16.5313 1.28049 16.5496 1.3215 16.5584 1.36502C16.5671 1.40854 16.566 1.45346 16.5551 1.49649Z" fill="#AAAAAA"/>
<path d="M16.8622 0.716236L15.5546 2.22957L15.5594 2.23367L16.8622 0.716236ZM15.9077 0.554112L16.639 2.41562L16.6424 2.41431L15.9077 0.554112ZM1.48921 6.21856L2.22048 8.08007L2.22052 8.08006L1.48921 6.21856ZM1.64817 8.01032L2.04042 6.04916L2.0403 6.04914L1.64817 8.01032ZM5.56178 8.79309H7.56178V7.15351L5.95404 6.83194L5.56178 8.79309ZM5.56178 13.6238L7.56167 13.6448L7.56178 13.6343V13.6238H5.56178ZM6.14051 14.4899L6.91293 12.6451L6.89966 12.6395L6.88631 12.6341L6.14051 14.4899ZM6.50523 14.5637L6.49992 16.5637L6.5115 16.5637L6.50523 14.5637ZM7.1622 14.2866L5.74798 12.8724L5.74122 12.8792L5.73452 12.886L7.1622 14.2866ZM9.39627 12.0526L10.7175 10.5511L9.30889 9.31152L7.98206 10.6383L9.39627 12.0526ZM12.6926 14.9534L14.0207 13.458L14.0139 13.452L12.6926 14.9534ZM13.3089 15.1879L13.3067 17.1879L13.3112 17.1879L13.3089 15.1879ZM13.5997 15.1417L12.9951 13.2353L12.9827 13.2393L13.5997 15.1417ZM14.2258 14.459L12.2763 14.0122L12.2742 14.0216L14.2258 14.459ZM17.1643 1.63611L15.2155 1.18652L15.2149 1.18936L17.1643 1.63611ZM1.52076 7.11867L3.51689 6.99438L3.51363 6.94202L3.50763 6.88989L1.52076 7.11867ZM1.71779 6.80022L2.39986 8.68032L2.4246 8.67135L2.4491 8.66172L1.71779 6.80022ZM14.9346 1.60786L16.1056 3.22923L14.2033 -0.253637L14.9346 1.60786ZM5.8018 8.20374L5.40957 10.1649L6.26531 10.3361L6.97278 9.8251L5.8018 8.20374ZM1.77073 7.39753L2.16297 5.43637L2.13736 5.43124L2.11164 5.42679L1.77073 7.39753ZM6.72023 13.8447L5.30603 12.4305L5.30596 12.4306L6.72023 13.8447ZM6.18678 13.6238L4.18678 13.6238V13.6238L6.18678 13.6238ZM6.18678 9.22818L7.50804 7.72676L4.18678 4.80401V9.22818H6.18678ZM8.92615 11.6389L10.3404 13.0531L11.8477 11.5457L10.2474 10.1374L8.92615 11.6389ZM16.5551 1.49649L14.6161 1.00625L14.6107 1.02794L14.6057 1.04974L16.5551 1.49649ZM13.6166 14.3194L15.566 14.7663L15.566 14.7661L13.6166 14.3194ZM13.1055 14.4842L11.7842 15.9856L11.7844 15.9857L13.1055 14.4842ZM6.37469 8.56101L5.20371 6.93965L3.17214 8.40689L5.05343 10.0624L6.37469 8.56101ZM16.5046 1.24499L18.104 0.0441749L16.9252 -1.52584L15.3336 -0.376368L16.5046 1.24499ZM18.1699 -0.797088C17.7644 -1.14742 17.2708 -1.38006 16.7425 -1.46979L16.0727 2.47373C15.881 2.44116 15.7018 2.35672 15.5546 2.22956L18.1699 -0.797088ZM16.7425 -1.46979C16.2142 -1.55952 15.6715 -1.5029 15.1731 -1.30609L16.6424 2.41431C16.4615 2.48575 16.2645 2.5063 16.0727 2.47373L16.7425 -1.46979ZM15.1764 -1.30739L0.757901 4.35705L2.22052 8.08006L16.639 2.41561L15.1764 -1.30739ZM0.757941 4.35704C0.167328 4.58905 -0.332276 5.00608 -0.666108 5.54572L2.7356 7.65009C2.61484 7.84529 2.43412 7.99615 2.22048 8.08007L0.757941 4.35704ZM-0.666108 5.54572C-0.999941 6.08536 -1.15005 6.71859 -1.09398 7.35066L2.89038 6.99718C2.91066 7.22582 2.85636 7.45488 2.7356 7.65009L-0.666108 5.54572ZM-1.09398 7.35066C-1.0379 7.98273 -0.778658 8.57964 -0.355037 9.05208L2.62308 6.38172C2.77631 6.55262 2.87009 6.76854 2.89038 6.99718L-1.09398 7.35066ZM-0.355037 9.05208C0.0685821 9.52452 0.633799 9.84709 1.25604 9.9715L2.0403 6.04914C2.26538 6.09414 2.46984 6.21082 2.62308 6.38172L-0.355037 9.05208ZM1.25591 9.97148L5.16952 10.7543L5.95404 6.83194L2.04042 6.04916L1.25591 9.97148ZM3.56178 8.79309V13.6238H7.56178V8.79309H3.56178ZM3.56189 13.6027C3.5557 14.1913 3.72734 14.7681 4.05437 15.2575L7.3802 13.0351C7.5007 13.2155 7.56395 13.428 7.56167 13.6448L3.56189 13.6027ZM4.05437 15.2575C4.38139 15.7469 4.84855 16.1261 5.3947 16.3456L6.88631 12.6341C7.08755 12.715 7.2597 12.8548 7.3802 13.0351L4.05437 15.2575ZM5.36808 16.3347C5.72659 16.4848 6.11124 16.5626 6.49992 16.5637L6.51054 12.5637C6.64873 12.564 6.78548 12.5917 6.91293 12.6451L5.36808 16.3347ZM6.5115 16.5637C6.8987 16.5624 7.2818 16.4843 7.63858 16.3339L6.08442 12.6482C6.21564 12.5928 6.35655 12.5641 6.49896 12.5637L6.5115 16.5637ZM7.63858 16.3339C7.99535 16.1835 8.3187 15.9637 8.58987 15.6873L5.73452 12.886C5.83426 12.7843 5.9532 12.7035 6.08442 12.6482L7.63858 16.3339ZM8.57641 15.7009L10.8105 13.4668L7.98206 10.6383L5.74798 12.8724L8.57641 15.7009ZM8.07501 13.554L11.3714 16.4548L14.0139 13.452L10.7175 10.5511L8.07501 13.554ZM11.3646 16.4488C11.8999 16.9242 12.5908 17.1871 13.3067 17.1879L13.311 13.1879C13.5726 13.1882 13.8251 13.2843 14.0207 13.458L11.3646 16.4488ZM13.3112 17.1879C13.6187 17.1875 13.9243 17.1391 14.2168 17.0442L12.9827 13.2393C13.0873 13.2054 13.1966 13.188 13.3066 13.1879L13.3112 17.1879ZM14.2043 17.0482C14.6926 16.8933 15.1318 16.6131 15.478 16.2356L12.5297 13.5323C12.6562 13.3943 12.8167 13.2919 12.9952 13.2353L14.2043 17.0482ZM15.478 16.2356C15.8242 15.858 16.0653 15.3962 16.1774 14.8964L12.2742 14.0216C12.3151 13.839 12.4032 13.6702 12.5297 13.5323L15.478 16.2356ZM16.1752 14.9057L19.1138 2.08286L15.2149 1.18936L12.2763 14.0122L16.1752 14.9057ZM19.1131 2.08571C19.2335 1.56381 19.2089 1.01891 19.0417 0.510032L15.2414 1.75805C15.1808 1.57347 15.1718 1.37582 15.2155 1.18652L19.1131 2.08571ZM19.0417 0.510032C18.8746 0.00115791 18.5715 -0.45229 18.1651 -0.801197L15.5594 2.23367C15.412 2.10711 15.302 1.94264 15.2414 1.75805L19.0417 0.510032ZM3.50763 6.88989C3.55133 7.26944 3.46576 7.65263 3.26474 7.97753L-0.136824 5.87292C-0.409349 6.31339 -0.525365 6.83289 -0.466116 7.34745L3.50763 6.88989ZM3.26474 7.97753C3.06372 8.30242 2.759 8.55003 2.39986 8.68032L1.03572 4.92012C0.548814 5.09676 0.135704 5.43245 -0.136824 5.87292L3.26474 7.97753ZM2.4491 8.66172L15.6659 3.46937L14.2033 -0.253637L0.986478 4.93872L2.4491 8.66172ZM13.7636 -0.0134969L4.63082 6.58238L6.97278 9.8251L16.1056 3.22923L13.7636 -0.0134969ZM6.19404 6.24258L2.16297 5.43637L1.3785 9.35869L5.40957 10.1649L6.19404 6.24258ZM2.11164 5.42679C2.48807 5.49191 2.83154 5.68206 3.08653 5.96652L0.108092 8.63652C0.453808 9.02217 0.919476 9.27997 1.42983 9.36826L2.11164 5.42679ZM3.08653 5.96652C3.34152 6.25096 3.49315 6.6131 3.51689 6.99438L-0.475378 7.24296C-0.443191 7.7599 -0.23762 8.25087 0.108092 8.63652L3.08653 5.96652ZM5.30596 12.4306C5.54196 12.1946 5.84264 12.0338 6.16999 11.9687L6.95047 15.8918C7.39905 15.8026 7.81109 15.5823 8.13449 15.2589L5.30596 12.4306ZM6.16999 11.9687C6.49732 11.9036 6.83663 11.937 7.14501 12.0647L5.61436 15.7603C6.03694 15.9353 6.50191 15.9811 6.95047 15.8918L6.16999 11.9687ZM7.14501 12.0647C7.45339 12.1924 7.71695 12.4087 7.90237 12.6862L4.57652 14.9086C4.83062 15.2888 5.19178 15.5852 5.61436 15.7603L7.14501 12.0647ZM7.90237 12.6862C8.08779 12.9637 8.18678 13.29 8.18678 13.6238L4.18678 13.6238C4.18678 14.0812 4.32242 14.5283 4.57652 14.9086L7.90237 12.6862ZM8.18678 13.6238V9.22818H4.18678V13.6238H8.18678ZM4.86551 10.7296L7.60489 13.1403L10.2474 10.1374L7.50804 7.72676L4.86551 10.7296ZM7.51195 10.2246L5.30603 12.4305L8.13443 15.259L10.3404 13.0531L7.51195 10.2246ZM14.6057 1.04974L11.6671 13.8726L15.566 14.7661L18.5046 1.94325L14.6057 1.04974ZM11.6671 13.8724C11.7325 13.5875 11.8707 13.3244 12.0682 13.109L15.0163 15.8125C15.287 15.5173 15.4764 15.1568 15.566 14.7663L11.6671 13.8724ZM12.0682 13.109C12.2657 12.8936 12.5158 12.7332 12.794 12.6435L14.0216 16.4505C14.4029 16.3275 14.7456 16.1077 15.0163 15.8125L12.0682 13.109ZM12.794 12.6435C13.0722 12.5538 13.369 12.5379 13.6551 12.5973L12.8416 16.5137C13.2338 16.5952 13.6404 16.5734 14.0216 16.4505L12.794 12.6435ZM13.6551 12.5973C13.9413 12.6568 14.2071 12.7895 14.4266 12.9826L11.7844 15.9857C12.0851 16.2503 12.4494 16.4323 12.8416 16.5137L13.6551 12.5973ZM14.4268 12.9827L7.69595 7.05959L5.05343 10.0624L11.7842 15.9856L14.4268 12.9827ZM7.54567 10.1824L17.6756 2.86636L15.3336 -0.376368L5.20371 6.93965L7.54567 10.1824ZM14.9052 2.44581C14.7527 2.24264 14.6476 2.0079 14.5975 1.7588L18.5192 0.971242C18.4517 0.635103 18.3098 0.31834 18.104 0.0441749L14.9052 2.44581ZM14.5975 1.7588C14.5475 1.50971 14.5539 1.25257 14.6161 1.00625L18.4941 1.98674C18.5781 1.65435 18.5867 1.30737 18.5192 0.971242L14.5975 1.7588Z" fill="#AAAAAA" mask="url(#path-1-inside-1_2073_29273)"/>
</svg>
