<svg width="64" height="64" viewBox="0 0 64 64" fill="none" xmlns="http://www.w3.org/2000/svg">
<path d="M30.263 57.4439C28.8837 56.3406 27.6615 55.0539 26.6303 53.6196C26.2267 53.0581 25.4452 52.9307 24.8848 53.3354C24.3246 53.7399 24.1975 54.5231 24.6012 55.0846C25.7654 56.7039 27.1453 58.1566 28.7025 59.4024C28.933 59.5867 29.2083 59.6762 29.4818 59.6762C29.8492 59.6762 30.2131 59.5149 30.4599 59.2049C30.8909 58.6641 30.8026 57.8757 30.263 57.4439Z" fill="#777777"/>
<path d="M51.8904 25.6348C53.4156 26.5184 54.8146 27.6087 56.0484 28.8753C56.2935 29.1268 56.6183 29.2531 56.9433 29.2531C57.2583 29.2531 57.5735 29.1347 57.8167 28.8967C58.3109 28.4133 58.3204 27.62 57.8381 27.1247C56.4448 25.6944 54.865 24.4633 53.1422 23.4651C52.544 23.1187 51.7795 23.3236 51.4337 23.9226C51.0881 24.5218 51.2926 25.2884 51.8904 25.6348Z" fill="#777777"/>
<path d="M61.0444 38.0536C61.1764 38.6349 61.6919 39.0288 62.2626 39.0288C62.3544 39.0288 62.4477 39.0187 62.5412 38.9974C63.2146 38.8438 63.6362 38.1724 63.4831 37.4975C63.041 35.5505 62.3319 33.6734 61.3755 31.9186C61.0446 31.3111 60.2844 31.0873 59.6788 31.4193C59.0726 31.7509 58.8495 32.5123 59.1806 33.1195C60.0263 34.6717 60.6535 36.3317 61.0444 38.0536Z" fill="#777777"/>
<path d="M39.8729 61.5034C38.1211 61.2858 36.4103 60.8276 34.7877 60.1418C34.151 59.8729 33.4179 60.1716 33.1495 60.8093C32.881 61.447 33.1792 62.1819 33.8156 62.4509C35.6504 63.2265 37.5848 63.7445 39.5652 63.9905C39.6175 63.997 39.6694 64.0001 39.7206 64.0001C40.3426 64.0001 40.8816 63.5355 40.96 62.901C41.0451 62.2142 40.5583 61.5885 39.8729 61.5034Z" fill="#777777"/>
<path d="M48.5336 22.7404C48.7033 22.0695 48.2982 21.3879 47.6289 21.2178C46.2754 20.874 44.8853 20.6635 43.4824 20.5858C42.8498 9.12747 33.3484 0 21.7585 0C9.7608 0 0 9.78094 0 21.8034C0 33.4384 9.14168 42.9735 20.6056 43.5761C20.572 43.7056 20.5576 43.8425 20.568 43.9834C20.7153 45.9801 21.1351 47.9417 21.8156 49.8139C22.0006 50.3228 22.48 50.6386 22.9907 50.6386C23.1328 50.6386 23.2773 50.6142 23.4185 50.5627C24.0674 50.3257 24.4019 49.6067 24.1657 48.9565C23.5638 47.3007 23.1927 45.5653 23.0622 43.7987C23.0564 43.7195 23.0425 43.643 23.023 43.569C33.9929 42.936 42.809 34.123 43.4751 23.1396L43.4762 23.1408C43.4772 23.1252 43.4787 23.1097 43.4796 23.0942C44.6758 23.1688 45.8605 23.3538 47.0144 23.647C47.6842 23.8173 48.364 23.4111 48.5336 22.7404ZM23.052 41.0575C23.6913 31.448 31.3833 23.7402 40.9731 23.0994C40.3336 32.7089 32.6416 40.4168 23.052 41.0575ZM20.5471 41.0635L20.5457 41.0628C10.4895 40.4341 2.50097 32.0361 2.50097 21.8034C2.50097 11.1628 11.1398 2.50614 21.7585 2.50614C31.9701 2.50614 40.3508 10.5111 40.9782 20.5882L40.979 20.5895C30.0046 21.2345 21.1908 30.0665 20.5471 41.0635Z" fill="#777777"/>
<path d="M62.811 42.1222C62.1192 42.0867 61.5347 42.6214 61.501 43.3127C61.4148 45.0831 61.0873 46.8275 60.5282 48.4973C60.3085 49.1534 60.6611 49.8637 61.3159 50.0839C61.4479 50.1282 61.582 50.1493 61.7139 50.1493C62.2366 50.1493 62.7238 49.8184 62.8992 49.2946C63.5315 47.4067 63.9016 45.4351 63.9991 43.4347C64.0328 42.7437 63.5009 42.156 62.811 42.1222Z" fill="#777777"/>
<path d="M59.9201 52.8916C59.3495 52.5014 58.5717 52.6485 58.1823 53.2199C57.1883 54.6791 55.9989 55.996 54.6472 57.1343C54.1184 57.5795 54.0501 58.3699 54.4944 58.8997C54.7417 59.1947 55.0957 59.3465 55.4523 59.3465C55.7362 59.3465 56.0219 59.2501 56.2562 59.0527C57.7823 57.7676 59.1252 56.2805 60.2478 54.633C60.6372 54.0615 60.4903 53.2818 59.9201 52.8916Z" fill="#777777"/>
<path d="M50.19 59.9468C48.584 60.6746 46.885 61.1761 45.1398 61.4376C44.4568 61.5398 43.9859 62.1778 44.0882 62.8622C44.1808 63.4838 44.7144 63.9299 45.3233 63.9299C45.3848 63.9299 45.4472 63.9254 45.5099 63.916C47.483 63.6204 49.4044 63.0532 51.2205 62.2304C51.8497 61.9453 52.1293 61.2029 51.8447 60.5723C51.5601 59.9418 50.8193 59.6622 50.19 59.9468Z" fill="#777777"/>
<path d="M11.7263 9.14428C7.85007 12.2323 5.62695 16.8464 5.62695 21.8035C5.62695 22.4955 6.18692 23.0566 6.87744 23.0566C7.56796 23.0566 8.12793 22.4956 8.12793 21.8035C8.12793 17.6149 10.0068 13.7158 13.2828 11.106C13.8234 10.6753 13.9133 9.88697 13.4834 9.34527C13.0537 8.80357 12.267 8.71348 11.7263 9.14428Z" fill="#777777"/>
<path d="M21.7583 5.63904C20.2384 5.63904 18.7335 5.85081 17.2856 6.2687C16.622 6.46017 16.2389 7.1545 16.43 7.81963C16.5877 8.36872 17.0878 8.72622 17.631 8.72622C17.7455 8.72622 17.8621 8.71031 17.9779 8.67697C19.2007 8.32411 20.4727 8.14517 21.7583 8.14517C22.4488 8.14517 23.0088 7.58405 23.0088 6.89211C23.0088 6.20016 22.4488 5.63904 21.7583 5.63904Z" fill="#777777"/>
</svg>
