<svg width="20" height="16" viewBox="0 0 20 16" fill="none" xmlns="http://www.w3.org/2000/svg">
<path d="M19.1673 0.500079C18.3693 1.06298 17.4857 1.4935 16.5507 1.77508C16.0488 1.198 15.3818 0.788989 14.6398 0.603351C13.8979 0.417713 13.1169 0.464409 12.4024 0.737123C11.6879 1.00984 11.0744 1.49541 10.6448 2.12818C10.2153 2.76094 9.9904 3.51036 10.0007 4.27508V5.10841C8.53618 5.14639 7.08505 4.82159 5.77649 4.16295C4.46794 3.50431 3.34258 2.53228 2.50065 1.33341C2.50065 1.33341 -0.832682 8.83341 6.66732 12.1667C4.95109 13.3317 2.90662 13.9159 0.833984 13.8334C8.33398 18.0001 17.5007 13.8334 17.5007 4.25008C17.4999 4.01796 17.4776 3.78641 17.434 3.55841C18.2845 2.71966 18.8847 1.66067 19.1673 0.500079Z" stroke="#AAAAAA" stroke-width="0.6" stroke-linecap="round" stroke-linejoin="round"/>
</svg>
