<svg width="37" height="36" viewBox="0 0 37 36" fill="none" xmlns="http://www.w3.org/2000/svg">
<g clip-path="url(#clip0_1872_7200)">
<path d="M23.0373 20.5581L23.2276 19.9117C23.5149 18.9346 24.4017 17.4457 25.125 16.7257C25.2558 16.5956 28.3315 13.496 28.3315 9.85033C28.3315 4.41888 23.9214 0 18.5007 0C13.0801 0 8.66992 4.41888 8.66992 9.85033C8.66992 13.496 11.746 16.5956 11.8766 16.7255C12.5996 17.4449 13.4865 18.934 13.7745 19.912L13.9646 20.5581C12.1658 20.8299 10.7663 22.7673 10.7663 25.1109C10.7663 27.2974 13.2993 32.3134 13.588 32.8782C13.7437 33.1826 14.0567 33.374 14.3986 33.374C14.7404 33.374 15.0535 33.1823 15.2091 32.8779C15.2279 32.841 15.4937 32.3198 15.8555 31.5503C16.7302 33.6213 17.6401 35.4061 17.6902 35.5042C17.8458 35.8085 18.1588 36 18.5007 36C18.8426 36 19.1555 35.8085 19.3112 35.5042C19.3613 35.406 20.2713 33.6211 21.1459 31.5502C21.508 32.32 21.774 32.8414 21.7928 32.8781C21.9484 33.1824 22.2614 33.374 22.6033 33.374C22.9451 33.374 23.2581 33.1824 23.4138 32.8781C23.7025 32.3134 26.2351 27.2974 26.2351 25.1109C26.235 22.7674 24.8359 20.83 23.0373 20.5581ZM13.1603 15.4346C13.1336 15.408 10.4904 12.747 10.4904 9.85021C10.4904 5.42247 14.0838 1.8204 18.5007 1.8204C22.9177 1.8204 26.511 5.42259 26.511 9.85021C26.511 12.731 23.8671 15.4089 23.841 15.4351C22.8939 16.3779 21.8573 18.1186 21.4813 19.3977L20.7934 21.7333H20.3822L21.2509 14.9848H22.4004C22.9031 14.9848 23.3106 14.5774 23.3106 14.0745C23.3106 13.5717 22.9031 13.1643 22.4004 13.1643H14.6013C14.0985 13.1643 13.691 13.5717 13.691 14.0745C13.691 14.5774 14.0985 14.9848 14.6013 14.9848H15.7506L16.6193 21.7333H16.2081L15.5209 19.3977C15.1437 18.1172 14.1068 16.3766 13.1603 15.4346ZM18.4548 21.7333L17.5862 14.9848H19.4153L18.5466 21.7333H18.4548ZM22.6046 30.3693C22.3924 29.9085 22.1595 29.3863 21.9334 28.8465C21.7884 28.5003 21.4453 28.2782 21.0704 28.2882C20.6952 28.2978 20.3643 28.5367 20.2372 28.89C19.7214 30.3241 19.0322 31.8725 18.5007 33.0062C17.9692 31.8725 17.28 30.3244 16.7642 28.8903C16.6371 28.5371 16.3064 28.298 15.9311 28.2884C15.5549 28.2783 15.2132 28.5003 15.0682 28.8466C14.842 29.3863 14.6091 29.9087 14.3968 30.3693C13.509 28.4373 12.5869 26.1099 12.5869 25.1109C12.5869 23.6142 13.5103 22.3495 14.4905 22.345L14.654 22.9006C14.768 23.2879 15.1234 23.554 15.5272 23.554H21.4742C21.8779 23.554 22.2334 23.2882 22.3473 22.9009L22.5111 22.345C23.491 22.3494 24.4147 23.614 24.4147 25.1109C24.4145 26.1089 23.4925 28.4367 22.6046 30.3693Z" fill="white"/>
</g>
<defs>
<clipPath id="clip0_1872_7200">
<rect width="36" height="36" fill="white" transform="translate(0.5)"/>
</clipPath>
</defs>
</svg>
