<svg width="84" height="54" viewBox="0 0 84 54" fill="none" xmlns="http://www.w3.org/2000/svg">
<g clip-path="url(#clip0_1714_2917)">
<path d="M21.9817 41.6873C20.0383 42.0483 19.015 42.0981 17.7876 42.0483C16.2527 41.9968 14.8205 41.2764 13.9505 40.2484C13.3881 39.5796 13.183 38.8592 13.183 37.5217C10.8295 41.0203 8.83489 42.2547 5.61132 42.2547C0.752045 42.2547 -2.11254 38.0357 -1.60152 31.8085C-0.834074 23.061 5.66254 16.5778 13.3351 16.9371C13.7948 16.9371 14.5109 17.0403 15.4322 17.1434L17.0697 6.08008H24.8962L21.1617 31.1398L20.9051 33.3009C20.4962 36.0791 21.1106 37.0058 23.4128 36.851L21.9817 41.6873ZM14.5127 23.4719C14.1556 23.3688 13.8992 23.3171 13.7453 23.3171C12.1592 23.0593 10.421 23.5235 9.3459 24.347C7.811 25.6329 6.63509 28.2584 6.37866 30.9334C6.12233 33.6086 7.04356 35.1524 8.88611 35.2556C10.3185 35.3588 11.4943 34.3805 13.2856 31.757L14.5127 23.4719Z" fill="white"/>
<path d="M33.2359 41.4811H25.4092L28.9392 17.6576H36.7649L33.2359 41.4811ZM38.1971 11.0196C38.1971 13.8495 36.2026 15.8558 33.4404 15.8558C30.9348 15.8558 29.4003 14.2603 29.4003 11.6368C29.4003 9.06304 31.497 7.00513 34.157 7.00513C36.5082 7.00513 38.1971 8.65219 38.1971 11.0196Z" fill="white"/>
<path d="M55.3324 23.4203H50.3712L48.1712 38.1371C47.4035 43.2827 46.4312 46.3706 44.7445 48.8908C42.5956 52.0818 38.9123 53.5742 34.1044 53.1614C33.8478 53.1614 33.4911 53.1098 33.0822 53.0583L32.7744 48.0157H33.7477C35.4877 48.0157 37.3278 47.1406 38.1978 45.8546C39.12 44.4655 39.6822 42.7153 40.1411 39.423L42.5467 23.4203H38.4544L39.3244 17.6574H43.4167L43.6211 16.3714C44.5944 9.73348 47.8667 6.23485 53.5968 5.66926C55.3368 5.51449 56.7168 5.61766 58.9679 6.13168L57.6901 11.5335C57.3313 11.5335 57.0768 11.4819 56.8712 11.4819C54.7223 11.3271 53.1368 11.9959 52.2156 13.3352C51.6534 14.1588 51.3968 14.9824 50.9367 17.6574H56.2068L55.3324 23.4203Z" fill="white"/>
<path d="M74.7184 17.5525L69.1254 30.8303L66.2294 17.5525H58.3537L63.702 40.0918C62.7798 41.9949 62.372 42.7669 61.6554 43.8484C60.0698 46.2674 57.972 47.5534 55.6698 47.5534C54.9031 47.5534 54.3919 47.5018 53.3164 47.2954L54.1864 53.0583C54.6975 53.1615 55.0564 53.213 55.3109 53.213C60.3243 53.7271 63.8021 51.9787 67.5887 47.0374C69.2765 44.8248 70.401 42.87 73.3177 37.0556L83.1857 17.5525H74.7184Z" fill="white"/>
<path d="M66.6964 11.5297L67.4381 6.63827H69.4935L68.2059 15.1002L66.828 15.3876L63.3426 10.4298L62.614 15.2163H60.5586L61.8462 6.79303L63.1849 6.50562L66.6964 11.5297Z" fill="white"/>
<path d="M72.7169 10.3395H75.1616L74.9017 12.0787H72.457L71.9872 15.218H69.8154L71.09 6.63818H76.0316L75.7717 8.45658H72.9898L72.7169 10.3395Z" fill="white"/>
<path d="M80.1827 15.22H78.011L79.0126 8.45853H76.7256L76.9975 6.64014H83.7476L83.4746 8.45853H81.1996L80.1827 15.22Z" fill="white"/>
<path d="M1.72857 53.3343L1.72117 48.9716L-0.610424 52.6564H-0.809983L-3.14158 48.9864V53.3343H-3.53906V48.2366H-3.1965L-0.705582 52.1755L1.78534 48.2366H2.12051L2.12779 53.3343H1.72857Z" fill="white"/>
<path d="M7.54353 51.8992H4.31257L3.60385 53.3343H3.16602L5.72838 48.2366H6.135L8.69737 53.3343H8.25965L7.54353 51.8992ZM7.39334 51.586L5.9299 48.6437L4.47384 51.586H7.39334Z" fill="white"/>
<path d="M13.6067 53.3343L12.2789 51.6301C12.0828 51.6542 11.9015 51.667 11.7385 51.667H10.1469V53.3343H9.74023V48.2366H11.7367C12.4364 48.2366 12.9859 48.3876 13.3832 48.6916C13.7807 48.9955 13.9804 49.4156 13.9804 49.9555C13.9804 50.3589 13.8669 50.6979 13.6415 50.9705C13.4163 51.2451 13.0939 51.4385 12.6745 51.5491L14.0664 53.3325H13.6067V53.3343ZM11.7385 51.3391C12.332 51.3391 12.7862 51.2193 13.0994 50.9779C13.4126 50.7385 13.5682 50.3958 13.5682 49.9555C13.5682 49.5133 13.4126 49.1725 13.0994 48.9329C12.7862 48.6934 12.332 48.5718 11.7385 48.5718H10.1469V51.3391H11.7385Z" fill="white"/>
<path d="M17.1557 50.8212L15.9066 51.993V53.3324H15.5V48.2346H15.9066V51.5121L19.3827 48.2346H19.8753L17.425 50.5505L20.0428 53.3324H19.5502L17.1557 50.8212Z" fill="white"/>
<path d="M24.9671 52.9991V53.3343H21.125V48.2366H24.8486V48.5718H21.5306V50.5819H24.4984V50.9098H21.5306V52.9991H24.9671Z" fill="white"/>
<path d="M27.5454 48.5718H25.54V48.2366H29.9564V48.5718H27.951V53.3343H27.5443L27.5454 48.5718Z" fill="white"/>
</g>
<defs>
<clipPath id="clip0_1714_2917">
<rect width="174" height="52.2" fill="white" transform="translate(-90 0.899902)"/>
</clipPath>
</defs>
</svg>
