<svg width="16" height="16" viewBox="0 0 16 16" fill="none" xmlns="http://www.w3.org/2000/svg">
<path d="M8 1.75C6.9058 1.75028 5.83084 2.03775 4.88256 2.58367C3.93427 3.12959 3.14588 3.91483 2.59618 4.86093C2.04647 5.80702 1.75471 6.88083 1.75006 7.97502C1.7454 9.06921 2.02801 10.1455 2.56964 11.0962L2.00687 13.066C1.97013 13.1946 1.96845 13.3307 2.00201 13.4601C2.03556 13.5896 2.10313 13.7078 2.1977 13.8023C2.29228 13.8969 2.41042 13.9644 2.5399 13.998C2.66937 14.0315 2.80545 14.0299 2.93405 13.9931L4.90384 13.4304C5.73547 13.9045 6.66488 14.1813 7.6204 14.2393C8.57592 14.2974 9.53202 14.1352 10.4149 13.7653C11.2979 13.3954 12.084 12.8276 12.7128 12.1057C13.3415 11.3839 13.7961 10.5273 14.0413 9.60194C14.2866 8.67661 14.3161 7.70731 14.1274 6.76879C13.9388 5.83027 13.5371 4.94762 12.9534 4.18892C12.3696 3.43022 11.6194 2.81574 10.7606 2.39288C9.90176 1.97001 8.95729 1.75007 8 1.75ZM8 13.75C6.9673 13.7507 5.95352 13.4729 5.06546 12.9458C5.03619 12.9284 5.00365 12.9171 4.96986 12.9127C4.93607 12.9083 4.90175 12.9109 4.86899 12.9203L2.79666 13.5124C2.75379 13.5246 2.70843 13.5252 2.66527 13.514C2.62212 13.5028 2.58274 13.4803 2.55122 13.4488C2.51969 13.4172 2.49718 13.3779 2.486 13.3347C2.47482 13.2915 2.47539 13.2462 2.48764 13.2033L3.07968 11.131C3.08904 11.0983 3.0916 11.064 3.08721 11.0302C3.08283 10.9964 3.07158 10.9639 3.05417 10.9346C2.40652 9.84344 2.13793 8.56875 2.29023 7.30906C2.44254 6.04937 3.00719 4.87542 3.89622 3.97009C4.78526 3.06475 5.94876 2.47887 7.20547 2.30371C8.46218 2.12855 9.74155 2.37394 10.8443 3.00167C11.947 3.62939 12.8111 4.60419 13.3021 5.77422C13.793 6.94425 13.8832 8.24381 13.5586 9.47045C13.234 10.6971 12.5129 11.7819 11.5075 12.556C10.5021 13.3301 9.26886 13.7499 8 13.75ZM11.157 9.15894L9.87823 8.42822C9.76254 8.36219 9.63136 8.32814 9.49816 8.32955C9.36496 8.33097 9.23453 8.36781 9.12027 8.43628L8.25736 8.95404C7.73498 8.68937 7.31062 8.265 7.04596 7.74262L7.56369 6.8797C7.63216 6.76544 7.66899 6.63502 7.67041 6.50182C7.67182 6.36863 7.63777 6.23745 7.57175 6.12176L6.84106 4.84301C6.7814 4.73891 6.69534 4.65238 6.59156 4.59216C6.48778 4.53193 6.36996 4.50015 6.24997 4.5C5.72087 4.50013 5.21336 4.70986 4.83853 5.0833C4.4637 5.45673 4.25207 5.96345 4.24997 6.49255C4.249 7.18261 4.38408 7.86609 4.64747 8.5039C4.91087 9.14172 5.29742 9.72134 5.78502 10.2096C6.27262 10.6979 6.85169 11.0853 7.48913 11.3496C8.12656 11.6139 8.80985 11.75 9.49991 11.75H9.50742C10.0365 11.7479 10.5432 11.5363 10.9167 11.1614C11.2901 10.7866 11.4998 10.2791 11.5 9.75C11.4998 9.63001 11.4681 9.51219 11.4078 9.40841C11.3476 9.30463 11.2611 9.21858 11.157 9.15894ZM9.50671 11.25H9.49994C8.8756 11.25 8.25738 11.1269 7.68065 10.8878C7.10392 10.6487 6.57998 10.2982 6.13882 9.85638C5.69766 9.41459 5.34792 8.89016 5.10961 8.31309C4.87129 7.73602 4.74909 7.11763 4.74997 6.49329C4.7517 6.09661 4.9105 5.71677 5.19162 5.43691C5.47275 5.15704 5.85329 4.99995 6.24997 5C6.28183 5.00004 6.31312 5.00848 6.34068 5.02447C6.36824 5.04045 6.3911 5.06342 6.40695 5.09106L7.13763 6.36987C7.15964 6.40844 7.17098 6.45216 7.17051 6.49655C7.17004 6.54095 7.15776 6.58441 7.13495 6.6225L6.54812 7.60053C6.52738 7.6351 6.5153 7.67417 6.51292 7.71442C6.51055 7.75467 6.51794 7.7949 6.53448 7.83167C6.86078 8.5579 7.44211 9.13922 8.16833 9.46552C8.20511 9.48207 8.24534 9.48947 8.2856 9.48709C8.32586 9.4847 8.36494 9.47261 8.3995 9.45185L9.37747 8.86505C9.41556 8.84223 9.45904 8.82994 9.50344 8.82946C9.54785 8.82898 9.59158 8.84031 9.63016 8.86231L10.9089 9.59308C10.9366 9.60892 10.9595 9.63177 10.9755 9.65932C10.9915 9.68687 10.9999 9.71815 11 9.75C11 10.1467 10.8429 10.5272 10.5631 10.8083C10.2832 11.0895 9.90338 11.2483 9.50671 11.25Z" fill="#777777"/>
</svg>
